SplineFontDB: 3.2
FontName: Entity-Light
FullName: Entity Light
FamilyName: Entity
Weight: Light
Copyright: Based on Geist Copyright 2024 The Geist Project Authors https:github.comvercelgeist-font.git
Version: 0.1
ItalicAngle: 0
UnderlinePosition: -125
UnderlineWidth: 50
Ascent: 800
Descent: 200
InvalidEm: 0
sfntRevision: 0x0000199a
LayerCount: 2
Layer: 0 0 "Back" 1
Layer: 1 0 "Fore" 0
XUID: [1021 1008 -1557834819 10710142]
StyleMap: 0x0040
FSType: 0
OS2Version: 4
OS2_WeightWidthSlopeOnly: 0
OS2_UseTypoMetrics: 1
CreationTime: 1728311655
ModificationTime: 1746831874
PfmFamily: 81
TTFWeight: 300
TTFWidth: 5
LineGap: 0
VLineGap: 0
Panose: 0 0 0 0 0 0 0 0 0 0
OS2TypoAscent: 1005
OS2TypoAOffset: 0
OS2TypoDescent: -295
OS2TypoDOffset: 0
OS2TypoLinegap: 0
OS2WinAscent: 1012
OS2WinAOffset: 0
OS2WinDescent: 262
OS2WinDOffset: 0
HheadAscent: 1005
HheadAOffset: 0
HheadDescent: -295
HheadDOffset: 0
OS2SubXSize: 650
OS2SubYSize: 600
OS2SubXOff: 0
OS2SubYOff: 75
OS2SupXSize: 650
OS2SupYSize: 600
OS2SupXOff: 0
OS2SupYOff: 350
OS2StrikeYSize: 50
OS2StrikeYPos: 318
OS2CapHeight: 710
OS2XHeight: 530
OS2Vendor: 'VRCL'
OS2CodePages: 20000097.00000000
OS2UnicodeRanges: a10002ff.5001e5fb.00000000.00000000
Lookup: 1 0 0 "'aalt' Access All Alternates in Latin lookup 0" { "'aalt' Access All Alternates in Latin lookup 0 subtable"  } ['aalt' ('DFLT' <'dflt' > 'latn' <'AZE ' 'CAT ' 'CRT ' 'KAZ ' 'MAH ' 'MOL ' 'NLD ' 'ROM ' 'TAT ' 'TRK ' 'dflt' > ) ]
Lookup: 3 0 0 "'aalt' Access All Alternates in Latin lookup 1" { "'aalt' Access All Alternates in Latin lookup 1 subtable"  } ['aalt' ('DFLT' <'dflt' > 'latn' <'AZE ' 'CAT ' 'CRT ' 'KAZ ' 'MAH ' 'MOL ' 'NLD ' 'ROM ' 'TAT ' 'TRK ' 'dflt' > ) ]

StartChar: .notdef
Encoding: 65536 -1 0
Width: 602
GlyphClass: 1
Flags: MW
HStem: 0 36<95 510 95 565> 674 36<95 95 95 510>
VStem: 40 33<64 646 64 710> 532 33<64 646 646 646>
LayerCount: 2
Fore
SplineSet
40 0 m 1
 40 710 l 1
 565 710 l 1
 565 0 l 1
 40 0 l 1
95 674 m 1
 303 384 l 1
 510 674 l 1
 95 674 l 1
73 646 m 1
 73 64 l 1
 282 355 l 1
 73 646 l 1
323 355 m 1
 532 64 l 1
 532 646 l 1
 323 355 l 1
95 36 m 1
 510 36 l 1
 303 326 l 1
 95 36 l 1
EndSplineSet
EndChar

StartChar: A
Encoding: 65 65 1
Width: 649
GlyphClass: 2
Flags: MW
HStem: 0 21G<21 21 21 95 554 554 554 628> 213 66<194 455 194 478 171 455> 649 61<325 325>
VStem: 21 607<0 0>
AnchorPoint: "Anchor-3" 325 710 basechar 0
AnchorPoint: "Anchor-2" 628 0 basechar 0
AnchorPoint: "Anchor-0" 325 0 basechar 0
LayerCount: 2
Fore
SplineSet
21 0 m 1
 280 710 l 1
 370 710 l 1
 628 0 l 1
 554 0 l 1
 478 213 l 1
 171 213 l 1
 95 0 l 1
 21 0 l 1
194 279 m 1
 455 279 l 1
 325 649 l 1
 194 279 l 1
EndSplineSet
Substitution2: "Single Substitution lookup 27 subtable" ordfeminine
Substitution2: "'aalt' Access All Alternates in Latin lookup 0 subtable" ordfeminine
EndChar

StartChar: Aacute
Encoding: 193 193 2
Width: 649
GlyphClass: 2
Flags: MW
HStem: 0 21G<21 21 21 95 554 554 554 628> 213 66<194 455 194 478 171 455> 649 61<325 325> 782 124<295 437 295 437>
VStem: 21 607<0 0>
AnchorPoint: "Anchor-3" 325 710 basechar 0
AnchorPoint: "Anchor-2" 628 0 basechar 0
AnchorPoint: "Anchor-0" 325 0 basechar 0
LayerCount: 2
Fore
SplineSet
295 782 m 1
 363 906 l 1
 437 906 l 1
 351 782 l 1
 295 782 l 1
21 0 m 1
 280 710 l 1
 370 710 l 1
 628 0 l 1
 554 0 l 1
 478 213 l 1
 171 213 l 1
 95 0 l 1
 21 0 l 1
194 279 m 1
 455 279 l 1
 325 649 l 1
 194 279 l 1
EndSplineSet
EndChar

StartChar: Abreve
Encoding: 258 258 3
Width: 649
GlyphClass: 2
Flags: MW
HStem: 0 21G<21 21 21 95 554 554 554 628> 213 66<194 455 194 478 171 455> 649 61<325 325> 788 51<301 349 301 364>
VStem: 21 607<0 0>
AnchorPoint: "Anchor-3" 325 710 basechar 0
AnchorPoint: "Anchor-2" 628 0 basechar 0
AnchorPoint: "Anchor-0" 325 0 basechar 0
LayerCount: 2
Fore
SplineSet
325 788 m 0
 247 788 196 837 190 912 c 1
 237 912 l 1
 244 862 277 839 325 839 c 0
 373 839 405 862 411 912 c 1
 459 912 l 1
 453 837 403 788 325 788 c 0
21 0 m 1
 280 710 l 1
 370 710 l 1
 628 0 l 1
 554 0 l 1
 478 213 l 1
 171 213 l 1
 95 0 l 1
 21 0 l 1
194 279 m 1
 455 279 l 1
 325 649 l 1
 194 279 l 1
EndSplineSet
EndChar

StartChar: uni01CD
Encoding: 461 461 4
Width: 649
GlyphClass: 2
Flags: MW
HStem: 0 21G<21 21 21 95 554 554 554 628> 213 66<194 455 194 478 171 455> 649 61<325 325> 782 130<200 360 200 290>
VStem: 21 607<0 0>
AnchorPoint: "Anchor-3" 325 710 basechar 0
AnchorPoint: "Anchor-2" 628 0 basechar 0
AnchorPoint: "Anchor-0" 325 0 basechar 0
LayerCount: 2
Fore
SplineSet
200 912 m 1
 256 912 l 1
 325 819 l 1
 393 912 l 1
 449 912 l 1
 360 782 l 1
 290 782 l 1
 200 912 l 1
21 0 m 1
 280 710 l 1
 370 710 l 1
 628 0 l 1
 554 0 l 1
 478 213 l 1
 171 213 l 1
 95 0 l 1
 21 0 l 1
194 279 m 1
 455 279 l 1
 325 649 l 1
 194 279 l 1
EndSplineSet
EndChar

StartChar: Acircumflex
Encoding: 194 194 5
Width: 649
GlyphClass: 2
Flags: MW
HStem: 0 21G<21 21 21 95 554 554 554 628> 213 66<194 455 194 478 171 455> 649 61<325 325> 782 130<201 360 201 360 290 393 290 449>
VStem: 21 607<0 0>
AnchorPoint: "Anchor-3" 325 710 basechar 0
AnchorPoint: "Anchor-2" 628 0 basechar 0
AnchorPoint: "Anchor-0" 325 0 basechar 0
LayerCount: 2
Fore
SplineSet
201 782 m 1
 290 912 l 1
 360 912 l 1
 449 782 l 1
 393 782 l 1
 325 875 l 1
 257 782 l 1
 201 782 l 1
21 0 m 1
 280 710 l 1
 370 710 l 1
 628 0 l 1
 554 0 l 1
 478 213 l 1
 171 213 l 1
 95 0 l 1
 21 0 l 1
194 279 m 1
 455 279 l 1
 325 649 l 1
 194 279 l 1
EndSplineSet
EndChar

StartChar: Adieresis
Encoding: 196 196 6
Width: 649
GlyphClass: 2
Flags: MW
HStem: 0 21G<21 21 21 95 554 554 554 628> 213 66<194 455 194 478 171 455> 649 61<325 325> 798 89<210 280 210 280 369 439>
VStem: 210 70<798 887> 369 70<798 887 798 887>
AnchorPoint: "Anchor-3" 325 710 basechar 0
AnchorPoint: "Anchor-2" 628 0 basechar 0
AnchorPoint: "Anchor-0" 325 0 basechar 0
LayerCount: 2
Fore
SplineSet
210 798 m 1
 210 887 l 1
 280 887 l 1
 280 798 l 1
 210 798 l 1
369 798 m 1
 369 887 l 1
 439 887 l 1
 439 798 l 1
 369 798 l 1
21 0 m 1
 280 710 l 1
 370 710 l 1
 628 0 l 1
 554 0 l 1
 478 213 l 1
 171 213 l 1
 95 0 l 1
 21 0 l 1
194 279 m 1
 455 279 l 1
 325 649 l 1
 194 279 l 1
EndSplineSet
Substitution2: "'ss08' Style Set 8 in Latin lookup 41 subtable" Adieresis.ss08
Substitution2: "'aalt' Access All Alternates in Latin lookup 0 subtable" Adieresis.ss08
EndChar

StartChar: Agrave
Encoding: 192 192 7
Width: 649
GlyphClass: 2
Flags: MW
HStem: 0 21G<21 21 21 95 554 554 554 628> 213 66<194 455 194 478 171 455> 649 61<325 325> 788 124<213 300 213 355>
VStem: 21 607<0 0>
AnchorPoint: "Anchor-3" 325 710 basechar 0
AnchorPoint: "Anchor-2" 628 0 basechar 0
AnchorPoint: "Anchor-0" 325 0 basechar 0
LayerCount: 2
Fore
SplineSet
300 788 m 1
 213 912 l 1
 287 912 l 1
 355 788 l 1
 300 788 l 1
21 0 m 1
 280 710 l 1
 370 710 l 1
 628 0 l 1
 554 0 l 1
 478 213 l 1
 171 213 l 1
 95 0 l 1
 21 0 l 1
194 279 m 1
 455 279 l 1
 325 649 l 1
 194 279 l 1
EndSplineSet
EndChar

StartChar: Amacron
Encoding: 256 256 8
Width: 649
GlyphClass: 2
Flags: MW
HStem: 0 21G<21 21 21 95 554 554 554 628> 213 66<194 455 194 478 171 455> 649 61<325 325> 811 58<194 455 194 455>
VStem: 21 607<0 0> 194 261<279 279 811 869>
AnchorPoint: "Anchor-3" 325 710 basechar 0
AnchorPoint: "Anchor-2" 628 0 basechar 0
AnchorPoint: "Anchor-0" 325 0 basechar 0
LayerCount: 2
Fore
SplineSet
194 811 m 1xf4
 194 869 l 1
 455 869 l 1
 455 811 l 1
 194 811 l 1xf4
21 0 m 1
 280 710 l 1
 370 710 l 1
 628 0 l 1
 554 0 l 1
 478 213 l 1
 171 213 l 1
 95 0 l 1xf8
 21 0 l 1
194 279 m 1
 455 279 l 1
 325 649 l 1
 194 279 l 1
EndSplineSet
EndChar

StartChar: Aogonek
Encoding: 260 260 9
Width: 649
GlyphClass: 2
Flags: MW
HStem: -204 54<587.5 603> 0 21G<21 21 21 95 554 554 554 573 628 628> 213 66<194 455 194 478 171 455> 649 61<325 325>
VStem: 502 62<-131 -119>
AnchorPoint: "Anchor-3" 325 710 basechar 0
AnchorPoint: "Anchor-2" 628 0 basechar 0
AnchorPoint: "Anchor-0" 325 0 basechar 0
LayerCount: 2
Fore
SplineSet
21 0 m 1
 280 710 l 1
 370 710 l 1
 628 0 l 1
 596 -45 l 2
 573 -79 564 -99 564 -121 c 0
 564 -141 578 -150 597 -150 c 0
 616 -150 632 -145 645 -136 c 1
 666 -180 l 1
 650 -194 619 -204 587 -204 c 0
 537 -204 502 -183 502 -137 c 0
 502 -101 529 -61 556 -23 c 2
 573 0 l 1
 554 0 l 1
 478 213 l 1
 171 213 l 1
 95 0 l 1
 21 0 l 1
194 279 m 1
 455 279 l 1
 325 649 l 1
 194 279 l 1
EndSplineSet
EndChar

StartChar: Aring
Encoding: 197 197 10
Width: 650
GlyphClass: 2
Flags: MW
HStem: 0 21G<21 21 21 94 554 554 554 627> 213 66<193 455 193 478 170 455> 649 61<324 324> 761 42<309.5 334.5 309.5 346.5> 889 42<309.5 334.5>
VStem: 237 42<833.5 859> 365 42<833.5 859>
AnchorPoint: "Anchor-3" 324 710 basechar 0
AnchorPoint: "Anchor-2" 627 0 basechar 0
AnchorPoint: "Anchor-0" 324 0 basechar 0
LayerCount: 2
Fore
SplineSet
322 761 m 0
 273 761 237 798 237 846 c 0
 237 895 273 931 322 931 c 0
 370 931 407 895 407 846 c 0
 407 798 371 761 322 761 c 0
322 803 m 0
 347 803 365 821 365 846 c 0
 365 872 347 889 322 889 c 0
 297 889 279 872 279 846 c 0
 279 821 297 803 322 803 c 0
21 0 m 1
 279 710 l 1
 369 710 l 1
 627 0 l 1
 554 0 l 1
 478 213 l 1
 170 213 l 1
 94 0 l 1
 21 0 l 1
193 279 m 1
 455 279 l 1
 324 649 l 1
 193 279 l 1
EndSplineSet
EndChar

StartChar: Atilde
Encoding: 195 195 11
Width: 650
GlyphClass: 2
Flags: MW
HStem: 0 21G<21 21 21 94 554 554 554 627> 213 66<193 455 193 478 170 455> 649 61<324 324> 797 45<368 389 368 400> 853 45<240 263.5>
VStem: 164 44<790 790> 419 43<908 908>
AnchorPoint: "Anchor-3" 324 710 basechar 0
AnchorPoint: "Anchor-2" 627 0 basechar 0
AnchorPoint: "Anchor-0" 324 0 basechar 0
LayerCount: 2
Fore
SplineSet
374 797 m 0
 347 797 327 807 306 826 c 0
 285 845 274 853 253 853 c 0
 227 853 210 837 208 790 c 1
 164 790 l 1
 167 860 203 898 253 898 c 0xee
 285 898 306 886 328 866 c 0
 348 849 360 842 376 842 c 0
 402 842 415 858 419 908 c 1
 462 908 l 1
 458 838 426 797 374 797 c 0
21 0 m 1
 279 710 l 1
 369 710 l 1
 627 0 l 1
 554 0 l 1
 478 213 l 1
 170 213 l 1
 94 0 l 1
 21 0 l 1
193 279 m 1
 455 279 l 1
 324 649 l 1
 193 279 l 1
EndSplineSet
EndChar

StartChar: AE
Encoding: 198 198 12
Width: 945
GlyphClass: 2
Flags: MW
HStem: 0 66<547 890 547 890> 213 66<242 479 242 479 208 479> 324 64<547 870 547 870> 644 66<547 882 547 547> 646 64<432 479 432 432>
VStem: 479 68<66 213 213 213 279 324 388 644>
AnchorPoint: "Anchor-3" 496 710 basechar 0
AnchorPoint: "Anchor-0" 496 0 basechar 0
LayerCount: 2
Fore
SplineSet
21 0 m 1xf4
 398 710 l 1
 882 710 l 1
 882 644 l 1
 547 644 l 1
 547 388 l 1
 870 388 l 1
 870 324 l 1
 547 324 l 1
 547 66 l 1
 890 66 l 1
 890 0 l 1
 479 0 l 1
 479 213 l 1
 208 213 l 1
 98 0 l 1
 21 0 l 1xf4
479 646 m 1xec
 432 646 l 1
 242 279 l 1
 479 279 l 1
 479 646 l 1xec
EndSplineSet
EndChar

StartChar: B
Encoding: 66 66 13
Width: 666
GlyphClass: 2
Flags: MW
HStem: 0 66<161 368 161 368> 326 66<161 328 328 368 161 328> 644 66<161 328 161 161>
VStem: 93 68<66 66 66 326 392 644> 505 71<478.5 559.5> 535 71<153 236.5>
AnchorPoint: "Anchor-3" 333 710 basechar 0
AnchorPoint: "Anchor-0" 333 0 basechar 0
LayerCount: 2
Fore
SplineSet
93 0 m 1xf4
 93 710 l 1
 328 710 l 2
 494 710 576 650 576 519 c 0xf8
 576 438 527 379 447 364 c 1
 546 351 606 286 606 193 c 0
 606 65 523 0 368 0 c 2
 93 0 l 1xf4
161 392 m 1
 328 392 l 2
 442 392 505 437 505 517 c 0
 505 602 446 644 328 644 c 2
 161 644 l 1
 161 392 l 1
161 66 m 1
 368 66 l 2
 477 66 535 110 535 196 c 0xf4
 535 277 473 326 368 326 c 2
 161 326 l 1
 161 66 l 1
EndSplineSet
EndChar

StartChar: C
Encoding: 67 67 14
Width: 694
GlyphClass: 2
Flags: MW
HStem: -16 67<286.5 424 286.5 442> 659 67<286.5 421>
VStem: 47 71<259 449 259 469>
AnchorPoint: "Anchor-3" 357 710 basechar 0
AnchorPoint: "Anchor-0" 360 0 basechar 0
LayerCount: 2
Fore
SplineSet
359 -16 m 0
 171 -16 47 124 47 354 c 0
 47 584 171 726 359 726 c 0
 525 726 617 631 646 483 c 1
 574 478 l 1
 554 589 483 659 359 659 c 0
 214 659 118 544 118 354 c 0
 118 164 214 51 359 51 c 0
 489 51 562 126 580 248 c 1
 652 243 l 1
 627 87 525 -16 359 -16 c 0
EndSplineSet
EndChar

StartChar: Cacute
Encoding: 262 262 15
Width: 694
GlyphClass: 2
Flags: MW
HStem: -16 67<286.5 424 286.5 442> 659 67<286.5 421> 782 124<328 470 328 470>
VStem: 47 71<259 449 259 469>
AnchorPoint: "Anchor-3" 357 710 basechar 0
AnchorPoint: "Anchor-0" 360 0 basechar 0
LayerCount: 2
Fore
SplineSet
328 782 m 1
 396 906 l 1
 470 906 l 1
 383 782 l 1
 328 782 l 1
359 -16 m 0
 171 -16 47 124 47 354 c 0
 47 584 171 726 359 726 c 0
 525 726 617 631 646 483 c 1
 574 478 l 1
 554 589 483 659 359 659 c 0
 214 659 118 544 118 354 c 0
 118 164 214 51 359 51 c 0
 489 51 562 126 580 248 c 1
 652 243 l 1
 627 87 525 -16 359 -16 c 0
EndSplineSet
EndChar

StartChar: Ccaron
Encoding: 268 268 16
Width: 694
GlyphClass: 2
Flags: MW
HStem: -16 67<286.5 424 286.5 442> 659 67<286.5 421> 782 130<233 392 233 322>
VStem: 47 71<259 449 259 469>
AnchorPoint: "Anchor-3" 357 710 basechar 0
AnchorPoint: "Anchor-0" 360 0 basechar 0
LayerCount: 2
Fore
SplineSet
233 912 m 1
 289 912 l 1
 357 819 l 1
 426 912 l 1
 482 912 l 1
 392 782 l 1
 322 782 l 1
 233 912 l 1
359 -16 m 0
 171 -16 47 124 47 354 c 0
 47 584 171 726 359 726 c 0
 525 726 617 631 646 483 c 1
 574 478 l 1
 554 589 483 659 359 659 c 0
 214 659 118 544 118 354 c 0
 118 164 214 51 359 51 c 0
 489 51 562 126 580 248 c 1
 652 243 l 1
 627 87 525 -16 359 -16 c 0
EndSplineSet
EndChar

StartChar: Ccedilla
Encoding: 199 199 17
Width: 694
GlyphClass: 2
Flags: MW
HStem: -215 46<331 367 331 382> -77 37<328 360> -15 66<327 327> 659 67<286.5 421>
VStem: 47 71<259 449 259 469> 407 50<-138.5 -110>
AnchorPoint: "Anchor-3" 357 710 basechar 0
AnchorPoint: "Anchor-0" 360 0 basechar 0
LayerCount: 2
Fore
SplineSet
351 -215 m 0
 291 -215 254 -185 241 -143 c 1
 283 -126 l 1
 293 -155 313 -169 349 -169 c 0
 385 -169 407 -153 407 -124 c 0
 407 -96 392 -77 328 -77 c 1xdc
 305 -51 l 1
 327 -15 l 1
 157 1 47 137 47 354 c 0
 47 584 171 726 359 726 c 0
 525 726 617 631 646 483 c 1
 574 478 l 1
 554 589 483 659 359 659 c 0
 214 659 118 544 118 354 c 0
 118 164 214 51 359 51 c 0xbc
 489 51 562 126 580 248 c 1
 652 243 l 1
 628 92 532 -9 376 -16 c 1
 360 -40 l 1
 424 -43 457 -74 457 -126 c 0
 457 -180 413 -215 351 -215 c 0
EndSplineSet
EndChar

StartChar: Ccircumflex
Encoding: 264 264 18
Width: 694
GlyphClass: 2
Flags: MW
HStem: -16 67<286.5 424 286.5 442> 659 67<286.5 421> 782 130<233 393 233 393 323 426 323 482>
VStem: 47 71<259 449 259 469>
AnchorPoint: "Anchor-3" 357 710 basechar 0
AnchorPoint: "Anchor-0" 360 0 basechar 0
LayerCount: 2
Fore
SplineSet
233 782 m 1
 323 912 l 1
 393 912 l 1
 482 782 l 1
 426 782 l 1
 358 875 l 1
 289 782 l 1
 233 782 l 1
359 -16 m 0
 171 -16 47 124 47 354 c 0
 47 584 171 726 359 726 c 0
 525 726 617 631 646 483 c 1
 574 478 l 1
 554 589 483 659 359 659 c 0
 214 659 118 544 118 354 c 0
 118 164 214 51 359 51 c 0
 489 51 562 126 580 248 c 1
 652 243 l 1
 627 87 525 -16 359 -16 c 0
EndSplineSet
EndChar

StartChar: Cdotaccent
Encoding: 266 266 19
Width: 694
GlyphClass: 2
Flags: MW
HStem: -16 67<286.5 424 286.5 442> 659 67<286.5 421> 798 89<322 392 322 392>
VStem: 47 71<259 449 259 469> 322 70<798 887 798 887>
AnchorPoint: "Anchor-3" 357 710 basechar 0
AnchorPoint: "Anchor-0" 360 0 basechar 0
LayerCount: 2
Fore
SplineSet
322 798 m 1
 322 887 l 1
 392 887 l 1
 392 798 l 1
 322 798 l 1
359 -16 m 0
 171 -16 47 124 47 354 c 0
 47 584 171 726 359 726 c 0
 525 726 617 631 646 483 c 1
 574 478 l 1
 554 589 483 659 359 659 c 0
 214 659 118 544 118 354 c 0
 118 164 214 51 359 51 c 0
 489 51 562 126 580 248 c 1
 652 243 l 1
 627 87 525 -16 359 -16 c 0
EndSplineSet
Substitution2: "'ss08' Style Set 8 in Latin lookup 41 subtable" Cdotaccent.ss08
Substitution2: "'aalt' Access All Alternates in Latin lookup 0 subtable" Cdotaccent.ss08
EndChar

StartChar: D
Encoding: 68 68 20
Width: 691
GlyphClass: 2
Flags: MW
HStem: 0 66<161 307 307 313> 644 66<161 307 161 161>
VStem: 93 68<66 66 66 644> 573 71<259.5 449.5>
AnchorPoint: "Anchor-3" 322 710 basechar 0
AnchorPoint: "Anchor-1" 200 355 basechar 0
AnchorPoint: "Anchor-0" 321 0 basechar 0
LayerCount: 2
Fore
SplineSet
93 0 m 1
 93 710 l 1
 307 710 l 2
 523 710 644 582 644 354 c 0
 644 127 526 0 313 0 c 2
 93 0 l 1
161 66 m 1
 307 66 l 2
 482 66 573 165 573 354 c 0
 573 545 482 644 307 644 c 2
 161 644 l 1
 161 66 l 1
EndSplineSet
EndChar

StartChar: Dcaron
Encoding: 270 270 21
Width: 691
GlyphClass: 2
Flags: MW
HStem: 0 66<161 307 307 313> 644 66<161 307 161 161> 782 130<197 357 197 287>
VStem: 93 68<66 66 66 644> 573 71<259.5 449.5>
AnchorPoint: "Anchor-3" 322 710 basechar 0
AnchorPoint: "Anchor-1" 200 355 basechar 0
AnchorPoint: "Anchor-0" 321 0 basechar 0
LayerCount: 2
Fore
SplineSet
197 912 m 1
 253 912 l 1
 322 819 l 1
 390 912 l 1
 446 912 l 1
 357 782 l 1
 287 782 l 1
 197 912 l 1
93 0 m 1
 93 710 l 1
 307 710 l 2
 523 710 644 582 644 354 c 0
 644 127 526 0 313 0 c 2
 93 0 l 1
161 66 m 1
 307 66 l 2
 482 66 573 165 573 354 c 0
 573 545 482 644 307 644 c 2
 161 644 l 1
 161 66 l 1
EndSplineSet
EndChar

StartChar: Dcroat
Encoding: 272 272 22
Width: 691
GlyphClass: 2
Flags: MW
HStem: 0 66<161 307 307 313> 324 62<17 93 17 93 161 383> 644 66<161 307 161 161>
VStem: 93 68<66 66 66 324 386 644> 573 71<259.5 449.5>
AnchorPoint: "Anchor-3" 322 710 basechar 0
AnchorPoint: "Anchor-1" 200 355 basechar 0
AnchorPoint: "Anchor-0" 321 0 basechar 0
LayerCount: 2
Fore
SplineSet
93 0 m 1
 93 324 l 1
 17 324 l 1
 17 386 l 1
 93 386 l 1
 93 710 l 1
 307 710 l 2
 523 710 644 582 644 354 c 0
 644 127 526 0 313 0 c 2
 93 0 l 1
161 66 m 1
 307 66 l 2
 482 66 573 165 573 354 c 0
 573 545 482 644 307 644 c 2
 161 644 l 1
 161 386 l 1
 383 386 l 1
 383 324 l 1
 161 324 l 1
 161 66 l 1
EndSplineSet
EndChar

StartChar: Eth
Encoding: 208 208 23
Width: 691
GlyphClass: 2
Flags: MW
HStem: 0 66<161 307 307 313> 324 62<17 93 17 93 161 383> 644 66<161 307 161 161>
VStem: 93 68<66 66 66 324 386 644> 573 71<259.5 449.5>
AnchorPoint: "Anchor-3" 322 710 basechar 0
AnchorPoint: "Anchor-1" 200 355 basechar 0
AnchorPoint: "Anchor-0" 321 0 basechar 0
LayerCount: 2
Fore
SplineSet
93 0 m 1
 93 324 l 1
 17 324 l 1
 17 386 l 1
 93 386 l 1
 93 710 l 1
 307 710 l 2
 523 710 644 582 644 354 c 0
 644 127 526 0 313 0 c 2
 93 0 l 1
161 66 m 1
 307 66 l 2
 482 66 573 165 573 354 c 0
 573 545 482 644 307 644 c 2
 161 644 l 1
 161 386 l 1
 383 386 l 1
 383 324 l 1
 161 324 l 1
 161 66 l 1
EndSplineSet
EndChar

StartChar: E
Encoding: 69 69 24
Width: 593
GlyphClass: 2
Flags: MW
HStem: 0 66<161 538 161 538> 323 65<161 518 161 518> 644 66<161 530 161 161>
VStem: 93 68<66 323 388 644>
AnchorPoint: "Anchor-3" 313 710 basechar 0
AnchorPoint: "Anchor-2" 538 0 basechar 0
AnchorPoint: "Anchor-0" 315 0 basechar 0
LayerCount: 2
Fore
SplineSet
93 0 m 1
 93 710 l 1
 530 710 l 1
 530 644 l 1
 161 644 l 1
 161 388 l 1
 518 388 l 1
 518 323 l 1
 161 323 l 1
 161 66 l 1
 538 66 l 1
 538 0 l 1
 93 0 l 1
EndSplineSet
EndChar

StartChar: Eacute
Encoding: 201 201 25
Width: 593
GlyphClass: 2
Flags: MW
HStem: 0 66<161 538 161 538> 323 65<161 518 161 518> 644 66<161 530 161 161> 782 124<284 426 284 426>
VStem: 93 68<66 323 388 644>
AnchorPoint: "Anchor-3" 313 710 basechar 0
AnchorPoint: "Anchor-2" 538 0 basechar 0
AnchorPoint: "Anchor-0" 315 0 basechar 0
LayerCount: 2
Fore
SplineSet
284 782 m 1
 352 906 l 1
 426 906 l 1
 339 782 l 1
 284 782 l 1
93 0 m 1
 93 710 l 1
 530 710 l 1
 530 644 l 1
 161 644 l 1
 161 388 l 1
 518 388 l 1
 518 323 l 1
 161 323 l 1
 161 66 l 1
 538 66 l 1
 538 0 l 1
 93 0 l 1
EndSplineSet
EndChar

StartChar: Ecaron
Encoding: 282 282 26
Width: 593
GlyphClass: 2
Flags: MW
HStem: 0 66<161 538 161 538> 323 65<161 518 161 518> 644 66<161 530 161 161> 782 130<189 348 189 278>
VStem: 93 68<66 323 388 644>
AnchorPoint: "Anchor-3" 313 710 basechar 0
AnchorPoint: "Anchor-2" 538 0 basechar 0
AnchorPoint: "Anchor-0" 315 0 basechar 0
LayerCount: 2
Fore
SplineSet
189 912 m 1
 245 912 l 1
 313 819 l 1
 382 912 l 1
 438 912 l 1
 348 782 l 1
 278 782 l 1
 189 912 l 1
93 0 m 1
 93 710 l 1
 530 710 l 1
 530 644 l 1
 161 644 l 1
 161 388 l 1
 518 388 l 1
 518 323 l 1
 161 323 l 1
 161 66 l 1
 538 66 l 1
 538 0 l 1
 93 0 l 1
EndSplineSet
EndChar

StartChar: Ecircumflex
Encoding: 202 202 27
Width: 593
GlyphClass: 2
Flags: MW
HStem: 0 66<161 538 161 538> 323 65<161 518 161 518> 644 66<161 530 161 161> 782 130<189 349 189 349 279 382 279 438>
VStem: 93 68<66 323 388 644>
AnchorPoint: "Anchor-3" 313 710 basechar 0
AnchorPoint: "Anchor-2" 538 0 basechar 0
AnchorPoint: "Anchor-0" 315 0 basechar 0
LayerCount: 2
Fore
SplineSet
189 782 m 1
 279 912 l 1
 349 912 l 1
 438 782 l 1
 382 782 l 1
 314 875 l 1
 245 782 l 1
 189 782 l 1
93 0 m 1
 93 710 l 1
 530 710 l 1
 530 644 l 1
 161 644 l 1
 161 388 l 1
 518 388 l 1
 518 323 l 1
 161 323 l 1
 161 66 l 1
 538 66 l 1
 538 0 l 1
 93 0 l 1
EndSplineSet
EndChar

StartChar: Edieresis
Encoding: 203 203 28
Width: 593
GlyphClass: 2
Flags: MW
HStem: 0 66<161 538 161 538> 323 65<161 518 161 518> 644 66<161 530 161 161> 798 89<199 269 199 269 358 428>
VStem: 93 68<66 323 388 644> 199 70<798 887 798 887> 358 70<798 887 798 887>
AnchorPoint: "Anchor-3" 313 710 basechar 0
AnchorPoint: "Anchor-2" 538 0 basechar 0
AnchorPoint: "Anchor-0" 315 0 basechar 0
LayerCount: 2
Fore
SplineSet
199 798 m 1
 199 887 l 1
 269 887 l 1
 269 798 l 1
 199 798 l 1
358 798 m 1
 358 887 l 1
 428 887 l 1
 428 798 l 1
 358 798 l 1
93 0 m 1
 93 710 l 1
 530 710 l 1
 530 644 l 1
 161 644 l 1
 161 388 l 1
 518 388 l 1
 518 323 l 1
 161 323 l 1
 161 66 l 1
 538 66 l 1
 538 0 l 1
 93 0 l 1
EndSplineSet
Substitution2: "'ss08' Style Set 8 in Latin lookup 41 subtable" Edieresis.ss08
Substitution2: "'aalt' Access All Alternates in Latin lookup 0 subtable" Edieresis.ss08
EndChar

StartChar: Edotaccent
Encoding: 278 278 29
Width: 593
GlyphClass: 2
Flags: MW
HStem: 0 66<161 538 161 538> 323 65<161 518 161 518> 644 66<161 530 161 161> 798 89<278 348 278 348>
VStem: 93 68<66 323 388 644> 278 70<798 887 798 887>
AnchorPoint: "Anchor-3" 313 710 basechar 0
AnchorPoint: "Anchor-2" 538 0 basechar 0
AnchorPoint: "Anchor-0" 315 0 basechar 0
LayerCount: 2
Fore
SplineSet
278 798 m 1
 278 887 l 1
 348 887 l 1
 348 798 l 1
 278 798 l 1
93 0 m 1
 93 710 l 1
 530 710 l 1
 530 644 l 1
 161 644 l 1
 161 388 l 1
 518 388 l 1
 518 323 l 1
 161 323 l 1
 161 66 l 1
 538 66 l 1
 538 0 l 1
 93 0 l 1
EndSplineSet
Substitution2: "'ss08' Style Set 8 in Latin lookup 41 subtable" Edotaccent.ss08
Substitution2: "'aalt' Access All Alternates in Latin lookup 0 subtable" Edotaccent.ss08
EndChar

StartChar: Egrave
Encoding: 200 200 30
Width: 593
GlyphClass: 2
Flags: MW
HStem: 0 66<161 538 161 538> 323 65<161 518 161 518> 644 66<161 530 161 161> 788 124<202 288 202 344>
VStem: 93 68<66 323 388 644>
AnchorPoint: "Anchor-3" 313 710 basechar 0
AnchorPoint: "Anchor-2" 538 0 basechar 0
AnchorPoint: "Anchor-0" 315 0 basechar 0
LayerCount: 2
Fore
SplineSet
288 788 m 1
 202 912 l 1
 276 912 l 1
 344 788 l 1
 288 788 l 1
93 0 m 1
 93 710 l 1
 530 710 l 1
 530 644 l 1
 161 644 l 1
 161 388 l 1
 518 388 l 1
 518 323 l 1
 161 323 l 1
 161 66 l 1
 538 66 l 1
 538 0 l 1
 93 0 l 1
EndSplineSet
EndChar

StartChar: Emacron
Encoding: 274 274 31
Width: 593
GlyphClass: 2
Flags: MW
HStem: 0 66<161 538 161 538> 323 65<161 518 161 518> 644 66<161 530 161 161> 811 58<183 444 183 444>
VStem: 93 68<66 323 388 644> 183 261<811 869 811 869>
AnchorPoint: "Anchor-3" 313 710 basechar 0
AnchorPoint: "Anchor-2" 538 0 basechar 0
AnchorPoint: "Anchor-0" 315 0 basechar 0
LayerCount: 2
Fore
SplineSet
183 811 m 1
 183 869 l 1
 444 869 l 1
 444 811 l 1
 183 811 l 1
93 0 m 1xf8
 93 710 l 1
 530 710 l 1
 530 644 l 1
 161 644 l 1
 161 388 l 1
 518 388 l 1
 518 323 l 1
 161 323 l 1
 161 66 l 1
 538 66 l 1
 538 0 l 1
 93 0 l 1xf8
EndSplineSet
EndChar

StartChar: Eogonek
Encoding: 280 280 32
Width: 593
GlyphClass: 2
Flags: MW
HStem: -204 54<497.5 514> 0 66<161 483 161 538> 323 65<161 518 161 518> 644 66<161 530 161 161>
VStem: 93 68<66 323 388 644> 412 62<-131 -119>
AnchorPoint: "Anchor-3" 313 710 basechar 0
AnchorPoint: "Anchor-2" 538 0 basechar 0
AnchorPoint: "Anchor-0" 315 0 basechar 0
LayerCount: 2
Fore
SplineSet
93 0 m 1
 93 710 l 1
 530 710 l 1
 530 644 l 1
 161 644 l 1
 161 388 l 1
 518 388 l 1
 518 323 l 1
 161 323 l 1
 161 66 l 1
 538 66 l 1
 538 0 l 1
 506 -45 l 2
 483 -79 474 -99 474 -121 c 0
 474 -141 488 -150 507 -150 c 0
 526 -150 543 -145 555 -136 c 1
 576 -180 l 1
 560 -194 530 -204 498 -204 c 0
 447 -204 412 -183 412 -137 c 0
 412 -101 440 -61 466 -23 c 2
 483 0 l 1
 93 0 l 1
EndSplineSet
EndChar

StartChar: uni1EBC
Encoding: 7868 7868 33
Width: 593
GlyphClass: 2
Flags: MW
HStem: 0 66<161 538 161 538> 323 65<161 518 161 518> 644 66<161 530 161 161> 797 45<366 386.5 366 397> 853 45<237 261>
VStem: 93 68<66 323 388 644> 162 43<790 790> 416 44<908 908>
AnchorPoint: "Anchor-3" 313 710 basechar 0
AnchorPoint: "Anchor-2" 538 0 basechar 0
AnchorPoint: "Anchor-0" 315 0 basechar 0
LayerCount: 2
Fore
SplineSet
371 797 m 0
 344 797 324 807 303 826 c 0
 282 845 272 853 250 853 c 0
 224 853 207 837 205 790 c 1
 162 790 l 1
 164 860 200 898 250 898 c 0xea
 282 898 303 886 325 866 c 0
 345 849 358 842 374 842 c 0
 399 842 412 858 416 908 c 1
 460 908 l 1
 456 838 423 797 371 797 c 0
93 0 m 1xec
 93 710 l 1
 530 710 l 1
 530 644 l 1
 161 644 l 1
 161 388 l 1
 518 388 l 1
 518 323 l 1
 161 323 l 1
 161 66 l 1
 538 66 l 1
 538 0 l 1
 93 0 l 1xec
EndSplineSet
EndChar

StartChar: uni018F
Encoding: 399 399 34
Width: 709
GlyphClass: 1
Flags: MW
HStem: -16 67<285 414 285 441> 316 66<119 591 119 119> 659 67<302.5 414.5>
VStem: 47 72<316 382 316 382> 591 71<316 316 382 382>
LayerCount: 2
Fore
SplineSet
662 355 m 0
 662 123 533 -16 349 -16 c 0
 186 -16 47 112 47 345 c 2
 47 382 l 1
 591 382 l 1
 585 557 480 659 349 659 c 0
 256 659 178 604 141 506 c 1
 69 513 l 1
 109 642 216 726 349 726 c 0
 538 726 662 582 662 355 c 0
349 51 m 0
 479 51 582 145 591 316 c 1
 119 316 l 1
 134 147 221 51 349 51 c 0
EndSplineSet
EndChar

StartChar: F
Encoding: 70 70 35
Width: 580
GlyphClass: 1
Flags: MW
HStem: 0 21G<93 93 93 161> 317 65<161 512 161 512> 644 66<161 530 161 161>
VStem: 93 68<0 317 382 644>
LayerCount: 2
Fore
SplineSet
93 0 m 1
 93 710 l 1
 530 710 l 1
 530 644 l 1
 161 644 l 1
 161 382 l 1
 512 382 l 1
 512 317 l 1
 161 317 l 1
 161 0 l 1
 93 0 l 1
EndSplineSet
EndChar

StartChar: G
Encoding: 71 71 36
Width: 692
GlyphClass: 2
Flags: MW
HStem: -16 67<278.5 412.5> 0 21G<588 640 588 588> 285 64<362 576 362 640> 659 67<277.5 421>
VStem: 47 71<265.5 440 265.5 463> 576 64<285 285> 586 54
AnchorPoint: "Anchor-3" 360 710 basechar 0
AnchorPoint: "Anchor-0" 362 0 basechar 0
LayerCount: 2
Fore
SplineSet
357 -16 m 0xba
 163 -16 47 136 47 354 c 0
 47 572 162 726 360 726 c 0
 519 726 611 630 638 488 c 1
 567 483 l 1
 546 592 482 659 360 659 c 0
 195 659 118 526 118 354 c 0
 118 177 199 51 358 51 c 0
 490 51 571 149 576 285 c 1xbc
 362 285 l 1
 362 349 l 1
 640 349 l 1
 640 0 l 1
 588 0 l 1x7a
 584 138 l 1
 552 49 468 -16 357 -16 c 0xba
EndSplineSet
Substitution2: "'ss06' Style Set 6 in Latin lookup 39 subtable" G.ss06
Substitution2: "'aalt' Access All Alternates in Latin lookup 0 subtable" G.ss06
EndChar

StartChar: Gbreve
Encoding: 286 286 37
Width: 692
GlyphClass: 2
Flags: MW
HStem: -16 67<278.5 412.5> 0 21G<588 640 588 588> 285 64<362 576 362 640> 659 67<277.5 421> 788 51<336 384 336 399>
VStem: 47 71<265.5 440 265.5 463> 576 64<285 285> 586 54
AnchorPoint: "Anchor-3" 360 710 basechar 0
AnchorPoint: "Anchor-0" 362 0 basechar 0
LayerCount: 2
Fore
SplineSet
360 788 m 0xbd
 282 788 231 837 225 912 c 1
 273 912 l 1
 279 862 312 839 360 839 c 0
 408 839 440 862 447 912 c 1
 494 912 l 1
 488 837 438 788 360 788 c 0xbd
357 -16 m 0
 163 -16 47 136 47 354 c 0
 47 572 162 726 360 726 c 0
 519 726 611 630 638 488 c 1
 567 483 l 1
 546 592 482 659 360 659 c 0
 195 659 118 526 118 354 c 0
 118 177 199 51 358 51 c 0
 490 51 571 149 576 285 c 1xbe
 362 285 l 1
 362 349 l 1
 640 349 l 1
 640 0 l 1
 588 0 l 1x7d
 584 138 l 1
 552 49 468 -16 357 -16 c 0
EndSplineSet
Substitution2: "'ss06' Style Set 6 in Latin lookup 39 subtable" Gbreve.ss06
Substitution2: "'aalt' Access All Alternates in Latin lookup 0 subtable" Gbreve.ss06
EndChar

StartChar: Gcaron
Encoding: 486 486 38
Width: 692
GlyphClass: 2
Flags: MW
HStem: -16 67<278.5 412.5> 0 21G<588 640 588 588> 285 64<362 576 362 640> 659 67<277.5 421> 782 130<236 395 236 325>
VStem: 47 71<265.5 440 265.5 463> 576 64<285 285> 586 54
AnchorPoint: "Anchor-3" 360 710 basechar 0
AnchorPoint: "Anchor-0" 362 0 basechar 0
LayerCount: 2
Fore
SplineSet
236 912 m 1xbd
 292 912 l 1
 360 819 l 1
 428 912 l 1
 484 912 l 1
 395 782 l 1
 325 782 l 1
 236 912 l 1xbd
357 -16 m 0
 163 -16 47 136 47 354 c 0
 47 572 162 726 360 726 c 0
 519 726 611 630 638 488 c 1
 567 483 l 1
 546 592 482 659 360 659 c 0
 195 659 118 526 118 354 c 0
 118 177 199 51 358 51 c 0
 490 51 571 149 576 285 c 1xb6
 362 285 l 1
 362 349 l 1
 640 349 l 1
 640 0 l 1
 588 0 l 1x75
 584 138 l 1
 552 49 468 -16 357 -16 c 0
EndSplineSet
EndChar

StartChar: Gcircumflex
Encoding: 284 284 39
Width: 692
GlyphClass: 2
Flags: MW
HStem: -16 67<278.5 412.5> 0 21G<588 640 588 588> 285 64<362 576 362 640> 659 67<277.5 421> 782 130<236 395 236 395 325 429 325 485>
VStem: 47 71<265.5 440 265.5 463> 576 64<285 285> 586 54
AnchorPoint: "Anchor-3" 360 710 basechar 0
AnchorPoint: "Anchor-0" 362 0 basechar 0
LayerCount: 2
Fore
SplineSet
236 782 m 1xbd
 325 912 l 1
 395 912 l 1
 485 782 l 1
 429 782 l 1
 360 875 l 1
 292 782 l 1
 236 782 l 1xbd
357 -16 m 0
 163 -16 47 136 47 354 c 0
 47 572 162 726 360 726 c 0
 519 726 611 630 638 488 c 1
 567 483 l 1
 546 592 482 659 360 659 c 0
 195 659 118 526 118 354 c 0
 118 177 199 51 358 51 c 0
 490 51 571 149 576 285 c 1xb6
 362 285 l 1
 362 349 l 1
 640 349 l 1
 640 0 l 1
 588 0 l 1x75
 584 138 l 1
 552 49 468 -16 357 -16 c 0
EndSplineSet
Substitution2: "'ss06' Style Set 6 in Latin lookup 39 subtable" Gcircumflex.ss06
Substitution2: "'aalt' Access All Alternates in Latin lookup 0 subtable" Gcircumflex.ss06
EndChar

StartChar: uni0122
Encoding: 290 290 40
Width: 692
GlyphClass: 2
Flags: MW
HStem: -127 76<320 352 320 404> -16 67<278.5 412.5> 0 21G<588 640 588 588> 285 64<362 576 362 640> 659 67<277.5 421>
VStem: 47 71<265.5 440 265.5 463> 320 84<-120 -51 -120 -51 -120 -51> 576 64<285 285> 586 54
AnchorPoint: "Anchor-3" 360 710 basechar 0
AnchorPoint: "Anchor-0" 362 -216 basechar 0
LayerCount: 2
Fore
SplineSet
357 -16 m 0xde80
 163 -16 47 136 47 354 c 0
 47 572 162 726 360 726 c 0
 519 726 611 630 638 488 c 1
 567 483 l 1
 546 592 482 659 360 659 c 0
 195 659 118 526 118 354 c 0
 118 177 199 51 358 51 c 0
 490 51 571 149 576 285 c 1xdf
 362 285 l 1
 362 349 l 1
 640 349 l 1
 640 0 l 1
 588 0 l 1xbe80
 584 138 l 1
 552 49 468 -16 357 -16 c 0xde80
304 -216 m 1
 352 -127 l 1
 320 -127 l 1
 320 -51 l 1
 404 -51 l 1
 404 -120 l 1
 350 -216 l 1
 304 -216 l 1
EndSplineSet
Substitution2: "'ss06' Style Set 6 in Latin lookup 39 subtable" uni0122.ss06
Substitution2: "'aalt' Access All Alternates in Latin lookup 0 subtable" uni0122.ss06
EndChar

StartChar: Gdotaccent
Encoding: 288 288 41
Width: 692
GlyphClass: 2
Flags: MW
HStem: -16 67<278.5 412.5> 0 21G<588 640 588 588> 285 64<362 576 362 640> 659 67<277.5 421> 798 89<325 395 325 395>
VStem: 47 71<265.5 440 265.5 463> 325 70<798 887 798 887> 576 64<285 285> 586 54
AnchorPoint: "Anchor-3" 360 710 basechar 0
AnchorPoint: "Anchor-0" 362 0 basechar 0
LayerCount: 2
Fore
SplineSet
325 798 m 1xbe80
 325 887 l 1
 395 887 l 1
 395 798 l 1
 325 798 l 1xbe80
357 -16 m 0
 163 -16 47 136 47 354 c 0
 47 572 162 726 360 726 c 0
 519 726 611 630 638 488 c 1
 567 483 l 1
 546 592 482 659 360 659 c 0
 195 659 118 526 118 354 c 0
 118 177 199 51 358 51 c 0
 490 51 571 149 576 285 c 1xbf
 362 285 l 1
 362 349 l 1
 640 349 l 1
 640 0 l 1
 588 0 l 1x7e80
 584 138 l 1
 552 49 468 -16 357 -16 c 0
EndSplineSet
Substitution2: "'ss08' Style Set 8 in Latin lookup 41 subtable" Gdotaccent.ss08
Substitution2: "'ss06' Style Set 6 in Latin lookup 39 subtable" Gdotaccent.ss06
AlternateSubs2: "'aalt' Access All Alternates in Latin lookup 1 subtable" Gdotaccent.ss06 Gdotaccent.ss08
EndChar

StartChar: uni1E20
Encoding: 7712 7712 42
Width: 692
GlyphClass: 2
Flags: MW
HStem: -16 67<278.5 412.5> 0 21G<588 640 588 588> 285 64<362 576 362 640> 659 67<277.5 421> 811 58<229 491 229 491>
VStem: 47 71<265.5 440 265.5 463> 229 262<811 869 811 869> 576 64<285 285> 586 54
AnchorPoint: "Anchor-3" 360 710 basechar 0
AnchorPoint: "Anchor-0" 362 0 basechar 0
LayerCount: 2
Fore
SplineSet
229 811 m 1xbe80
 229 869 l 1
 491 869 l 1
 491 811 l 1
 229 811 l 1xbe80
357 -16 m 0
 163 -16 47 136 47 354 c 0
 47 572 162 726 360 726 c 0
 519 726 611 630 638 488 c 1
 567 483 l 1
 546 592 482 659 360 659 c 0
 195 659 118 526 118 354 c 0
 118 177 199 51 358 51 c 0
 490 51 571 149 576 285 c 1xbd
 362 285 l 1
 362 349 l 1
 640 349 l 1
 640 0 l 1
 588 0 l 1x7c80
 584 138 l 1
 552 49 468 -16 357 -16 c 0
EndSplineSet
Substitution2: "'ss06' Style Set 6 in Latin lookup 39 subtable" uni1E20.ss06
Substitution2: "'aalt' Access All Alternates in Latin lookup 0 subtable" uni1E20.ss06
EndChar

StartChar: uni01E4
Encoding: 484 484 43
Width: 734
GlyphClass: 2
Flags: MW
HStem: -16 67<276.5 401 276.5 420.5> 156 55<362 545 362 566 362 615 630 692> 285 64<362 576 362 640> 659 67<279.5 422.5>
VStem: 47 71<265 442 265 462.5> 576 64<285 312>
AnchorPoint: "Anchor-3" 361 710 basechar 0
AnchorPoint: "Anchor-0" 361 0 basechar 0
LayerCount: 2
Fore
SplineSet
356 -16 m 0
 158 -16 47 140 47 354 c 0
 47 571 163 726 362 726 c 0
 515 726 609 634 638 488 c 1
 567 483 l 1
 547 589 483 659 362 659 c 0
 197 659 118 530 118 354 c 0
 118 176 197 51 356 51 c 0
 446 51 510 91 545 156 c 1
 362 156 l 1
 362 211 l 1
 566 211 l 1
 572 234 575 259 576 285 c 1
 362 285 l 1
 362 349 l 1
 640 349 l 1
 640 312 l 2
 640 276 637 242 630 211 c 1
 692 211 l 1
 692 156 l 1
 615 156 l 1
 574 47 485 -16 356 -16 c 0
EndSplineSet
EndChar

StartChar: H
Encoding: 72 72 44
Width: 701
GlyphClass: 2
Flags: MW
HStem: 0 21G<93 93 93 161 539 539 539 607> 326 66<161 539 161 539> 690 20G<93 161 161 161 539 607 607 607>
VStem: 93 68<0 326 392 710> 539 68<0 326 326 326 392 710 0 710>
AnchorPoint: "Anchor-3" 351 710 basechar 0
AnchorPoint: "Anchor-1" 351 565 basechar 0
AnchorPoint: "Anchor-0" 351 0 basechar 0
LayerCount: 2
Fore
SplineSet
93 0 m 1
 93 710 l 1
 161 710 l 1
 161 392 l 1
 539 392 l 1
 539 710 l 1
 607 710 l 1
 607 0 l 1
 539 0 l 1
 539 326 l 1
 161 326 l 1
 161 0 l 1
 93 0 l 1
EndSplineSet
EndChar

StartChar: Hbar
Encoding: 294 294 45
Width: 701
GlyphClass: 2
Flags: MW
HStem: 0 21G<93 93 93 161 539 539 539 607> 326 66<161 539 161 539> 534 63<17 93 17 93 161 539 607 684> 534 176<17 161 17 161 93 161 93 539>
VStem: 93 68<0 326 392 534 597 710> 539 68<0 326 326 326 392 534 0 534 597 710>
AnchorPoint: "Anchor-3" 351 710 basechar 0
AnchorPoint: "Anchor-1" 351 565 basechar 0
AnchorPoint: "Anchor-0" 351 0 basechar 0
LayerCount: 2
Fore
SplineSet
93 0 m 1xec
 93 534 l 1
 17 534 l 1
 17 597 l 1
 93 597 l 1xec
 93 710 l 1
 161 710 l 1xdc
 161 597 l 1
 539 597 l 1xec
 539 710 l 1
 607 710 l 1xdc
 607 597 l 1
 684 597 l 1
 684 534 l 1
 607 534 l 1
 607 0 l 1
 539 0 l 1
 539 326 l 1
 161 326 l 1
 161 0 l 1
 93 0 l 1xec
161 392 m 1
 539 392 l 1
 539 534 l 1
 161 534 l 1
 161 392 l 1
EndSplineSet
EndChar

StartChar: Hcircumflex
Encoding: 292 292 46
Width: 701
GlyphClass: 2
Flags: MW
HStem: 0 21G<93 93 93 161 539 539 539 607> 326 66<161 539 161 539> 690 20G<93 161 161 161 539 607 607 607> 782 130<227 386 227 386 316 419 316 475>
VStem: 93 68<0 326 392 710> 539 68<0 326 326 326 392 710 0 710>
AnchorPoint: "Anchor-3" 351 710 basechar 0
AnchorPoint: "Anchor-1" 351 565 basechar 0
AnchorPoint: "Anchor-0" 351 0 basechar 0
LayerCount: 2
Fore
SplineSet
227 782 m 1
 316 912 l 1
 386 912 l 1
 475 782 l 1
 419 782 l 1
 351 875 l 1
 283 782 l 1
 227 782 l 1
93 0 m 1
 93 710 l 1
 161 710 l 1
 161 392 l 1
 539 392 l 1
 539 710 l 1
 607 710 l 1
 607 0 l 1
 539 0 l 1
 539 326 l 1
 161 326 l 1
 161 0 l 1
 93 0 l 1
EndSplineSet
EndChar

StartChar: I
Encoding: 73 73 47
Width: 255
GlyphClass: 2
Flags: MW
HStem: 0 21G<93 93 93 161> 690 20G<93 161 161 161>
VStem: 93 68<0 710 0 710>
AnchorPoint: "Anchor-3" 127 710 basechar 0
AnchorPoint: "Anchor-2" 161 0 basechar 0
AnchorPoint: "Anchor-0" 127 0 basechar 0
LayerCount: 2
Fore
SplineSet
93 0 m 1
 93 710 l 1
 161 710 l 1
 161 0 l 1
 93 0 l 1
EndSplineSet
Substitution2: "'ss05' Style Set 5 in Latin lookup 38 subtable" I.ss05
Substitution2: "'aalt' Access All Alternates in Latin lookup 0 subtable" I.ss05
EndChar

StartChar: IJ
Encoding: 306 306 48
Width: 819
GlyphClass: 2
Flags: MW
HStem: -16 67<473.5 568 473.5 587.5> 0 21G<93 93 93 161> 690 20G<93 161 161 161 673 741 741 741>
VStem: 93 68<0 710 0 710> 300 70<232 237> 673 68<248 710>
AnchorPoint: "Anchor-3" 708 710 basechar 0
AnchorPoint: "Anchor-2" 161 0 basechar 0
AnchorPoint: "Anchor-0" 127 0 basechar 0
LayerCount: 2
Fore
SplineSet
93 0 m 1x7c
 93 710 l 1
 161 710 l 1
 161 0 l 1
 93 0 l 1x7c
520 -16 m 0
 391 -16 301 83 300 232 c 1
 370 237 l 1
 371 117 427 51 520 51 c 0
 616 51 673 120 673 248 c 2
 673 710 l 1
 741 710 l 1
 741 248 l 2xbc
 741 83 655 -16 520 -16 c 0
EndSplineSet
EndChar

StartChar: Iacute
Encoding: 205 205 49
Width: 255
GlyphClass: 2
Flags: MW
HStem: 0 21G<93 93 93 161> 690 20G<93 161 161 161> 782 124<98 240 98 240>
VStem: 93 68<0 710 0 710>
AnchorPoint: "Anchor-3" 127 710 basechar 0
AnchorPoint: "Anchor-2" 161 0 basechar 0
AnchorPoint: "Anchor-0" 127 0 basechar 0
LayerCount: 2
Fore
SplineSet
98 782 m 1
 166 906 l 1
 240 906 l 1
 153 782 l 1
 98 782 l 1
93 0 m 1
 93 710 l 1
 161 710 l 1
 161 0 l 1
 93 0 l 1
EndSplineSet
Substitution2: "'ss05' Style Set 5 in Latin lookup 38 subtable" Iacute.ss05
Substitution2: "'aalt' Access All Alternates in Latin lookup 0 subtable" Iacute.ss05
EndChar

StartChar: Icircumflex
Encoding: 206 206 50
Width: 255
GlyphClass: 2
Flags: MW
HStem: 0 21G<93 93 93 161> 690 20G<93 161 161 161> 782 130<3 163 3 163 93 196 93 252>
VStem: 93 68<0 710 0 710>
AnchorPoint: "Anchor-3" 127 710 basechar 0
AnchorPoint: "Anchor-2" 161 0 basechar 0
AnchorPoint: "Anchor-0" 127 0 basechar 0
LayerCount: 2
Fore
SplineSet
3 782 m 1
 93 912 l 1
 163 912 l 1
 252 782 l 1
 196 782 l 1
 128 875 l 1
 59 782 l 1
 3 782 l 1
93 0 m 1
 93 710 l 1
 161 710 l 1
 161 0 l 1
 93 0 l 1
EndSplineSet
Substitution2: "'ss05' Style Set 5 in Latin lookup 38 subtable" Icircumflex.ss05
Substitution2: "'aalt' Access All Alternates in Latin lookup 0 subtable" Icircumflex.ss05
EndChar

StartChar: Idieresis
Encoding: 207 207 51
Width: 255
GlyphClass: 2
Flags: MW
HStem: 0 21G<93 93 93 161> 690 20G<93 161 161 161> 798 89<13 83 13 83 172 242>
VStem: 13 70<798 887 798 887> 93 68<0 710 0 710> 172 70<798 887 798 887>
AnchorPoint: "Anchor-3" 127 710 basechar 0
AnchorPoint: "Anchor-2" 161 0 basechar 0
AnchorPoint: "Anchor-0" 127 0 basechar 0
LayerCount: 2
Fore
SplineSet
13 798 m 1
 13 887 l 1
 83 887 l 1
 83 798 l 1
 13 798 l 1
172 798 m 1
 172 887 l 1
 242 887 l 1
 242 798 l 1
 172 798 l 1
93 0 m 1xe8
 93 710 l 1
 161 710 l 1
 161 0 l 1
 93 0 l 1xe8
EndSplineSet
Substitution2: "'ss08' Style Set 8 in Latin lookup 41 subtable" Idieresis.ss08
Substitution2: "'ss05' Style Set 5 in Latin lookup 38 subtable" Idieresis.ss05
AlternateSubs2: "'aalt' Access All Alternates in Latin lookup 1 subtable" Idieresis.ss05 Idieresis.ss08
EndChar

StartChar: Idotaccent
Encoding: 304 304 52
Width: 255
GlyphClass: 2
Flags: MW
HStem: 0 21G<93 93 93 161> 690 20G<93 161 161 161> 798 89<92 162 92 162>
VStem: 92 70<798 887 798 887> 93 68<0 710 0 710>
AnchorPoint: "Anchor-3" 127 710 basechar 0
AnchorPoint: "Anchor-2" 161 0 basechar 0
AnchorPoint: "Anchor-0" 127 0 basechar 0
LayerCount: 2
Fore
SplineSet
92 798 m 1xf0
 92 887 l 1
 162 887 l 1
 162 798 l 1
 92 798 l 1xf0
93 0 m 1xe8
 93 710 l 1
 161 710 l 1
 161 0 l 1
 93 0 l 1xe8
EndSplineSet
Substitution2: "'ss08' Style Set 8 in Latin lookup 41 subtable" Idotaccent.ss08
Substitution2: "'ss05' Style Set 5 in Latin lookup 38 subtable" Idotaccent.ss05
AlternateSubs2: "'aalt' Access All Alternates in Latin lookup 1 subtable" Idotaccent.ss05 Idotaccent.ss08
EndChar

StartChar: Igrave
Encoding: 204 204 53
Width: 255
GlyphClass: 2
Flags: MW
HStem: 0 21G<93 93 93 161> 690 20G<93 161 161 161> 788 124<16 102 16 158>
VStem: 93 68<0 710 0 710>
AnchorPoint: "Anchor-3" 127 710 basechar 0
AnchorPoint: "Anchor-2" 161 0 basechar 0
AnchorPoint: "Anchor-0" 127 0 basechar 0
LayerCount: 2
Fore
SplineSet
102 788 m 1
 16 912 l 1
 90 912 l 1
 158 788 l 1
 102 788 l 1
93 0 m 1
 93 710 l 1
 161 710 l 1
 161 0 l 1
 93 0 l 1
EndSplineSet
Substitution2: "'ss05' Style Set 5 in Latin lookup 38 subtable" Igrave.ss05
Substitution2: "'aalt' Access All Alternates in Latin lookup 0 subtable" Igrave.ss05
EndChar

StartChar: Imacron
Encoding: 298 298 54
Width: 255
GlyphClass: 2
Flags: MW
HStem: 0 21G<93 93 93 161> 690 20G<93 161 161 161> 811 58<-3 258 -3 258>
VStem: 93 68<0 710 0 710>
AnchorPoint: "Anchor-3" 127 710 basechar 0
AnchorPoint: "Anchor-2" 161 0 basechar 0
AnchorPoint: "Anchor-0" 127 0 basechar 0
LayerCount: 2
Fore
SplineSet
-3 811 m 1
 -3 869 l 1
 258 869 l 1
 258 811 l 1
 -3 811 l 1
93 0 m 1
 93 710 l 1
 161 710 l 1
 161 0 l 1
 93 0 l 1
EndSplineSet
Substitution2: "'ss05' Style Set 5 in Latin lookup 38 subtable" Imacron.ss05
Substitution2: "'aalt' Access All Alternates in Latin lookup 0 subtable" Imacron.ss05
EndChar

StartChar: Iogonek
Encoding: 302 302 55
Width: 255
GlyphClass: 2
Flags: MW
HStem: -204 54<120.5 137> 0 21G<93 93 93 106 161 161> 690 20G<93 161 161 161>
VStem: 35 62<-131 -119> 93 68<0 710 0 710>
AnchorPoint: "Anchor-3" 127 710 basechar 0
AnchorPoint: "Anchor-2" 161 0 basechar 0
AnchorPoint: "Anchor-0" 127 0 basechar 0
LayerCount: 2
Fore
SplineSet
93 0 m 1xe8
 93 710 l 1
 161 710 l 1
 161 0 l 1xe8
 129 -45 l 2
 106 -79 97 -99 97 -121 c 0
 97 -141 111 -150 130 -150 c 0
 149 -150 166 -145 178 -136 c 1
 199 -180 l 1
 183 -194 153 -204 121 -204 c 0
 70 -204 35 -183 35 -137 c 0xf0
 35 -101 63 -61 89 -23 c 2
 106 0 l 1
 93 0 l 1xe8
EndSplineSet
Substitution2: "'ss05' Style Set 5 in Latin lookup 38 subtable" Iogonek.ss05
Substitution2: "'aalt' Access All Alternates in Latin lookup 0 subtable" Iogonek.ss05
EndChar

StartChar: Itilde
Encoding: 296 296 56
Width: 255
GlyphClass: 2
Flags: MW
HStem: 0 21G<93 93 93 161> 690 20G<93 161 161 161> 797 45<180 200.5 180 211> 853 45<51 75>
VStem: -24 43<790 790> 93 68<0 710 0 710> 230 44<908 908>
AnchorPoint: "Anchor-3" 127 710 basechar 0
AnchorPoint: "Anchor-2" 161 0 basechar 0
AnchorPoint: "Anchor-0" 127 0 basechar 0
LayerCount: 2
Fore
SplineSet
185 797 m 0
 158 797 138 807 117 826 c 0
 96 845 86 853 64 853 c 0
 38 853 21 837 19 790 c 1
 -24 790 l 1
 -22 860 14 898 64 898 c 0xde
 96 898 117 886 139 866 c 0
 159 849 172 842 188 842 c 0
 213 842 226 858 230 908 c 1
 274 908 l 1
 270 838 237 797 185 797 c 0
93 0 m 1
 93 710 l 1
 161 710 l 1
 161 0 l 1
 93 0 l 1
EndSplineSet
Substitution2: "'ss05' Style Set 5 in Latin lookup 38 subtable" Itilde.ss05
Substitution2: "'aalt' Access All Alternates in Latin lookup 0 subtable" Itilde.ss05
EndChar

StartChar: J
Encoding: 74 74 57
Width: 588
GlyphClass: 2
Flags: MW
HStem: -16 67<242 336.5 242 355.5> 690 20G<442 510 510 510>
VStem: 68 70<232 237> 442 68<248 710>
AnchorPoint: "Anchor-3" 476 710 basechar 0
LayerCount: 2
Fore
SplineSet
288 -16 m 0
 160 -16 70 83 68 232 c 1
 138 237 l 1
 140 117 196 51 288 51 c 0
 385 51 442 120 442 248 c 2
 442 710 l 1
 510 710 l 1
 510 248 l 2
 510 83 423 -16 288 -16 c 0
EndSplineSet
Substitution2: "Single Substitution lookup 16 subtable" uni004A0301
Substitution2: "'aalt' Access All Alternates in Latin lookup 0 subtable" uni004A0301
EndChar

StartChar: uni004A0301
Encoding: 65537 -1 58
Width: 588
GlyphClass: 2
Flags: MW
HStem: -16 67<242 336.5 242 355.5> 690 20G<442 510 510 510> 782 124<447 589 447 589>
VStem: 68 70<232 237> 442 68<248 710>
AnchorPoint: "Anchor-3" 476 710 basechar 0
LayerCount: 2
Fore
SplineSet
447 782 m 1
 515 906 l 1
 589 906 l 1
 502 782 l 1
 447 782 l 1
288 -16 m 0
 160 -16 70 83 68 232 c 1
 138 237 l 1
 140 117 196 51 288 51 c 0
 385 51 442 120 442 248 c 2
 442 710 l 1
 510 710 l 1
 510 248 l 2
 510 83 423 -16 288 -16 c 0
EndSplineSet
EndChar

StartChar: Jcircumflex
Encoding: 308 308 59
Width: 588
GlyphClass: 2
Flags: MW
HStem: -16 67<242 336.5 242 355.5> 690 20G<442 510 510 510> 782 130<352 512 352 512 442 545 442 601>
VStem: 68 70<232 237> 442 68<248 710>
AnchorPoint: "Anchor-3" 476 710 basechar 0
LayerCount: 2
Fore
SplineSet
352 782 m 1
 442 912 l 1
 512 912 l 1
 601 782 l 1
 545 782 l 1
 477 875 l 1
 408 782 l 1
 352 782 l 1
288 -16 m 0
 160 -16 70 83 68 232 c 1
 138 237 l 1
 140 117 196 51 288 51 c 0
 385 51 442 120 442 248 c 2
 442 710 l 1
 510 710 l 1
 510 248 l 2
 510 83 423 -16 288 -16 c 0
EndSplineSet
EndChar

StartChar: K
Encoding: 75 75 60
Width: 632
GlyphClass: 2
Flags: MW
HStem: 0 21G<93 93 93 161 533 533 533 615> 690 20G<93 161 161 161 509 595 595 595>
VStem: 93 68<0 236 330 710>
AnchorPoint: "Anchor-3" 324 710 basechar 0
AnchorPoint: "Anchor-0" 340 0 basechar 0
LayerCount: 2
Fore
SplineSet
93 0 m 1
 93 710 l 1
 161 710 l 1
 161 330 l 1
 509 710 l 1
 595 710 l 1
 313 402 l 1
 615 0 l 1
 533 0 l 1
 268 352 l 1
 161 236 l 1
 161 0 l 1
 93 0 l 1
EndSplineSet
EndChar

StartChar: uni01E8
Encoding: 488 488 61
Width: 632
GlyphClass: 2
Flags: MW
HStem: 0 21G<93 93 93 161 533 533 533 615> 690 20G<93 161 161 161 509 595 595 595> 782 130<200 359 200 289>
VStem: 93 68<0 236 330 710>
AnchorPoint: "Anchor-3" 324 710 basechar 0
AnchorPoint: "Anchor-0" 340 0 basechar 0
LayerCount: 2
Fore
SplineSet
200 912 m 1
 256 912 l 1
 324 819 l 1
 393 912 l 1
 449 912 l 1
 359 782 l 1
 289 782 l 1
 200 912 l 1
93 0 m 1
 93 710 l 1
 161 710 l 1
 161 330 l 1
 509 710 l 1
 595 710 l 1
 313 402 l 1
 615 0 l 1
 533 0 l 1
 268 352 l 1
 161 236 l 1
 161 0 l 1
 93 0 l 1
EndSplineSet
EndChar

StartChar: uni0136
Encoding: 310 310 62
Width: 632
GlyphClass: 2
Flags: MW
HStem: -127 76<299 331 299 382> 0 21G<93 93 93 161 533 533 533 615> 690 20G<93 161 161 161 509 595 595 595>
VStem: 93 68<0 236 330 710> 299 83<-120 -51 -120 -51 -120 -51>
AnchorPoint: "Anchor-3" 324 710 basechar 0
AnchorPoint: "Anchor-0" 340 -216 basechar 0
LayerCount: 2
Fore
SplineSet
93 0 m 1
 93 710 l 1
 161 710 l 1
 161 330 l 1
 509 710 l 1
 595 710 l 1
 313 402 l 1
 615 0 l 1
 533 0 l 1
 268 352 l 1
 161 236 l 1
 161 0 l 1
 93 0 l 1
282 -216 m 1
 331 -127 l 1
 299 -127 l 1
 299 -51 l 1
 382 -51 l 1
 382 -120 l 1
 328 -216 l 1
 282 -216 l 1
EndSplineSet
EndChar

StartChar: L
Encoding: 76 76 63
Width: 570
GlyphClass: 2
Flags: MW
HStem: 0 66<161 525 161 525> 690 20G<93 161 161 161>
VStem: 93 68<66 710 66 710 66 710>
AnchorPoint: "Anchor-4" 367 530 basechar 0
AnchorPoint: "Anchor-3" 127 710 basechar 0
AnchorPoint: "Anchor-1" 163 380 basechar 0
AnchorPoint: "Anchor-0" 310 0 basechar 0
LayerCount: 2
Fore
SplineSet
93 0 m 1
 93 710 l 1
 161 710 l 1
 161 66 l 1
 525 66 l 1
 525 0 l 1
 93 0 l 1
EndSplineSet
EndChar

StartChar: Lacute
Encoding: 313 313 64
Width: 570
GlyphClass: 2
Flags: MW
HStem: 0 66<161 525 161 525> 690 20G<93 161 161 161> 782 124<98 240 98 240>
VStem: 93 68<66 710 66 710 66 710>
AnchorPoint: "Anchor-4" 367 530 basechar 0
AnchorPoint: "Anchor-3" 127 710 basechar 0
AnchorPoint: "Anchor-1" 163 380 basechar 0
AnchorPoint: "Anchor-0" 310 0 basechar 0
LayerCount: 2
Fore
SplineSet
98 782 m 1
 166 906 l 1
 240 906 l 1
 153 782 l 1
 98 782 l 1
93 0 m 1
 93 710 l 1
 161 710 l 1
 161 66 l 1
 525 66 l 1
 525 0 l 1
 93 0 l 1
EndSplineSet
EndChar

StartChar: Lcaron
Encoding: 317 317 65
Width: 570
GlyphClass: 2
Flags: MW
HStem: 0 66<161 525 161 525> 690 20G<93 161 161 161 418 485 485 485>
VStem: 93 68<66 710 66 710 66 710>
AnchorPoint: "Anchor-4" 367 530 basechar 0
AnchorPoint: "Anchor-3" 127 710 basechar 0
AnchorPoint: "Anchor-1" 163 380 basechar 0
AnchorPoint: "Anchor-0" 310 0 basechar 0
LayerCount: 2
Fore
SplineSet
93 0 m 1
 93 710 l 1
 161 710 l 1
 161 66 l 1
 525 66 l 1
 525 0 l 1
 93 0 l 1
387 471 m 1
 418 710 l 1
 485 710 l 1
 437 471 l 1
 387 471 l 1
EndSplineSet
EndChar

StartChar: uni013B
Encoding: 315 315 66
Width: 570
GlyphClass: 2
Flags: MW
HStem: -127 76<268 300 268 351> 0 66<161 525 161 525> 690 20G<93 161 161 161>
VStem: 93 68<66 710 66 710 66 710> 268 83<-120 -51 -120 -51 -120 -51>
AnchorPoint: "Anchor-4" 367 530 basechar 0
AnchorPoint: "Anchor-3" 127 710 basechar 0
AnchorPoint: "Anchor-1" 163 380 basechar 0
AnchorPoint: "Anchor-0" 310 -216 basechar 0
LayerCount: 2
Fore
SplineSet
93 0 m 1
 93 710 l 1
 161 710 l 1
 161 66 l 1
 525 66 l 1
 525 0 l 1
 93 0 l 1
251 -216 m 1
 300 -127 l 1
 268 -127 l 1
 268 -51 l 1
 351 -51 l 1
 351 -120 l 1
 297 -216 l 1
 251 -216 l 1
EndSplineSet
Substitution2: "'locl' Localized Forms in Latin lookup 11 subtable" uni013B.loclMAH
Substitution2: "'aalt' Access All Alternates in Latin lookup 0 subtable" uni013B.loclMAH
EndChar

StartChar: Lslash
Encoding: 321 321 67
Width: 570
GlyphClass: 2
Flags: MW
HStem: 0 66<161 525 161 525> 690 20G<93 161 161 161>
VStem: 93 68<66 315 315 315 409 710>
AnchorPoint: "Anchor-4" 367 530 basechar 0
AnchorPoint: "Anchor-3" 127 710 basechar 0
AnchorPoint: "Anchor-1" 163 380 basechar 0
AnchorPoint: "Anchor-0" 310 0 basechar 0
LayerCount: 2
Fore
SplineSet
93 0 m 1
 93 315 l 1
 22 280 l 1
 22 339 l 1
 93 375 l 1
 93 710 l 1
 161 710 l 1
 161 409 l 1
 303 480 l 1
 303 421 l 1
 161 350 l 1
 161 66 l 1
 525 66 l 1
 525 0 l 1
 93 0 l 1
EndSplineSet
EndChar

StartChar: M
Encoding: 77 77 68
Width: 868
GlyphClass: 2
Flags: MW
HStem: 0 21G<93 93 93 161 390 390 390 478 707 707 707 775> 0 74<390 434 434 434 434 478> 593 117<161 161 707 707> 690 20G<93 191 191 191 677 775 775 775>
VStem: 93 68<0 593 0 710> 707 68<0 593 593 593>
AnchorPoint: "Anchor-3" 434 710 basechar 0
AnchorPoint: "Anchor-0" 434 0 basechar 0
LayerCount: 2
Fore
SplineSet
93 0 m 1xac
 93 710 l 1
 191 710 l 1
 434 74 l 1x5c
 677 710 l 1
 775 710 l 1
 775 0 l 1
 707 0 l 1
 707 593 l 1
 478 0 l 1
 390 0 l 1
 161 593 l 1
 161 0 l 1
 93 0 l 1xac
EndSplineSet
EndChar

StartChar: N
Encoding: 78 78 69
Width: 732
GlyphClass: 2
Flags: MW
HStem: 0 67<538 571 571 571 571 639> 635 75<161 161>
VStem: 93 68<0 635 0 710> 571 68<67 710 0 710>
AnchorPoint: "Anchor-3" 376 710 basechar 0
AnchorPoint: "Anchor-0" 367 0 basechar 0
LayerCount: 2
Fore
SplineSet
93 0 m 1
 93 710 l 1
 190 710 l 1
 571 67 l 1
 571 710 l 1
 639 710 l 1
 639 0 l 1
 538 0 l 1
 161 635 l 1
 161 0 l 1
 93 0 l 1
EndSplineSet
EndChar

StartChar: Nacute
Encoding: 323 323 70
Width: 732
GlyphClass: 2
Flags: MW
HStem: 0 67<538 571 571 571 571 639> 635 75<161 161> 782 124<347 489 347 489>
VStem: 93 68<0 635 0 710> 571 68<67 710 0 710>
AnchorPoint: "Anchor-3" 376 710 basechar 0
AnchorPoint: "Anchor-0" 367 0 basechar 0
LayerCount: 2
Fore
SplineSet
347 782 m 1
 415 906 l 1
 489 906 l 1
 402 782 l 1
 347 782 l 1
93 0 m 1
 93 710 l 1
 190 710 l 1
 571 67 l 1
 571 710 l 1
 639 710 l 1
 639 0 l 1
 538 0 l 1
 161 635 l 1
 161 0 l 1
 93 0 l 1
EndSplineSet
EndChar

StartChar: Ncaron
Encoding: 327 327 71
Width: 732
GlyphClass: 2
Flags: MW
HStem: 0 67<538 571 571 571 571 639> 635 75<161 161> 782 130<252 411 252 341>
VStem: 93 68<0 635 0 710> 571 68<67 710 0 710>
AnchorPoint: "Anchor-3" 376 710 basechar 0
AnchorPoint: "Anchor-0" 367 0 basechar 0
LayerCount: 2
Fore
SplineSet
252 912 m 1
 308 912 l 1
 376 819 l 1
 444 912 l 1
 500 912 l 1
 411 782 l 1
 341 782 l 1
 252 912 l 1
93 0 m 1
 93 710 l 1
 190 710 l 1
 571 67 l 1
 571 710 l 1
 639 710 l 1
 639 0 l 1
 538 0 l 1
 161 635 l 1
 161 0 l 1
 93 0 l 1
EndSplineSet
EndChar

StartChar: uni0145
Encoding: 325 325 72
Width: 732
GlyphClass: 2
Flags: MW
HStem: -127 76<326 358 326 409> 0 67<538 571 571 571 571 639> 635 75<161 161>
VStem: 93 68<0 635 0 710> 326 83<-120 -51 -120 -51 -120 -51> 571 68<67 710 0 710>
AnchorPoint: "Anchor-3" 376 710 basechar 0
AnchorPoint: "Anchor-0" 367 -216 basechar 0
LayerCount: 2
Fore
SplineSet
93 0 m 1
 93 710 l 1
 190 710 l 1
 571 67 l 1
 571 710 l 1
 639 710 l 1
 639 0 l 1
 538 0 l 1
 161 635 l 1
 161 0 l 1
 93 0 l 1
309 -216 m 1
 358 -127 l 1
 326 -127 l 1
 326 -51 l 1
 409 -51 l 1
 409 -120 l 1
 355 -216 l 1
 309 -216 l 1
EndSplineSet
Substitution2: "'locl' Localized Forms in Latin lookup 11 subtable" uni0145.loclMAH
Substitution2: "'aalt' Access All Alternates in Latin lookup 0 subtable" uni0145.loclMAH
EndChar

StartChar: Ntilde
Encoding: 209 209 73
Width: 732
GlyphClass: 2
Flags: MW
HStem: 0 67<538 571 571 571 571 639> 635 75<161 161> 690 20G<93 190 190 190 571 639 639 639> 797 45<428 449 428 460> 853 45<300 323.5>
VStem: 93 68<0 635 0 710> 224 44<790 790> 479 43<908 908> 571 68<67 710 0 710>
AnchorPoint: "Anchor-3" 376 710 basechar 0
AnchorPoint: "Anchor-0" 367 0 basechar 0
LayerCount: 2
Fore
SplineSet
434 797 m 0xb580
 407 797 387 807 366 826 c 0
 345 845 334 853 313 853 c 0
 287 853 270 837 268 790 c 1
 224 790 l 1
 227 860 263 898 313 898 c 0xce80
 345 898 366 886 388 866 c 0
 408 849 420 842 436 842 c 0
 462 842 475 858 479 908 c 1
 522 908 l 1
 518 838 486 797 434 797 c 0xb580
93 0 m 1
 93 710 l 1
 190 710 l 1
 571 67 l 1
 571 710 l 1
 639 710 l 1
 639 0 l 1
 538 0 l 1
 161 635 l 1
 161 0 l 1
 93 0 l 1
EndSplineSet
EndChar

StartChar: Eng
Encoding: 330 330 74
Width: 732
GlyphClass: 2
Flags: MW
HStem: -150 63<397 498 397 499> 0 21G<93 93 93 161 538 538 538 571> 0 68<538 571 538 571> 634 76<161 161> 690 20G<93 190 190 190 571 639 639 639>
VStem: 93 68<0 634 0 710> 571 68<-15 0 0 0 68 710>
AnchorPoint: "Anchor-3" 367 710 basechar 0
AnchorPoint: "Anchor-0" 367 -150 basechar 0
LayerCount: 2
Fore
SplineSet
93 0 m 1xd6
 93 710 l 1
 190 710 l 1
 571 68 l 1xae
 571 710 l 1
 639 710 l 1
 639 -15 l 2
 639 -96 585 -150 498 -150 c 2
 397 -150 l 1
 397 -87 l 1
 499 -87 l 2
 546 -87 571 -58 571 -15 c 2
 571 0 l 1
 538 0 l 1
 161 634 l 1
 161 0 l 1
 93 0 l 1xd6
EndSplineSet
EndChar

StartChar: O
Encoding: 79 79 75
Width: 731
GlyphClass: 2
Flags: MW
HStem: -16 67<288 442 288 464.5> 659 67<288 442>
VStem: 47 71<259.5 449 259.5 469> 613 71<259.5 449>
AnchorPoint: "Anchor-3" 365 710 basechar 0
AnchorPoint: "Anchor-1" 366 355 basechar 0
AnchorPoint: "Anchor-0" 365 0 basechar 0
LayerCount: 2
Fore
SplineSet
365 -16 m 0
 167 -16 47 125 47 354 c 0
 47 584 167 726 365 726 c 0
 564 726 684 584 684 354 c 0
 684 125 564 -16 365 -16 c 0
365 51 m 0
 519 51 613 165 613 354 c 0
 613 544 519 659 365 659 c 0
 211 659 118 544 118 354 c 0
 118 165 211 51 365 51 c 0
EndSplineSet
Substitution2: "Single Substitution lookup 27 subtable" ordmasculine
Substitution2: "'aalt' Access All Alternates in Latin lookup 0 subtable" ordmasculine
EndChar

StartChar: Oacute
Encoding: 211 211 76
Width: 731
GlyphClass: 2
Flags: MW
HStem: -16 67<288 442 288 464.5> 659 67<288 442> 782 124<336 478 336 478>
VStem: 47 71<259.5 449 259.5 469> 613 71<259.5 449>
AnchorPoint: "Anchor-3" 365 710 basechar 0
AnchorPoint: "Anchor-1" 366 355 basechar 0
AnchorPoint: "Anchor-0" 365 0 basechar 0
LayerCount: 2
Fore
SplineSet
336 782 m 1
 404 906 l 1
 478 906 l 1
 391 782 l 1
 336 782 l 1
365 -16 m 0
 167 -16 47 125 47 354 c 0
 47 584 167 726 365 726 c 0
 564 726 684 584 684 354 c 0
 684 125 564 -16 365 -16 c 0
365 51 m 0
 519 51 613 165 613 354 c 0
 613 544 519 659 365 659 c 0
 211 659 118 544 118 354 c 0
 118 165 211 51 365 51 c 0
EndSplineSet
EndChar

StartChar: Ocircumflex
Encoding: 212 212 77
Width: 731
GlyphClass: 2
Flags: MW
HStem: -16 67<288 442 288 464.5> 659 67<288 442> 782 130<241 400 241 400 330 434 330 490>
VStem: 47 71<259.5 449 259.5 469> 613 71<259.5 449>
AnchorPoint: "Anchor-3" 365 710 basechar 0
AnchorPoint: "Anchor-1" 366 355 basechar 0
AnchorPoint: "Anchor-0" 365 0 basechar 0
LayerCount: 2
Fore
SplineSet
241 782 m 1
 330 912 l 1
 400 912 l 1
 490 782 l 1
 434 782 l 1
 365 875 l 1
 297 782 l 1
 241 782 l 1
365 -16 m 0
 167 -16 47 125 47 354 c 0
 47 584 167 726 365 726 c 0
 564 726 684 584 684 354 c 0
 684 125 564 -16 365 -16 c 0
365 51 m 0
 519 51 613 165 613 354 c 0
 613 544 519 659 365 659 c 0
 211 659 118 544 118 354 c 0
 118 165 211 51 365 51 c 0
EndSplineSet
EndChar

StartChar: Odieresis
Encoding: 214 214 78
Width: 731
GlyphClass: 2
Flags: MW
HStem: -16 67<288 442 288 464.5> 659 67<288 442> 798 89<251 321 251 321 409 479 251 409>
VStem: 47 71<259.5 449 259.5 469> 251 70<798 887 798 887> 409 70<798 887 798 887> 613 71<259.5 449>
AnchorPoint: "Anchor-3" 365 710 basechar 0
AnchorPoint: "Anchor-1" 366 355 basechar 0
AnchorPoint: "Anchor-0" 365 0 basechar 0
LayerCount: 2
Fore
SplineSet
251 798 m 1
 251 887 l 1
 321 887 l 1
 321 798 l 1
 251 798 l 1
409 798 m 1
 409 887 l 1
 479 887 l 1
 479 798 l 1
 409 798 l 1
365 -16 m 0
 167 -16 47 125 47 354 c 0
 47 584 167 726 365 726 c 0
 564 726 684 584 684 354 c 0
 684 125 564 -16 365 -16 c 0
365 51 m 0
 519 51 613 165 613 354 c 0
 613 544 519 659 365 659 c 0
 211 659 118 544 118 354 c 0
 118 165 211 51 365 51 c 0
EndSplineSet
Substitution2: "'ss08' Style Set 8 in Latin lookup 41 subtable" Odieresis.ss08
Substitution2: "'aalt' Access All Alternates in Latin lookup 0 subtable" Odieresis.ss08
EndChar

StartChar: Ograve
Encoding: 210 210 79
Width: 731
GlyphClass: 2
Flags: MW
HStem: -16 67<288 442 288 464.5> 659 67<288 442> 788 124<253 340 253 395>
VStem: 47 71<259.5 449 259.5 469> 613 71<259.5 449>
AnchorPoint: "Anchor-3" 365 710 basechar 0
AnchorPoint: "Anchor-1" 366 355 basechar 0
AnchorPoint: "Anchor-0" 365 0 basechar 0
LayerCount: 2
Fore
SplineSet
340 788 m 1
 253 912 l 1
 327 912 l 1
 395 788 l 1
 340 788 l 1
365 -16 m 0
 167 -16 47 125 47 354 c 0
 47 584 167 726 365 726 c 0
 564 726 684 584 684 354 c 0
 684 125 564 -16 365 -16 c 0
365 51 m 0
 519 51 613 165 613 354 c 0
 613 544 519 659 365 659 c 0
 211 659 118 544 118 354 c 0
 118 165 211 51 365 51 c 0
EndSplineSet
EndChar

StartChar: Ohungarumlaut
Encoding: 336 336 80
Width: 731
GlyphClass: 2
Flags: MW
HStem: -16 67<288 442 288 464.5> 659 67<288 442> 782 124<276 418 276 418 394 418 344 450 394 394>
VStem: 47 71<259.5 449 259.5 469> 613 71<259.5 449>
AnchorPoint: "Anchor-3" 365 710 basechar 0
AnchorPoint: "Anchor-1" 366 355 basechar 0
AnchorPoint: "Anchor-0" 365 0 basechar 0
LayerCount: 2
Fore
SplineSet
276 782 m 1
 344 906 l 1
 418 906 l 1
 331 782 l 1
 276 782 l 1
394 782 m 1
 462 906 l 1
 536 906 l 1
 450 782 l 1
 394 782 l 1
365 -16 m 0
 167 -16 47 125 47 354 c 0
 47 584 167 726 365 726 c 0
 564 726 684 584 684 354 c 0
 684 125 564 -16 365 -16 c 0
365 51 m 0
 519 51 613 165 613 354 c 0
 613 544 519 659 365 659 c 0
 211 659 118 544 118 354 c 0
 118 165 211 51 365 51 c 0
EndSplineSet
EndChar

StartChar: Omacron
Encoding: 332 332 81
Width: 731
GlyphClass: 2
Flags: MW
HStem: -16 67<288 442 288 464.5> 659 67<288 442> 811 58<234 496 234 496>
VStem: 47 71<259.5 449 259.5 469> 234 262<811 869 811 869> 613 71<259.5 449>
AnchorPoint: "Anchor-3" 365 710 basechar 0
AnchorPoint: "Anchor-1" 366 355 basechar 0
AnchorPoint: "Anchor-0" 365 0 basechar 0
LayerCount: 2
Fore
SplineSet
234 811 m 1
 234 869 l 1
 496 869 l 1
 496 811 l 1
 234 811 l 1
365 -16 m 0
 167 -16 47 125 47 354 c 0
 47 584 167 726 365 726 c 0
 564 726 684 584 684 354 c 0
 684 125 564 -16 365 -16 c 0
365 51 m 0
 519 51 613 165 613 354 c 0
 613 544 519 659 365 659 c 0
 211 659 118 544 118 354 c 0
 118 165 211 51 365 51 c 0
EndSplineSet
EndChar

StartChar: Oslash
Encoding: 216 216 82
Width: 731
GlyphClass: 2
Flags: MW
HStem: -16 67<336.5 442 336.5 464.5> 659 67<288 393.5>
VStem: 47 71<308 449 308 469> 613 71<259.5 400.5>
AnchorPoint: "Anchor-3" 365 710 basechar 0
AnchorPoint: "Anchor-1" 366 355 basechar 0
AnchorPoint: "Anchor-0" 365 0 basechar 0
LayerCount: 2
Fore
SplineSet
77 -16 m 1
 139 75 l 1
 79 139 47 234 47 354 c 0
 47 584 167 726 365 726 c 0
 438 726 500 707 549 672 c 1
 587 726 l 1
 654 726 l 1
 591 635 l 1
 651 570 684 474 684 354 c 0
 684 125 564 -16 365 -16 c 0
 293 -16 231 3 181 38 c 1
 144 -16 l 1
 77 -16 l 1
118 354 m 0
 118 262 140 187 181 135 c 1
 510 614 l 1
 471 643 422 659 365 659 c 0
 211 659 118 544 118 354 c 0
365 51 m 0
 519 51 613 165 613 354 c 0
 613 447 590 522 550 574 c 1
 221 96 l 1
 259 66 308 51 365 51 c 0
EndSplineSet
EndChar

StartChar: Otilde
Encoding: 213 213 83
Width: 731
GlyphClass: 2
Flags: MW
HStem: -16 67<288 442 288 464.5> 659 67<288 442> 797 45<417 438 417 449> 853 45<289 312.5>
VStem: 47 71<259.5 449 259.5 469> 213 44<790 790> 468 43<908 908> 613 71<259.5 449>
AnchorPoint: "Anchor-3" 365 710 basechar 0
AnchorPoint: "Anchor-1" 366 355 basechar 0
AnchorPoint: "Anchor-0" 365 0 basechar 0
LayerCount: 2
Fore
SplineSet
423 797 m 0
 396 797 376 807 355 826 c 0
 334 845 323 853 302 853 c 0
 276 853 259 837 257 790 c 1
 213 790 l 1
 216 860 252 898 302 898 c 0xdd
 334 898 355 886 377 866 c 0
 397 849 409 842 425 842 c 0
 451 842 464 858 468 908 c 1
 511 908 l 1
 507 838 475 797 423 797 c 0
365 -16 m 0
 167 -16 47 125 47 354 c 0
 47 584 167 726 365 726 c 0
 564 726 684 584 684 354 c 0
 684 125 564 -16 365 -16 c 0
365 51 m 0
 519 51 613 165 613 354 c 0
 613 544 519 659 365 659 c 0
 211 659 118 544 118 354 c 0
 118 165 211 51 365 51 c 0
EndSplineSet
EndChar

StartChar: OE
Encoding: 338 338 84
Width: 1084
GlyphClass: 2
Flags: MW
HStem: -16 67<284 421> 0 66<683 1030 683 1030> 323 65<683 1010 683 1010> 644 66<683 1022 683 683> 659 67<283.5 421 264 445>
VStem: 47 71<263 444 263 464.5> 613 70<263 323 388 444> 615 68<66 124 124 124 585 644>
AnchorPoint: "Anchor-3" 541 710 basechar 0
AnchorPoint: "Anchor-0" 541 0 basechar 0
LayerCount: 2
Fore
SplineSet
364 -16 m 0xb5
 165 -16 47 134 47 354 c 0
 47 575 164 726 364 726 c 0xae
 478 726 564 675 615 585 c 1
 615 710 l 1
 1022 710 l 1
 1022 644 l 1
 683 644 l 1
 683 388 l 1
 1010 388 l 1
 1010 323 l 1
 683 323 l 1
 683 66 l 1
 1030 66 l 1
 1030 0 l 1
 615 0 l 1x75
 615 124 l 1
 564 36 478 -16 364 -16 c 0xb5
364 51 m 0
 525 51 613 172 613 354 c 0
 613 534 526 659 364 659 c 0
 203 659 118 534 118 354 c 0
 118 172 204 51 364 51 c 0
EndSplineSet
EndChar

StartChar: P
Encoding: 80 80 85
Width: 639
GlyphClass: 2
Flags: MW
HStem: 0 21G<93 93 93 161> 286 66<161 342 161 342> 644 66<161 342 161 161>
VStem: 93 68<0 286 352 644> 518 72<450.5 546>
AnchorPoint: "Anchor-3" 320 710 basechar 0
AnchorPoint: "Anchor-0" 320 0 basechar 0
LayerCount: 2
Fore
SplineSet
93 0 m 1
 93 710 l 1
 342 710 l 2
 498 710 590 630 590 498 c 0
 590 366 498 286 342 286 c 2
 161 286 l 1
 161 0 l 1
 93 0 l 1
161 352 m 1
 342 352 l 2
 458 352 518 403 518 498 c 0
 518 594 458 644 342 644 c 2
 161 644 l 1
 161 352 l 1
EndSplineSet
EndChar

StartChar: Thorn
Encoding: 222 222 86
Width: 609
GlyphClass: 2
Flags: MW
HStem: 0 21G<93 93 93 161> 155 66<161 308 161 308> 512 66<161 308 161 308> 690 20G<93 161 161 161>
VStem: 93 68<0 155 0 221 221 512 578 710> 488 72<316 414.5>
AnchorPoint: "Anchor-3" 305 710 basechar 0
AnchorPoint: "Anchor-0" 305 0 basechar 0
LayerCount: 2
Fore
SplineSet
93 0 m 1
 93 710 l 1
 161 710 l 1
 161 578 l 1
 308 578 l 2
 468 578 560 498 560 365 c 0
 560 232 468 155 308 155 c 2
 161 155 l 1
 161 0 l 1
 93 0 l 1
308 512 m 2
 161 512 l 1
 161 221 l 1
 308 221 l 2
 425 221 488 267 488 365 c 0
 488 464 425 512 308 512 c 2
EndSplineSet
EndChar

StartChar: Q
Encoding: 81 81 87
Width: 725
GlyphClass: 2
Flags: MW
HStem: -16 67<283 379.5 283 386.5> 659 67<282.5 441.5>
VStem: 47 71<267.5 441 267.5 460.5> 607 71<295 441>
AnchorPoint: "Anchor-3" 362 710 basechar 0
AnchorPoint: "Anchor-0" 362 0 basechar 0
LayerCount: 2
Fore
SplineSet
555 -69 m 1
 493 12 l 1
 457 -6 411 -16 362 -16 c 0
 165 -16 47 142 47 354 c 0
 47 567 164 726 362 726 c 0
 562 726 678 567 678 354 c 0
 678 217 629 105 543 40 c 1
 629 -69 l 1
 555 -69 l 1
362 51 m 0
 397 51 427 56 450 68 c 1
 339 208 l 1
 413 208 l 1
 502 93 l 1
 570 146 607 236 607 354 c 0
 607 528 521 659 362 659 c 0
 203 659 118 528 118 354 c 0
 118 181 204 51 362 51 c 0
EndSplineSet
EndChar

StartChar: R
Encoding: 82 82 88
Width: 658
GlyphClass: 2
Flags: MW
HStem: 0 21G<93 93 93 161 529 529 529 598> 294 66<161 364 364 377 161 364> 644 66<161 352 161 161>
VStem: 93 68<0 294 360 644> 522 72<456.5 546.5>
AnchorPoint: "Anchor-3" 333 710 basechar 0
AnchorPoint: "Anchor-0" 339 0 basechar 0
LayerCount: 2
Fore
SplineSet
93 0 m 1
 93 710 l 1
 353 710 l 2
 504 710 594 630 594 499 c 0
 594 414 537 351 467 331 c 1
 535 320 573 279 580 204 c 2
 598 0 l 1
 529 0 l 1
 512 198 l 2
 507 264 468 294 377 294 c 2
 161 294 l 1
 161 0 l 1
 93 0 l 1
161 360 m 1
 364 360 l 2
 461 360 522 410 522 500 c 0
 522 593 464 644 352 644 c 2
 161 644 l 1
 161 360 l 1
EndSplineSet
Substitution2: "'ss04' Style Set 4 in Latin lookup 37 subtable" R.ss04
Substitution2: "'aalt' Access All Alternates in Latin lookup 0 subtable" R.ss04
EndChar

StartChar: Racute
Encoding: 340 340 89
Width: 658
GlyphClass: 2
Flags: MW
HStem: 0 21G<93 93 93 161 529 529 529 598> 294 66<161 364 364 377 161 364> 644 66<161 352 161 161> 782 124<303 445 303 445>
VStem: 93 68<0 294 360 644> 522 72<456.5 546.5>
AnchorPoint: "Anchor-3" 333 710 basechar 0
AnchorPoint: "Anchor-0" 339 0 basechar 0
LayerCount: 2
Fore
SplineSet
303 782 m 1
 371 906 l 1
 445 906 l 1
 359 782 l 1
 303 782 l 1
93 0 m 1
 93 710 l 1
 353 710 l 2
 504 710 594 630 594 499 c 0
 594 414 537 351 467 331 c 1
 535 320 573 279 580 204 c 2
 598 0 l 1
 529 0 l 1
 512 198 l 2
 507 264 468 294 377 294 c 2
 161 294 l 1
 161 0 l 1
 93 0 l 1
161 360 m 1
 364 360 l 2
 461 360 522 410 522 500 c 0
 522 593 464 644 352 644 c 2
 161 644 l 1
 161 360 l 1
EndSplineSet
Substitution2: "'ss04' Style Set 4 in Latin lookup 37 subtable" Racute.ss04
Substitution2: "'aalt' Access All Alternates in Latin lookup 0 subtable" Racute.ss04
EndChar

StartChar: Rcaron
Encoding: 344 344 90
Width: 658
GlyphClass: 2
Flags: MW
HStem: 0 21G<93 93 93 161 529 529 529 598> 294 66<161 364 364 377 161 364> 644 66<161 352 161 161> 782 130<208 368 208 298>
VStem: 93 68<0 294 360 644> 522 72<456.5 546.5>
AnchorPoint: "Anchor-3" 333 710 basechar 0
AnchorPoint: "Anchor-0" 339 0 basechar 0
LayerCount: 2
Fore
SplineSet
208 912 m 1
 264 912 l 1
 333 819 l 1
 401 912 l 1
 457 912 l 1
 368 782 l 1
 298 782 l 1
 208 912 l 1
93 0 m 1
 93 710 l 1
 353 710 l 2
 504 710 594 630 594 499 c 0
 594 414 537 351 467 331 c 1
 535 320 573 279 580 204 c 2
 598 0 l 1
 529 0 l 1
 512 198 l 2
 507 264 468 294 377 294 c 2
 161 294 l 1
 161 0 l 1
 93 0 l 1
161 360 m 1
 364 360 l 2
 461 360 522 410 522 500 c 0
 522 593 464 644 352 644 c 2
 161 644 l 1
 161 360 l 1
EndSplineSet
Substitution2: "'ss04' Style Set 4 in Latin lookup 37 subtable" Rcaron.ss04
Substitution2: "'aalt' Access All Alternates in Latin lookup 0 subtable" Rcaron.ss04
EndChar

StartChar: uni0156
Encoding: 342 342 91
Width: 658
GlyphClass: 2
Flags: MW
HStem: -127 76<298 330 298 381> 0 21G<93 93 93 161 529 529 529 598> 294 66<161 364 364 377 161 364> 644 66<161 352 161 161>
VStem: 93 68<0 294 360 644> 298 83<-120 -51 -120 -51 -120 -51> 522 72<456.5 546.5>
AnchorPoint: "Anchor-3" 333 710 basechar 0
AnchorPoint: "Anchor-0" 339 -216 basechar 0
LayerCount: 2
Fore
SplineSet
93 0 m 1
 93 710 l 1
 353 710 l 2
 504 710 594 630 594 499 c 0
 594 414 537 351 467 331 c 1
 535 320 573 279 580 204 c 2
 598 0 l 1
 529 0 l 1
 512 198 l 2
 507 264 468 294 377 294 c 2
 161 294 l 1
 161 0 l 1
 93 0 l 1
161 360 m 1
 364 360 l 2
 461 360 522 410 522 500 c 0
 522 593 464 644 352 644 c 2
 161 644 l 1
 161 360 l 1
281 -216 m 1
 330 -127 l 1
 298 -127 l 1
 298 -51 l 1
 381 -51 l 1
 381 -120 l 1
 327 -216 l 1
 281 -216 l 1
EndSplineSet
Substitution2: "'ss04' Style Set 4 in Latin lookup 37 subtable" uni0156.ss04
Substitution2: "'aalt' Access All Alternates in Latin lookup 0 subtable" uni0156.ss04
EndChar

StartChar: S
Encoding: 83 83 92
Width: 634
GlyphClass: 2
Flags: MW
HStem: -16 67<272 385.5 272 401.5> 659 67<254 361.5>
VStem: 57 71<224 229> 72 71<494.5 569 494.5 586> 490 71<498 503> 506 72<138.5 214.5>
AnchorPoint: "Anchor-3" 305 710 basechar 0
AnchorPoint: "Anchor-0" 321 0 basechar 0
LayerCount: 2
Fore
SplineSet
331 -16 m 0xd4
 172 -16 65 85 57 224 c 1
 128 229 l 1
 137 122 211 51 333 51 c 0
 438 51 506 97 506 180 c 0xe4
 506 249 471 293 294 336 c 0
 133 375 72 421 72 529 c 0
 72 643 159 726 306 726 c 0
 462 726 551 625 561 503 c 1
 490 498 l 1xd8
 482 589 419 659 304 659 c 0
 204 659 143 607 143 531 c 0
 143 458 181 431 333 394 c 0
 520 349 578 283 578 183 c 0
 578 61 472 -16 331 -16 c 0xd4
EndSplineSet
EndChar

StartChar: Sacute
Encoding: 346 346 93
Width: 634
GlyphClass: 2
Flags: MW
HStem: -16 67<272 385.5 272 401.5> 659 67<254 361.5> 782 124<276 418 276 418>
VStem: 57 71<224 229> 72 71<494.5 569 494.5 586> 490 71<498 503> 506 72<138.5 214.5>
AnchorPoint: "Anchor-3" 305 710 basechar 0
AnchorPoint: "Anchor-0" 321 0 basechar 0
LayerCount: 2
Fore
SplineSet
276 782 m 1xea
 344 906 l 1
 418 906 l 1
 331 782 l 1
 276 782 l 1xea
331 -16 m 0
 172 -16 65 85 57 224 c 1
 128 229 l 1
 137 122 211 51 333 51 c 0
 438 51 506 97 506 180 c 0xd2
 506 249 471 293 294 336 c 0
 133 375 72 421 72 529 c 0
 72 643 159 726 306 726 c 0
 462 726 551 625 561 503 c 1
 490 498 l 1xcc
 482 589 419 659 304 659 c 0
 204 659 143 607 143 531 c 0
 143 458 181 431 333 394 c 0
 520 349 578 283 578 183 c 0
 578 61 472 -16 331 -16 c 0
EndSplineSet
EndChar

StartChar: Scaron
Encoding: 352 352 94
Width: 634
GlyphClass: 2
Flags: MW
HStem: -16 67<272 385.5 272 401.5> 659 67<254 361.5> 782 130<181 340 181 270>
VStem: 57 71<224 229> 72 71<494.5 569 494.5 586> 490 71<498 503> 506 72<138.5 214.5>
AnchorPoint: "Anchor-3" 305 710 basechar 0
AnchorPoint: "Anchor-0" 321 0 basechar 0
LayerCount: 2
Fore
SplineSet
181 912 m 1xea
 237 912 l 1
 305 819 l 1
 374 912 l 1
 430 912 l 1
 340 782 l 1
 270 782 l 1
 181 912 l 1xea
331 -16 m 0
 172 -16 65 85 57 224 c 1
 128 229 l 1
 137 122 211 51 333 51 c 0
 438 51 506 97 506 180 c 0xd2
 506 249 471 293 294 336 c 0
 133 375 72 421 72 529 c 0
 72 643 159 726 306 726 c 0
 462 726 551 625 561 503 c 1
 490 498 l 1xcc
 482 589 419 659 304 659 c 0
 204 659 143 607 143 531 c 0
 143 458 181 431 333 394 c 0
 520 349 578 283 578 183 c 0
 578 61 472 -16 331 -16 c 0
EndSplineSet
EndChar

StartChar: Scedilla
Encoding: 350 350 95
Width: 634
GlyphClass: 2
Flags: MW
HStem: -215 46<292 328.5 292 343> -77 37<289 321> -16 67<337 385.5 272 404.5> -13 21G<289 289> 659 67<254 361.5>
VStem: 57 71<224 229> 72 71<494.5 569 494.5 586> 369 49<-138.5 -110> 490 71<498 503> 506 72<138.5 214.5>
AnchorPoint: "Anchor-3" 305 710 basechar 0
AnchorPoint: "Anchor-0" 321 0 basechar 0
LayerCount: 2
Fore
SplineSet
312 -215 m 0xcb40
 253 -215 215 -185 202 -143 c 1
 244 -126 l 1
 255 -155 274 -169 310 -169 c 0
 347 -169 369 -153 369 -124 c 0
 369 -96 353 -77 289 -77 c 1xcb40
 266 -51 l 1
 289 -13 l 1x9d40
 153 3 64 98 57 224 c 1
 128 229 l 1
 137 122 211 51 333 51 c 0
 438 51 506 97 506 180 c 0xad40
 506 249 471 293 294 336 c 0
 133 375 72 421 72 529 c 0
 72 643 159 726 306 726 c 0
 462 726 551 625 561 503 c 1
 490 498 l 1xab80
 482 589 419 659 304 659 c 0
 204 659 143 607 143 531 c 0
 143 458 181 431 333 394 c 0
 520 349 578 283 578 183 c 0
 578 61 472 -16 337 -16 c 1xab40
 321 -40 l 1
 385 -43 418 -74 418 -126 c 0
 418 -180 374 -215 312 -215 c 0xcb40
EndSplineSet
Substitution2: "'locl' Localized Forms in Latin lookup 10 subtable" uni0218
Substitution2: "'aalt' Access All Alternates in Latin lookup 0 subtable" uni0218
EndChar

StartChar: Scircumflex
Encoding: 348 348 96
Width: 634
GlyphClass: 2
Flags: MW
HStem: -16 67<272 385.5 272 401.5> 659 67<254 361.5> 782 130<181 341 181 341 271 374 271 430>
VStem: 57 71<224 229> 72 71<494.5 569 494.5 586> 490 71<498 503> 506 72<138.5 214.5>
AnchorPoint: "Anchor-3" 305 710 basechar 0
AnchorPoint: "Anchor-0" 321 0 basechar 0
LayerCount: 2
Fore
SplineSet
181 782 m 1xea
 271 912 l 1
 341 912 l 1
 430 782 l 1
 374 782 l 1
 306 875 l 1
 237 782 l 1
 181 782 l 1xea
331 -16 m 0
 172 -16 65 85 57 224 c 1
 128 229 l 1
 137 122 211 51 333 51 c 0
 438 51 506 97 506 180 c 0xd2
 506 249 471 293 294 336 c 0
 133 375 72 421 72 529 c 0
 72 643 159 726 306 726 c 0
 462 726 551 625 561 503 c 1
 490 498 l 1xcc
 482 589 419 659 304 659 c 0
 204 659 143 607 143 531 c 0
 143 458 181 431 333 394 c 0
 520 349 578 283 578 183 c 0
 578 61 472 -16 331 -16 c 0
EndSplineSet
EndChar

StartChar: uni0218
Encoding: 536 536 97
Width: 634
GlyphClass: 2
Flags: MW
HStem: -127 76<280 312 280 363> -16 67<272 385.5 272 401.5> 659 67<254 361.5>
VStem: 57 71<224 229> 72 71<494.5 569 494.5 586> 280 83<-120 -51 -120 -51 -120 -51> 490 71<498 503> 506 72<138.5 214.5>
AnchorPoint: "Anchor-3" 305 710 basechar 0
AnchorPoint: "Anchor-0" 321 -216 basechar 0
LayerCount: 2
Fore
SplineSet
331 -16 m 0xed
 172 -16 65 85 57 224 c 1
 128 229 l 1
 137 122 211 51 333 51 c 0
 438 51 506 97 506 180 c 0xf5
 506 249 471 293 294 336 c 0
 133 375 72 421 72 529 c 0
 72 643 159 726 306 726 c 0
 462 726 551 625 561 503 c 1
 490 498 l 1xee
 482 589 419 659 304 659 c 0
 204 659 143 607 143 531 c 0
 143 458 181 431 333 394 c 0
 520 349 578 283 578 183 c 0
 578 61 472 -16 331 -16 c 0xed
263 -216 m 1
 312 -127 l 1
 280 -127 l 1
 280 -51 l 1
 363 -51 l 1
 363 -120 l 1
 309 -216 l 1
 263 -216 l 1
EndSplineSet
EndChar

StartChar: uni1E9E
Encoding: 7838 7838 98
Width: 679
GlyphClass: 2
Flags: MW
HStem: 0 66<238 372 238 372> 361 60<261 346> 644 66<285 286 286 492>
VStem: 93 68<0 511 0 574.5> 548 72<166 260.5>
AnchorPoint: "Anchor-3" 340 710 basechar 0
AnchorPoint: "Anchor-0" 340 0 basechar 0
LayerCount: 2
Fore
SplineSet
93 0 m 1
 93 511 l 2
 93 638 163 710 285 710 c 2
 576 710 l 1
 576 635 l 1
 346 421 l 1
 527 417 620 345 620 214 c 0
 620 82 520 0 372 0 c 2
 238 0 l 1
 238 66 l 1
 372 66 l 2
 478 66 548 120 548 212 c 0
 548 309 474 361 341 361 c 2
 261 361 l 1
 261 424 l 1
 492 644 l 1
 286 644 l 2
 202 644 161 601 161 511 c 2
 161 0 l 1
 93 0 l 1
EndSplineSet
EndChar

StartChar: T
Encoding: 84 84 99
Width: 549
GlyphClass: 2
Flags: MW
HStem: 0 21G<241 241 241 309> 644 66<13 241 13 537 309 309 309 537>
VStem: 241 68<0 644 0 644>
AnchorPoint: "Anchor-3" 275 710 basechar 0
AnchorPoint: "Anchor-1" 275 348 basechar 0
AnchorPoint: "Anchor-0" 275 0 basechar 0
LayerCount: 2
Fore
SplineSet
241 0 m 1
 241 644 l 1
 13 644 l 1
 13 710 l 1
 537 710 l 1
 537 644 l 1
 309 644 l 1
 309 0 l 1
 241 0 l 1
EndSplineSet
EndChar

StartChar: Tbar
Encoding: 358 358 100
Width: 549
GlyphClass: 2
Flags: MW
HStem: 0 21G<241 241 241 309> 317 62<91 241 91 241 309 458> 644 66<13 241 13 537 309 309 309 537>
VStem: 241 68<0 317 0 317 379 644>
AnchorPoint: "Anchor-3" 275 710 basechar 0
AnchorPoint: "Anchor-1" 275 348 basechar 0
AnchorPoint: "Anchor-0" 275 0 basechar 0
LayerCount: 2
Fore
SplineSet
241 0 m 1
 241 317 l 1
 91 317 l 1
 91 379 l 1
 241 379 l 1
 241 644 l 1
 13 644 l 1
 13 710 l 1
 537 710 l 1
 537 644 l 1
 309 644 l 1
 309 379 l 1
 458 379 l 1
 458 317 l 1
 309 317 l 1
 309 0 l 1
 241 0 l 1
EndSplineSet
EndChar

StartChar: Tcaron
Encoding: 356 356 101
Width: 549
GlyphClass: 2
Flags: MW
HStem: 0 21G<241 241 241 309> 644 66<13 241 13 537 309 309 309 537> 782 130<150 310 150 240>
VStem: 241 68<0 644 0 644>
AnchorPoint: "Anchor-3" 275 710 basechar 0
AnchorPoint: "Anchor-1" 275 348 basechar 0
AnchorPoint: "Anchor-0" 275 0 basechar 0
LayerCount: 2
Fore
SplineSet
150 912 m 1
 206 912 l 1
 275 819 l 1
 343 912 l 1
 399 912 l 1
 310 782 l 1
 240 782 l 1
 150 912 l 1
241 0 m 1
 241 644 l 1
 13 644 l 1
 13 710 l 1
 537 710 l 1
 537 644 l 1
 309 644 l 1
 309 0 l 1
 241 0 l 1
EndSplineSet
EndChar

StartChar: uni0162
Encoding: 354 354 102
Width: 549
GlyphClass: 2
Flags: MW
HStem: -215 46<245 281.5 245 296> -77 37<243 275> 0 21G<241 241 241 250 301 301 301 309> 644 66<13 241 13 537 309 309 309 537>
VStem: 241 68<0 644 0 644> 322 49<-138.5 -110>
AnchorPoint: "Anchor-3" 275 710 basechar 0
AnchorPoint: "Anchor-1" 275 348 basechar 0
AnchorPoint: "Anchor-0" 275 0 basechar 0
LayerCount: 2
Fore
SplineSet
241 0 m 1
 241 644 l 1
 13 644 l 1
 13 710 l 1
 537 710 l 1
 537 644 l 1
 309 644 l 1
 309 0 l 1
 301 0 l 1xf8
 275 -40 l 1
 339 -43 371 -74 371 -126 c 0
 371 -180 327 -215 265 -215 c 0
 206 -215 169 -185 155 -143 c 1
 197 -126 l 1
 208 -155 227 -169 263 -169 c 0
 300 -169 322 -153 322 -124 c 0xf4
 322 -96 306 -77 243 -77 c 1
 219 -51 l 1
 250 0 l 1
 241 0 l 1
EndSplineSet
Substitution2: "'locl' Localized Forms in Latin lookup 10 subtable" uni021A
Substitution2: "'aalt' Access All Alternates in Latin lookup 0 subtable" uni021A
EndChar

StartChar: uni021A
Encoding: 538 538 103
Width: 549
GlyphClass: 2
Flags: MW
HStem: -127 76<233 265 233 316> 0 21G<241 241 241 309> 644 66<13 241 13 537 309 309 309 537>
VStem: 233 76<-127 644 -51 644> 241 68<0 644 0 644> 241 75<-120 644>
AnchorPoint: "Anchor-3" 275 710 basechar 0
AnchorPoint: "Anchor-1" 275 348 basechar 0
AnchorPoint: "Anchor-0" 275 -216 basechar 0
LayerCount: 2
Fore
SplineSet
241 0 m 1xe8
 241 644 l 1
 13 644 l 1
 13 710 l 1
 537 710 l 1
 537 644 l 1
 309 644 l 1
 309 0 l 1
 241 0 l 1xe8
216 -216 m 1
 265 -127 l 1
 233 -127 l 1
 233 -51 l 1xf0
 316 -51 l 1
 316 -120 l 1xe4
 262 -216 l 1
 216 -216 l 1
EndSplineSet
EndChar

StartChar: U
Encoding: 85 85 104
Width: 680
GlyphClass: 2
Flags: MW
HStem: -16 67<278 402 278 421.5> 691 20G<78 146 146 146 534 602 602 602>
VStem: 78 68<248 711> 534 68<248 711>
AnchorPoint: "Anchor-3" 340 710 basechar 0
AnchorPoint: "Anchor-2" 450 2 basechar 0
AnchorPoint: "Anchor-0" 340 0 basechar 0
LayerCount: 2
Fore
SplineSet
340 -16 m 0
 177 -16 78 84 78 248 c 2
 78 711 l 1
 146 711 l 1
 146 248 l 2
 146 122 216 51 340 51 c 0
 464 51 534 122 534 248 c 2
 534 711 l 1
 602 711 l 1
 602 248 l 2
 602 84 503 -16 340 -16 c 0
EndSplineSet
EndChar

StartChar: Uacute
Encoding: 218 218 105
Width: 680
GlyphClass: 2
Flags: MW
HStem: -16 67<278 402 278 421.5> 691 20G<78 146 146 146 534 602 602 602> 782 124<311 453 311 453>
VStem: 78 68<248 711> 534 68<248 711>
AnchorPoint: "Anchor-3" 340 710 basechar 0
AnchorPoint: "Anchor-2" 450 2 basechar 0
AnchorPoint: "Anchor-0" 340 0 basechar 0
LayerCount: 2
Fore
SplineSet
311 782 m 1
 379 906 l 1
 453 906 l 1
 366 782 l 1
 311 782 l 1
340 -16 m 0
 177 -16 78 84 78 248 c 2
 78 711 l 1
 146 711 l 1
 146 248 l 2
 146 122 216 51 340 51 c 0
 464 51 534 122 534 248 c 2
 534 711 l 1
 602 711 l 1
 602 248 l 2
 602 84 503 -16 340 -16 c 0
EndSplineSet
EndChar

StartChar: Ubreve
Encoding: 364 364 106
Width: 680
GlyphClass: 2
Flags: MW
HStem: -16 67<278 402 278 421.5> 691 20G<78 146 146 146 534 602 602 602> 788 51<316 364 316 379>
VStem: 78 68<248 711> 534 68<248 711>
AnchorPoint: "Anchor-3" 340 710 basechar 0
AnchorPoint: "Anchor-2" 450 2 basechar 0
AnchorPoint: "Anchor-0" 340 0 basechar 0
LayerCount: 2
Fore
SplineSet
340 788 m 0
 262 788 212 837 206 912 c 1
 253 912 l 1
 260 862 292 839 340 839 c 0
 388 839 420 862 427 912 c 1
 474 912 l 1
 468 837 418 788 340 788 c 0
340 -16 m 0
 177 -16 78 84 78 248 c 2
 78 711 l 1
 146 711 l 1
 146 248 l 2
 146 122 216 51 340 51 c 0
 464 51 534 122 534 248 c 2
 534 711 l 1
 602 711 l 1
 602 248 l 2
 602 84 503 -16 340 -16 c 0
EndSplineSet
EndChar

StartChar: Ucircumflex
Encoding: 219 219 107
Width: 680
GlyphClass: 2
Flags: MW
HStem: -16 67<278 402 278 421.5> 691 20G<78 146 146 146 534 602 602 602> 782 130<216 376 216 376 306 409 306 465>
VStem: 78 68<248 711> 534 68<248 711>
AnchorPoint: "Anchor-3" 340 710 basechar 0
AnchorPoint: "Anchor-2" 450 2 basechar 0
AnchorPoint: "Anchor-0" 340 0 basechar 0
LayerCount: 2
Fore
SplineSet
216 782 m 1
 306 912 l 1
 376 912 l 1
 465 782 l 1
 409 782 l 1
 341 875 l 1
 272 782 l 1
 216 782 l 1
340 -16 m 0
 177 -16 78 84 78 248 c 2
 78 711 l 1
 146 711 l 1
 146 248 l 2
 146 122 216 51 340 51 c 0
 464 51 534 122 534 248 c 2
 534 711 l 1
 602 711 l 1
 602 248 l 2
 602 84 503 -16 340 -16 c 0
EndSplineSet
EndChar

StartChar: Udieresis
Encoding: 220 220 108
Width: 680
GlyphClass: 2
Flags: MW
HStem: -16 67<278 402 278 421.5> 691 20G<78 146 146 146 534 602 602 602> 798 89<226 296 226 296 385 455>
VStem: 78 68<248 711> 226 70<798 887 798 887> 385 70<798 887 798 887> 534 68<248 711>
AnchorPoint: "Anchor-3" 340 710 basechar 0
AnchorPoint: "Anchor-2" 450 2 basechar 0
AnchorPoint: "Anchor-0" 340 0 basechar 0
LayerCount: 2
Fore
SplineSet
226 798 m 1
 226 887 l 1
 296 887 l 1
 296 798 l 1
 226 798 l 1
385 798 m 1
 385 887 l 1
 455 887 l 1
 455 798 l 1
 385 798 l 1
340 -16 m 0
 177 -16 78 84 78 248 c 2
 78 711 l 1
 146 711 l 1
 146 248 l 2
 146 122 216 51 340 51 c 0
 464 51 534 122 534 248 c 2
 534 711 l 1
 602 711 l 1
 602 248 l 2
 602 84 503 -16 340 -16 c 0
EndSplineSet
Substitution2: "'ss08' Style Set 8 in Latin lookup 41 subtable" Udieresis.ss08
Substitution2: "'aalt' Access All Alternates in Latin lookup 0 subtable" Udieresis.ss08
EndChar

StartChar: Ugrave
Encoding: 217 217 109
Width: 680
GlyphClass: 2
Flags: MW
HStem: -16 67<278 402 278 421.5> 691 20G<78 146 146 146 534 602 602 602> 788 124<229 315 229 371>
VStem: 78 68<248 711> 534 68<248 711>
AnchorPoint: "Anchor-3" 340 710 basechar 0
AnchorPoint: "Anchor-2" 450 2 basechar 0
AnchorPoint: "Anchor-0" 340 0 basechar 0
LayerCount: 2
Fore
SplineSet
315 788 m 1
 229 912 l 1
 303 912 l 1
 371 788 l 1
 315 788 l 1
340 -16 m 0
 177 -16 78 84 78 248 c 2
 78 711 l 1
 146 711 l 1
 146 248 l 2
 146 122 216 51 340 51 c 0
 464 51 534 122 534 248 c 2
 534 711 l 1
 602 711 l 1
 602 248 l 2
 602 84 503 -16 340 -16 c 0
EndSplineSet
EndChar

StartChar: Uhungarumlaut
Encoding: 368 368 110
Width: 680
GlyphClass: 2
Flags: MW
HStem: -16 67<278 402 278 421.5> 691 20G<78 146 146 146 534 602 602 602> 782 124<251 393 251 393 370 393 319 425 370 370>
VStem: 78 68<248 711> 534 68<248 711>
AnchorPoint: "Anchor-3" 340 710 basechar 0
AnchorPoint: "Anchor-2" 450 2 basechar 0
AnchorPoint: "Anchor-0" 340 0 basechar 0
LayerCount: 2
Fore
SplineSet
251 782 m 1
 319 906 l 1
 393 906 l 1
 306 782 l 1
 251 782 l 1
370 782 m 1
 438 906 l 1
 512 906 l 1
 425 782 l 1
 370 782 l 1
340 -16 m 0
 177 -16 78 84 78 248 c 2
 78 711 l 1
 146 711 l 1
 146 248 l 2
 146 122 216 51 340 51 c 0
 464 51 534 122 534 248 c 2
 534 711 l 1
 602 711 l 1
 602 248 l 2
 602 84 503 -16 340 -16 c 0
EndSplineSet
EndChar

StartChar: Umacron
Encoding: 362 362 111
Width: 680
GlyphClass: 2
Flags: MW
HStem: -16 67<278 402 278 421.5> 691 20G<78 146 146 146 534 602 602 602> 811 58<210 471 210 471>
VStem: 78 68<248 711> 210 261<811 869 811 869> 534 68<248 711>
AnchorPoint: "Anchor-3" 340 710 basechar 0
AnchorPoint: "Anchor-2" 450 2 basechar 0
AnchorPoint: "Anchor-0" 340 0 basechar 0
LayerCount: 2
Fore
SplineSet
210 811 m 1
 210 869 l 1
 471 869 l 1
 471 811 l 1
 210 811 l 1
340 -16 m 0
 177 -16 78 84 78 248 c 2
 78 711 l 1
 146 711 l 1
 146 248 l 2
 146 122 216 51 340 51 c 0
 464 51 534 122 534 248 c 2
 534 711 l 1
 602 711 l 1
 602 248 l 2
 602 84 503 -16 340 -16 c 0
EndSplineSet
EndChar

StartChar: Uogonek
Encoding: 370 370 112
Width: 680
GlyphClass: 2
Flags: MW
HStem: -202 54<409.5 425> -16 67<278 347.5> 691 20G<78 146 146 146 534 602 602 602>
VStem: 78 68<248 711> 324 62<-128.5 -117> 534 68<248 711>
AnchorPoint: "Anchor-3" 340 710 basechar 0
AnchorPoint: "Anchor-2" 450 2 basechar 0
AnchorPoint: "Anchor-0" 340 0 basechar 0
LayerCount: 2
Fore
SplineSet
340 -16 m 0
 177 -16 78 84 78 248 c 2
 78 711 l 1
 146 711 l 1
 146 248 l 2
 146 122 216 51 340 51 c 0
 464 51 534 122 534 248 c 2
 534 711 l 1
 602 711 l 1
 602 248 l 2
 602 125 546 38 450 2 c 1
 418 -43 l 2
 395 -76 386 -97 386 -118 c 0
 386 -139 400 -148 419 -148 c 0
 438 -148 454 -142 467 -133 c 1
 488 -178 l 1
 472 -192 441 -202 409 -202 c 0
 359 -202 324 -180 324 -135 c 0
 324 -99 351 -59 378 -21 c 2
 383 -14 l 1
 370 -15 355 -16 340 -16 c 0
EndSplineSet
EndChar

StartChar: Uring
Encoding: 366 366 113
Width: 680
GlyphClass: 2
Flags: MW
HStem: -16 67<278 402 278 421.5> 691 20G<78 146 146 146 534 602 602 602> 761 42<327.5 353 327.5 364.5> 889 42<327.5 353>
VStem: 78 68<248 711> 255 42<833.5 859 833.5 870.5> 383 42<833.5 859> 534 68<248 711>
AnchorPoint: "Anchor-3" 340 710 basechar 0
AnchorPoint: "Anchor-2" 450 2 basechar 0
AnchorPoint: "Anchor-0" 340 0 basechar 0
LayerCount: 2
Fore
SplineSet
340 761 m 0
 292 761 255 798 255 846 c 0
 255 895 292 931 340 931 c 0
 389 931 425 895 425 846 c 0
 425 798 389 761 340 761 c 0
340 803 m 0
 366 803 383 821 383 846 c 0
 383 872 366 889 340 889 c 0
 315 889 297 872 297 846 c 0
 297 821 315 803 340 803 c 0
340 -16 m 0
 177 -16 78 84 78 248 c 2
 78 711 l 1
 146 711 l 1
 146 248 l 2
 146 122 216 51 340 51 c 0
 464 51 534 122 534 248 c 2
 534 711 l 1
 602 711 l 1
 602 248 l 2
 602 84 503 -16 340 -16 c 0
EndSplineSet
EndChar

StartChar: Utilde
Encoding: 360 360 114
Width: 680
GlyphClass: 2
Flags: MW
HStem: -16 67<278 402 278 421.5> 691 20G<78 146 146 146 534 602 602 602> 797 45<393 413.5 393 424> 853 45<264 288>
VStem: 78 68<248 711> 189 43<790 790> 443 44<908 908> 534 68<248 711>
AnchorPoint: "Anchor-3" 340 710 basechar 0
AnchorPoint: "Anchor-2" 450 2 basechar 0
AnchorPoint: "Anchor-0" 340 0 basechar 0
LayerCount: 2
Fore
SplineSet
398 797 m 0
 371 797 351 807 330 826 c 0
 309 845 299 853 277 853 c 0
 251 853 234 837 232 790 c 1
 189 790 l 1
 191 860 227 898 277 898 c 0xdf
 309 898 330 886 352 866 c 0
 372 849 385 842 401 842 c 0
 426 842 439 858 443 908 c 1
 487 908 l 1
 483 838 450 797 398 797 c 0
340 -16 m 0
 177 -16 78 84 78 248 c 2
 78 711 l 1
 146 711 l 1
 146 248 l 2
 146 122 216 51 340 51 c 0
 464 51 534 122 534 248 c 2
 534 711 l 1
 602 711 l 1
 602 248 l 2
 602 84 503 -16 340 -16 c 0
EndSplineSet
EndChar

StartChar: V
Encoding: 86 86 115
Width: 659
GlyphClass: 2
Flags: MW
HStem: 0 21G<286 286 286 373> 0 74<286 330 330 330 330 373> 690 20G<21 96 96 96 563 637 637 637>
VStem: 21 616<710 710>
AnchorPoint: "Anchor-3" 330 710 basechar 0
AnchorPoint: "Anchor-0" 330 0 basechar 0
LayerCount: 2
Fore
SplineSet
286 0 m 1xb0
 21 710 l 1
 96 710 l 1
 330 74 l 1x70
 563 710 l 1
 637 710 l 1
 373 0 l 1
 286 0 l 1xb0
EndSplineSet
EndChar

StartChar: W
Encoding: 87 87 116
Width: 935
GlyphClass: 2
Flags: MW
HStem: 0 90<230 273 273 273 273 318> 592 118<467 467>
VStem: 39 856<710 710>
AnchorPoint: "Anchor-3" 467 710 basechar 0
AnchorPoint: "Anchor-0" 467 0 basechar 0
LayerCount: 2
Fore
SplineSet
230 0 m 1
 39 710 l 1
 113 710 l 1
 273 90 l 1
 427 710 l 1
 507 710 l 1
 661 90 l 1
 821 710 l 1
 895 710 l 1
 704 0 l 1
 616 0 l 1
 467 592 l 1
 318 0 l 1
 230 0 l 1
EndSplineSet
EndChar

StartChar: Wacute
Encoding: 7810 7810 117
Width: 935
GlyphClass: 2
Flags: MW
HStem: 0 90<230 273 273 273 273 318> 592 118<467 467> 782 124<438 580 438 580>
VStem: 39 856<710 710>
AnchorPoint: "Anchor-3" 467 710 basechar 0
AnchorPoint: "Anchor-0" 467 0 basechar 0
LayerCount: 2
Fore
SplineSet
438 782 m 1
 506 906 l 1
 580 906 l 1
 493 782 l 1
 438 782 l 1
230 0 m 1
 39 710 l 1
 113 710 l 1
 273 90 l 1
 427 710 l 1
 507 710 l 1
 661 90 l 1
 821 710 l 1
 895 710 l 1
 704 0 l 1
 616 0 l 1
 467 592 l 1
 318 0 l 1
 230 0 l 1
EndSplineSet
EndChar

StartChar: Wcircumflex
Encoding: 372 372 118
Width: 935
GlyphClass: 2
Flags: MW
HStem: 0 90<230 273 273 273 273 318> 592 118<467 467> 782 130<343 502 343 502 432 536 432 592>
VStem: 39 856<710 710>
AnchorPoint: "Anchor-3" 467 710 basechar 0
AnchorPoint: "Anchor-0" 467 0 basechar 0
LayerCount: 2
Fore
SplineSet
343 782 m 1
 432 912 l 1
 502 912 l 1
 592 782 l 1
 536 782 l 1
 467 875 l 1
 399 782 l 1
 343 782 l 1
230 0 m 1
 39 710 l 1
 113 710 l 1
 273 90 l 1
 427 710 l 1
 507 710 l 1
 661 90 l 1
 821 710 l 1
 895 710 l 1
 704 0 l 1
 616 0 l 1
 467 592 l 1
 318 0 l 1
 230 0 l 1
EndSplineSet
EndChar

StartChar: Wdieresis
Encoding: 7812 7812 119
Width: 935
GlyphClass: 2
Flags: MW
HStem: 0 90<230 273 273 273 273 318> 592 118<467 467> 798 89<353 423 353 423 511 581 353 511>
VStem: 353 70<798 887 798 887> 511 70<798 887 798 887>
AnchorPoint: "Anchor-3" 467 710 basechar 0
AnchorPoint: "Anchor-0" 467 0 basechar 0
LayerCount: 2
Fore
SplineSet
353 798 m 1
 353 887 l 1
 423 887 l 1
 423 798 l 1
 353 798 l 1
511 798 m 1
 511 887 l 1
 581 887 l 1
 581 798 l 1
 511 798 l 1
230 0 m 1
 39 710 l 1
 113 710 l 1
 273 90 l 1
 427 710 l 1
 507 710 l 1
 661 90 l 1
 821 710 l 1
 895 710 l 1
 704 0 l 1
 616 0 l 1
 467 592 l 1
 318 0 l 1
 230 0 l 1
EndSplineSet
Substitution2: "'ss08' Style Set 8 in Latin lookup 41 subtable" Wdieresis.ss08
Substitution2: "'aalt' Access All Alternates in Latin lookup 0 subtable" Wdieresis.ss08
EndChar

StartChar: Wgrave
Encoding: 7808 7808 120
Width: 935
GlyphClass: 2
Flags: MW
HStem: 0 90<230 273 273 273 273 318> 592 118<467 467> 788 124<355 442 355 497>
VStem: 39 856<710 710>
AnchorPoint: "Anchor-3" 467 710 basechar 0
AnchorPoint: "Anchor-0" 467 0 basechar 0
LayerCount: 2
Fore
SplineSet
442 788 m 1
 355 912 l 1
 429 912 l 1
 497 788 l 1
 442 788 l 1
230 0 m 1
 39 710 l 1
 113 710 l 1
 273 90 l 1
 427 710 l 1
 507 710 l 1
 661 90 l 1
 821 710 l 1
 895 710 l 1
 704 0 l 1
 616 0 l 1
 467 592 l 1
 318 0 l 1
 230 0 l 1
EndSplineSet
EndChar

StartChar: X
Encoding: 88 88 121
Width: 603
GlyphClass: 2
Flags: MW
HStem: 0 21G<17 17 17 96 506 506 506 587> 690 20G<20 101 101 101 502 582 582 582>
VStem: 17 570<0 0>
AnchorPoint: "Anchor-3" 302 710 basechar 0
AnchorPoint: "Anchor-0" 302 0 basechar 0
LayerCount: 2
Fore
SplineSet
17 0 m 1
 258 357 l 1
 20 710 l 1
 101 710 l 1
 302 410 l 1
 502 710 l 1
 582 710 l 1
 344 357 l 1
 587 0 l 1
 506 0 l 1
 301 304 l 1
 96 0 l 1
 17 0 l 1
EndSplineSet
EndChar

StartChar: Y
Encoding: 89 89 122
Width: 564
GlyphClass: 2
Flags: MW
HStem: 0 21G<248 248 248 316> 690 20G<-5 76 76 76 488 569 569 569>
VStem: 248 68<0 290 0 290>
AnchorPoint: "Anchor-3" 282 710 basechar 0
AnchorPoint: "Anchor-0" 282 0 basechar 0
LayerCount: 2
Fore
SplineSet
248 0 m 1
 248 290 l 1
 -5 710 l 1
 76 710 l 1
 282 359 l 1
 488 710 l 1
 569 710 l 1
 316 290 l 1
 316 0 l 1
 248 0 l 1
EndSplineSet
EndChar

StartChar: Yacute
Encoding: 221 221 123
Width: 564
GlyphClass: 2
Flags: MW
HStem: 0 21G<248 248 248 316> 690 20G<-5 76 76 76 488 569 569 569> 782 124<253 395 253 395>
VStem: 248 68<0 290 0 290>
AnchorPoint: "Anchor-3" 282 710 basechar 0
AnchorPoint: "Anchor-0" 282 0 basechar 0
LayerCount: 2
Fore
SplineSet
253 782 m 1
 321 906 l 1
 395 906 l 1
 308 782 l 1
 253 782 l 1
248 0 m 1
 248 290 l 1
 -5 710 l 1
 76 710 l 1
 282 359 l 1
 488 710 l 1
 569 710 l 1
 316 290 l 1
 316 0 l 1
 248 0 l 1
EndSplineSet
EndChar

StartChar: Ycircumflex
Encoding: 374 374 124
Width: 564
GlyphClass: 2
Flags: MW
HStem: 0 21G<248 248 248 316> 690 20G<-5 76 76 76 488 569 569 569> 782 130<158 318 158 318 248 351 248 407>
VStem: 248 68<0 290 0 290>
AnchorPoint: "Anchor-3" 282 710 basechar 0
AnchorPoint: "Anchor-0" 282 0 basechar 0
LayerCount: 2
Fore
SplineSet
158 782 m 1
 248 912 l 1
 318 912 l 1
 407 782 l 1
 351 782 l 1
 283 875 l 1
 214 782 l 1
 158 782 l 1
248 0 m 1
 248 290 l 1
 -5 710 l 1
 76 710 l 1
 282 359 l 1
 488 710 l 1
 569 710 l 1
 316 290 l 1
 316 0 l 1
 248 0 l 1
EndSplineSet
EndChar

StartChar: Ydieresis
Encoding: 376 376 125
Width: 564
GlyphClass: 2
Flags: MW
HStem: 0 21G<248 248 248 316> 690 20G<-5 76 76 76 488 569 569 569> 798 89<168 238 168 238 327 397>
VStem: 168 70<798 887 798 887> 248 68<0 290 0 290> 327 70<798 887 798 887>
AnchorPoint: "Anchor-3" 282 710 basechar 0
AnchorPoint: "Anchor-0" 282 0 basechar 0
LayerCount: 2
Fore
SplineSet
168 798 m 1
 168 887 l 1
 238 887 l 1
 238 798 l 1
 168 798 l 1
327 798 m 1
 327 887 l 1
 397 887 l 1
 397 798 l 1
 327 798 l 1
248 0 m 1xe8
 248 290 l 1
 -5 710 l 1
 76 710 l 1
 282 359 l 1
 488 710 l 1
 569 710 l 1
 316 290 l 1
 316 0 l 1
 248 0 l 1xe8
EndSplineSet
Substitution2: "'ss08' Style Set 8 in Latin lookup 41 subtable" Ydieresis.ss08
Substitution2: "'aalt' Access All Alternates in Latin lookup 0 subtable" Ydieresis.ss08
EndChar

StartChar: Ygrave
Encoding: 7922 7922 126
Width: 564
GlyphClass: 2
Flags: MW
HStem: 0 21G<248 248 248 316> 690 20G<-5 76 76 76 488 569 569 569> 788 124<171 257 171 313>
VStem: 248 68<0 290 0 290>
AnchorPoint: "Anchor-3" 282 710 basechar 0
AnchorPoint: "Anchor-0" 282 0 basechar 0
LayerCount: 2
Fore
SplineSet
257 788 m 1
 171 912 l 1
 245 912 l 1
 313 788 l 1
 257 788 l 1
248 0 m 1
 248 290 l 1
 -5 710 l 1
 76 710 l 1
 282 359 l 1
 488 710 l 1
 569 710 l 1
 316 290 l 1
 316 0 l 1
 248 0 l 1
EndSplineSet
EndChar

StartChar: uni1EF8
Encoding: 7928 7928 127
Width: 564
GlyphClass: 2
Flags: MW
HStem: 0 21G<248 248 248 316> 690 20G<-5 76 76 76 488 569 569 569> 797 45<335 355.5 335 366> 853 45<206 230>
VStem: 131 43<790 790> 248 68<0 290 0 290> 385 44<908 908>
AnchorPoint: "Anchor-3" 282 710 basechar 0
AnchorPoint: "Anchor-0" 282 0 basechar 0
LayerCount: 2
Fore
SplineSet
340 797 m 0
 313 797 293 807 272 826 c 0
 251 845 241 853 219 853 c 0
 193 853 176 837 174 790 c 1
 131 790 l 1
 133 860 169 898 219 898 c 0xde
 251 898 272 886 294 866 c 0
 314 849 327 842 343 842 c 0
 368 842 381 858 385 908 c 1
 429 908 l 1
 425 838 392 797 340 797 c 0
248 0 m 1
 248 290 l 1
 -5 710 l 1
 76 710 l 1
 282 359 l 1
 488 710 l 1
 569 710 l 1
 316 290 l 1
 316 0 l 1
 248 0 l 1
EndSplineSet
EndChar

StartChar: Z
Encoding: 90 90 128
Width: 537
GlyphClass: 2
Flags: MW
HStem: 0 66<106 508 106 508> 644 66<42 421 42 498>
VStem: 29 479<0 66 0 69 0 69>
AnchorPoint: "Anchor-3" 275 710 basechar 0
AnchorPoint: "Anchor-0" 275 0 basechar 0
LayerCount: 2
Fore
SplineSet
29 0 m 1
 29 69 l 1
 421 644 l 1
 42 644 l 1
 42 710 l 1
 498 710 l 1
 498 641 l 1
 106 66 l 1
 508 66 l 1
 508 0 l 1
 29 0 l 1
EndSplineSet
EndChar

StartChar: Zacute
Encoding: 377 377 129
Width: 537
GlyphClass: 2
Flags: MW
HStem: 0 66<106 508 106 508> 644 66<42 421 42 498> 782 124<246 388 246 388>
VStem: 29 479<0 66 0 69 0 69>
AnchorPoint: "Anchor-3" 275 710 basechar 0
AnchorPoint: "Anchor-0" 275 0 basechar 0
LayerCount: 2
Fore
SplineSet
246 782 m 1
 314 906 l 1
 388 906 l 1
 301 782 l 1
 246 782 l 1
29 0 m 1
 29 69 l 1
 421 644 l 1
 42 644 l 1
 42 710 l 1
 498 710 l 1
 498 641 l 1
 106 66 l 1
 508 66 l 1
 508 0 l 1
 29 0 l 1
EndSplineSet
EndChar

StartChar: Zcaron
Encoding: 381 381 130
Width: 537
GlyphClass: 2
Flags: MW
HStem: 0 66<106 508 106 508> 644 66<42 421 42 498> 782 130<151 310 151 240>
VStem: 29 479<0 66 0 69 0 69>
AnchorPoint: "Anchor-3" 275 710 basechar 0
AnchorPoint: "Anchor-0" 275 0 basechar 0
LayerCount: 2
Fore
SplineSet
151 912 m 1
 207 912 l 1
 275 819 l 1
 344 912 l 1
 400 912 l 1
 310 782 l 1
 240 782 l 1
 151 912 l 1
29 0 m 1
 29 69 l 1
 421 644 l 1
 42 644 l 1
 42 710 l 1
 498 710 l 1
 498 641 l 1
 106 66 l 1
 508 66 l 1
 508 0 l 1
 29 0 l 1
EndSplineSet
EndChar

StartChar: Zdotaccent
Encoding: 379 379 131
Width: 537
GlyphClass: 2
Flags: MW
HStem: 0 66<106 508 106 508> 644 66<42 421 42 498> 798 89<240 310 240 310>
VStem: 240 70<798 887 798 887>
AnchorPoint: "Anchor-3" 275 710 basechar 0
AnchorPoint: "Anchor-0" 275 0 basechar 0
LayerCount: 2
Fore
SplineSet
240 798 m 1
 240 887 l 1
 310 887 l 1
 310 798 l 1
 240 798 l 1
29 0 m 1
 29 69 l 1
 421 644 l 1
 42 644 l 1
 42 710 l 1
 498 710 l 1
 498 641 l 1
 106 66 l 1
 508 66 l 1
 508 0 l 1
 29 0 l 1
EndSplineSet
Substitution2: "'ss08' Style Set 8 in Latin lookup 41 subtable" Zdotaccent.ss08
Substitution2: "'aalt' Access All Alternates in Latin lookup 0 subtable" Zdotaccent.ss08
EndChar

StartChar: uniA78B
Encoding: 42891 42891 132
Width: 162
GlyphClass: 1
Flags: MW
HStem: 690 20G<47 115 115 115>
VStem: 47 68<610 710 610 710>
LayerCount: 2
Fore
SplineSet
56 357 m 1
 47 610 l 1
 47 710 l 1
 115 710 l 1
 115 610 l 1
 106 357 l 1
 56 357 l 1
EndSplineSet
EndChar

StartChar: uni013B.loclMAH
Encoding: 65538 -1 133
Width: 570
GlyphClass: 2
Flags: MW
HStem: -127 76<268 300 268 351> 0 66<161 525 161 525> 690 20G<93 161 161 161>
VStem: 93 68<66 710 66 710 66 710> 268 83<-120 -51 -120 -51 -120 -51>
AnchorPoint: "Anchor-4" 367 530 basechar 0
AnchorPoint: "Anchor-3" 127 710 basechar 0
AnchorPoint: "Anchor-1" 163 380 basechar 0
AnchorPoint: "Anchor-0" 310 -216 basechar 0
LayerCount: 2
Fore
SplineSet
93 0 m 1
 93 710 l 1
 161 710 l 1
 161 66 l 1
 525 66 l 1
 525 0 l 1
 93 0 l 1
251 -216 m 1
 300 -127 l 1
 268 -127 l 1
 268 -51 l 1
 351 -51 l 1
 351 -120 l 1
 297 -216 l 1
 251 -216 l 1
EndSplineSet
EndChar

StartChar: uni0145.loclMAH
Encoding: 65539 -1 134
Width: 732
GlyphClass: 2
Flags: MW
HStem: -127 76<324 356 324 407> 0 67<538 571 571 571 571 639> 635 75<161 161>
VStem: 93 68<0 635 0 710> 324 83<-120 -51 -120 -51 -120 -51> 571 68<67 710 0 710>
AnchorPoint: "Anchor-3" 376 710 basechar 0
AnchorPoint: "Anchor-0" 365 -216 basechar 0
LayerCount: 2
Fore
SplineSet
93 0 m 1
 93 710 l 1
 190 710 l 1
 571 67 l 1
 571 710 l 1
 639 710 l 1
 639 0 l 1
 538 0 l 1
 161 635 l 1
 161 0 l 1
 93 0 l 1
307 -216 m 1
 356 -127 l 1
 324 -127 l 1
 324 -51 l 1
 407 -51 l 1
 407 -120 l 1
 353 -216 l 1
 307 -216 l 1
EndSplineSet
EndChar

StartChar: R.ss04
Encoding: 65540 -1 135
Width: 661
GlyphClass: 2
Flags: MW
HStem: 0 21G<93 93 93 161 527 527 527 602> 294 66<161 342 161 342> 644 66<161 342 161 161>
VStem: 93 68<0 294 360 644> 518 72<455 546>
AnchorPoint: "Anchor-3" 327 710 basechar 0
AnchorPoint: "Anchor-0" 327 0 basechar 0
LayerCount: 2
Fore
SplineSet
93 0 m 1
 93 710 l 1
 342 710 l 2
 497 710 590 630 590 498 c 0
 590 398 531 328 428 304 c 1
 602 0 l 1
 527 0 l 1
 359 295 l 1
 353 294 348 294 342 294 c 2
 161 294 l 1
 161 0 l 1
 93 0 l 1
161 360 m 1
 342 360 l 2
 456 360 518 410 518 500 c 0
 518 592 456 644 342 644 c 2
 161 644 l 1
 161 360 l 1
EndSplineSet
EndChar

StartChar: Racute.ss04
Encoding: 65541 -1 136
Width: 661
GlyphClass: 2
Flags: MW
HStem: 0 21G<93 93 93 161 527 527 527 602> 294 66<161 342 161 342> 644 66<161 342 161 161> 782 124<298 440 298 440>
VStem: 93 68<0 294 360 644> 518 72<455 546>
AnchorPoint: "Anchor-3" 327 710 basechar 0
AnchorPoint: "Anchor-0" 327 0 basechar 0
LayerCount: 2
Fore
SplineSet
298 782 m 1
 366 906 l 1
 440 906 l 1
 353 782 l 1
 298 782 l 1
93 0 m 1
 93 710 l 1
 342 710 l 2
 497 710 590 630 590 498 c 0
 590 398 531 328 428 304 c 1
 602 0 l 1
 527 0 l 1
 359 295 l 1
 353 294 348 294 342 294 c 2
 161 294 l 1
 161 0 l 1
 93 0 l 1
161 360 m 1
 342 360 l 2
 456 360 518 410 518 500 c 0
 518 592 456 644 342 644 c 2
 161 644 l 1
 161 360 l 1
EndSplineSet
EndChar

StartChar: Rcaron.ss04
Encoding: 65542 -1 137
Width: 661
GlyphClass: 2
Flags: MW
HStem: 0 21G<93 93 93 161 527 527 527 602> 294 66<161 342 161 342> 644 66<161 342 161 161> 782 130<203 362 203 292>
VStem: 93 68<0 294 360 644> 518 72<455 546>
AnchorPoint: "Anchor-3" 327 710 basechar 0
AnchorPoint: "Anchor-0" 327 0 basechar 0
LayerCount: 2
Fore
SplineSet
203 912 m 1
 259 912 l 1
 327 819 l 1
 396 912 l 1
 452 912 l 1
 362 782 l 1
 292 782 l 1
 203 912 l 1
93 0 m 1
 93 710 l 1
 342 710 l 2
 497 710 590 630 590 498 c 0
 590 398 531 328 428 304 c 1
 602 0 l 1
 527 0 l 1
 359 295 l 1
 353 294 348 294 342 294 c 2
 161 294 l 1
 161 0 l 1
 93 0 l 1
161 360 m 1
 342 360 l 2
 456 360 518 410 518 500 c 0
 518 592 456 644 342 644 c 2
 161 644 l 1
 161 360 l 1
EndSplineSet
EndChar

StartChar: uni0156.ss04
Encoding: 65543 -1 138
Width: 661
GlyphClass: 2
Flags: MW
HStem: -127 76<286 318 286 369> 0 21G<93 93 93 161 527 527 527 602> 294 66<161 342 161 342> 644 66<161 342 161 161>
VStem: 93 68<0 294 360 644> 286 83<-120 -51 -120 -51 -120 -51> 518 72<455 546>
AnchorPoint: "Anchor-3" 327 710 basechar 0
AnchorPoint: "Anchor-0" 327 -216 basechar 0
LayerCount: 2
Fore
SplineSet
93 0 m 1
 93 710 l 1
 342 710 l 2
 497 710 590 630 590 498 c 0
 590 398 531 328 428 304 c 1
 602 0 l 1
 527 0 l 1
 359 295 l 1
 353 294 348 294 342 294 c 2
 161 294 l 1
 161 0 l 1
 93 0 l 1
161 360 m 1
 342 360 l 2
 456 360 518 410 518 500 c 0
 518 592 456 644 342 644 c 2
 161 644 l 1
 161 360 l 1
269 -216 m 1
 318 -127 l 1
 286 -127 l 1
 286 -51 l 1
 369 -51 l 1
 369 -120 l 1
 315 -216 l 1
 269 -216 l 1
EndSplineSet
EndChar

StartChar: I.ss05
Encoding: 65544 -1 139
Width: 391
GlyphClass: 2
Flags: MW
HStem: 0 66<47 161 47 161 229 344> 644 66<53 161 53 338 229 229 229 338>
VStem: 47 182<0 644 66 644> 53 176<66 710 66 710> 161 68<66 644 66 644> 161 177<66 710 644 710> 161 183<0 644>
AnchorPoint: "Anchor-3" 195 710 basechar 0
AnchorPoint: "Anchor-2" 344 0 basechar 0
AnchorPoint: "Anchor-0" 195 0 basechar 0
LayerCount: 2
Fore
SplineSet
47 0 m 1xe0
 47 66 l 1xe0
 161 66 l 1
 161 644 l 1xc8
 53 644 l 1
 53 710 l 1xd0
 338 710 l 1
 338 644 l 1xc4
 229 644 l 1
 229 66 l 1xc8
 344 66 l 1
 344 0 l 1xc2
 47 0 l 1xe0
EndSplineSet
EndChar

StartChar: Iacute.ss05
Encoding: 65545 -1 140
Width: 391
GlyphClass: 2
Flags: MW
HStem: 0 66<47 161 47 161 229 344> 644 66<53 161 53 338 229 229 229 338> 782 124<166 308 166 308>
VStem: 47 182<0 644 66 644> 53 176<66 710 66 710> 161 68<66 644 66 644> 161 177<66 710 644 710> 161 183<0 644>
AnchorPoint: "Anchor-3" 195 710 basechar 0
AnchorPoint: "Anchor-2" 344 0 basechar 0
AnchorPoint: "Anchor-0" 195 0 basechar 0
LayerCount: 2
Fore
SplineSet
166 782 m 1xf0
 234 906 l 1
 308 906 l 1
 221 782 l 1
 166 782 l 1xf0
47 0 m 1
 47 66 l 1xd0
 161 66 l 1
 161 644 l 1xc4
 53 644 l 1
 53 710 l 1xc8
 338 710 l 1
 338 644 l 1xc2
 229 644 l 1
 229 66 l 1xc4
 344 66 l 1
 344 0 l 1xc1
 47 0 l 1
EndSplineSet
EndChar

StartChar: Icircumflex.ss05
Encoding: 65546 -1 141
Width: 391
GlyphClass: 2
Flags: MW
HStem: 0 66<47 161 47 161 229 344> 644 66<53 161 53 338 229 229 229 338> 782 130<71 231 71 231 161 264 161 320>
VStem: 47 182<0 644 66 644> 53 176<66 710 66 710> 161 68<66 644 66 644> 161 177<66 710 644 710> 161 183<0 644>
AnchorPoint: "Anchor-3" 195 710 basechar 0
AnchorPoint: "Anchor-2" 344 0 basechar 0
AnchorPoint: "Anchor-0" 195 0 basechar 0
LayerCount: 2
Fore
SplineSet
71 782 m 1xf0
 161 912 l 1
 231 912 l 1
 320 782 l 1
 264 782 l 1
 196 875 l 1
 127 782 l 1
 71 782 l 1xf0
47 0 m 1
 47 66 l 1xd0
 161 66 l 1
 161 644 l 1xc4
 53 644 l 1
 53 710 l 1xc8
 338 710 l 1
 338 644 l 1xc2
 229 644 l 1
 229 66 l 1xc4
 344 66 l 1
 344 0 l 1xc1
 47 0 l 1
EndSplineSet
EndChar

StartChar: Idieresis.ss05
Encoding: 65547 -1 142
Width: 391
GlyphClass: 2
Flags: MW
HStem: 0 66<47 161 47 161 229 344> 644 66<53 161 53 338 229 229 229 338> 798 89<81 151 81 151 240 310>
VStem: 47 182<0 644 66 644> 53 176<66 710 66 710> 81 70<798 887 798 887> 161 68<66 644 66 644> 161 177<66 710 644 710> 161 183<0 644> 240 70<798 887 798 887>
AnchorPoint: "Anchor-3" 195 710 basechar 0
AnchorPoint: "Anchor-2" 344 0 basechar 0
AnchorPoint: "Anchor-0" 195 0 basechar 0
LayerCount: 2
Fore
SplineSet
81 798 m 1xe440
 81 887 l 1
 151 887 l 1
 151 798 l 1
 81 798 l 1xe440
240 798 m 1
 240 887 l 1
 310 887 l 1
 310 798 l 1
 240 798 l 1
47 0 m 1xf0
 47 66 l 1xf0
 161 66 l 1
 161 644 l 1xe2
 53 644 l 1
 53 710 l 1xe8
 338 710 l 1
 338 644 l 1xe1
 229 644 l 1
 229 66 l 1xe2
 344 66 l 1
 344 0 l 1xe080
 47 0 l 1xf0
EndSplineSet
Substitution2: "'ss08' Style Set 8 in Latin lookup 41 subtable" Idieresis.ss05.ss08
Substitution2: "'aalt' Access All Alternates in Latin lookup 0 subtable" Idieresis.ss05.ss08
EndChar

StartChar: Idotaccent.ss05
Encoding: 65548 -1 143
Width: 391
GlyphClass: 2
Flags: MW
HStem: 0 66<47 161 47 161 229 344> 644 66<53 161 53 338 229 229 229 338> 798 89<160 230 160 230>
VStem: 47 182<0 644 66 644> 53 176<66 710 66 710> 160 70<798 887 798 887> 161 68<66 644 66 644> 161 177<66 710 644 710> 161 183<0 644>
AnchorPoint: "Anchor-3" 195 710 basechar 0
AnchorPoint: "Anchor-2" 344 0 basechar 0
AnchorPoint: "Anchor-0" 195 0 basechar 0
LayerCount: 2
Fore
SplineSet
160 798 m 1xe4
 160 887 l 1
 230 887 l 1
 230 798 l 1
 160 798 l 1xe4
47 0 m 1xf0
 47 66 l 1xf0
 161 66 l 1
 161 644 l 1xe2
 53 644 l 1
 53 710 l 1xe8
 338 710 l 1
 338 644 l 1xe1
 229 644 l 1
 229 66 l 1xe2
 344 66 l 1
 344 0 l 1xe080
 47 0 l 1xf0
EndSplineSet
Substitution2: "'ss08' Style Set 8 in Latin lookup 41 subtable" Idotaccent.ss05.ss08
Substitution2: "'aalt' Access All Alternates in Latin lookup 0 subtable" Idotaccent.ss05.ss08
EndChar

StartChar: Igrave.ss05
Encoding: 65549 -1 144
Width: 391
GlyphClass: 2
Flags: MW
HStem: 0 66<47 161 47 161 229 344> 644 66<53 161 53 338 229 229 229 338> 788 124<84 170 84 226>
VStem: 47 182<0 644 66 644> 53 176<66 710 66 710> 161 68<66 644 66 644> 161 177<66 710 644 710> 161 183<0 644>
AnchorPoint: "Anchor-3" 195 710 basechar 0
AnchorPoint: "Anchor-2" 344 0 basechar 0
AnchorPoint: "Anchor-0" 195 0 basechar 0
LayerCount: 2
Fore
SplineSet
170 788 m 1xf0
 84 912 l 1
 158 912 l 1
 226 788 l 1
 170 788 l 1xf0
47 0 m 1
 47 66 l 1xd0
 161 66 l 1
 161 644 l 1xc4
 53 644 l 1
 53 710 l 1xc8
 338 710 l 1
 338 644 l 1xc2
 229 644 l 1
 229 66 l 1xc4
 344 66 l 1
 344 0 l 1xc1
 47 0 l 1
EndSplineSet
EndChar

StartChar: Imacron.ss05
Encoding: 65550 -1 145
Width: 391
GlyphClass: 2
Flags: MW
HStem: 0 66<47 161 47 161 229 344> 644 66<53 161 53 338 229 229 229 338> 811 58<65 326 65 326>
VStem: 47 182<0 644 66 644> 53 176<66 710 66 710> 65 261<811 869 811 869> 161 68<66 644 66 644> 161 177<66 710 644 710> 161 183<0 644>
AnchorPoint: "Anchor-3" 195 710 basechar 0
AnchorPoint: "Anchor-2" 344 0 basechar 0
AnchorPoint: "Anchor-0" 195 0 basechar 0
LayerCount: 2
Fore
SplineSet
65 811 m 1xe4
 65 869 l 1
 326 869 l 1
 326 811 l 1
 65 811 l 1xe4
47 0 m 1xf0
 47 66 l 1xf0
 161 66 l 1
 161 644 l 1xe2
 53 644 l 1
 53 710 l 1xe8
 338 710 l 1
 338 644 l 1xe1
 229 644 l 1
 229 66 l 1xe2
 344 66 l 1
 344 0 l 1xe080
 47 0 l 1xf0
EndSplineSet
EndChar

StartChar: Iogonek.ss05
Encoding: 65551 -1 146
Width: 391
GlyphClass: 2
Flags: MW
HStem: -204 54<303.5 319> 0 66<47 161 47 161 229 289> 644 66<53 161 53 338 229 229 229 338>
VStem: 47 182<0 644 66 644> 53 176<66 710 66 710> 161 68<66 644 66 644> 161 177<66 710 644 710> 161 183<0 644> 218 62<-131 -119>
AnchorPoint: "Anchor-3" 195 710 basechar 0
AnchorPoint: "Anchor-2" 344 0 basechar 0
AnchorPoint: "Anchor-0" 195 0 basechar 0
LayerCount: 2
Fore
SplineSet
47 0 m 1x70
 47 66 l 1x70
 161 66 l 1
 161 644 l 1x64
 53 644 l 1
 53 710 l 1x68
 338 710 l 1
 338 644 l 1x62
 229 644 l 1
 229 66 l 1x64
 344 66 l 1
 344 0 l 1x61
 312 -45 l 2
 289 -79 280 -99 280 -121 c 0
 280 -141 294 -150 313 -150 c 0
 332 -150 348 -145 361 -136 c 1
 382 -180 l 1
 366 -194 335 -204 303 -204 c 0
 253 -204 218 -183 218 -137 c 0xe080
 218 -101 245 -61 272 -23 c 2
 289 0 l 1
 47 0 l 1x70
EndSplineSet
EndChar

StartChar: Itilde.ss05
Encoding: 65552 -1 147
Width: 391
GlyphClass: 2
Flags: MW
HStem: 0 66<47 161 47 161 229 344> 644 66<53 161 53 338 229 229 229 338> 797 45<248 268.5 248 279> 853 45<119 143>
VStem: 44 43<790 790> 47 182<0 644 66 644> 53 176<66 710 66 710> 161 68<66 644 66 644> 161 177<66 710 644 710> 161 183<0 644> 298 44<908 908>
AnchorPoint: "Anchor-3" 195 710 basechar 0
AnchorPoint: "Anchor-2" 344 0 basechar 0
AnchorPoint: "Anchor-0" 195 0 basechar 0
LayerCount: 2
Fore
SplineSet
253 797 m 0xe920
 226 797 206 807 185 826 c 0
 164 845 154 853 132 853 c 0
 106 853 89 837 87 790 c 1
 44 790 l 1
 46 860 82 898 132 898 c 0xd920
 164 898 185 886 207 866 c 0
 227 849 240 842 256 842 c 0
 281 842 294 858 298 908 c 1
 342 908 l 1
 338 838 305 797 253 797 c 0xe920
47 0 m 1xd420
 47 66 l 1xd420
 161 66 l 1
 161 644 l 1xd920
 53 644 l 1
 53 710 l 1xd220
 338 710 l 1
 338 644 l 1xd880
 229 644 l 1
 229 66 l 1xd920
 344 66 l 1
 344 0 l 1xd840
 47 0 l 1xd420
EndSplineSet
EndChar

StartChar: G.ss06
Encoding: 65553 -1 148
Width: 682
GlyphClass: 2
Flags: MW
HStem: -16 67<276.5 426.5 276.5 447> 285 64<362 576 362 640> 659 67<279.5 422.5>
VStem: 47 71<265 442 265 462.5> 576 64<285 285>
AnchorPoint: "Anchor-3" 361 710 basechar 0
AnchorPoint: "Anchor-0" 361 0 basechar 0
LayerCount: 2
Fore
SplineSet
356 -16 m 0
 158 -16 47 140 47 354 c 0
 47 571 163 726 362 726 c 0
 515 726 609 634 638 488 c 1
 567 483 l 1
 547 589 483 659 362 659 c 0
 197 659 118 530 118 354 c 0
 118 176 197 51 356 51 c 0
 497 51 573 151 576 285 c 1
 362 285 l 1
 362 349 l 1
 640 349 l 1
 640 312 l 2
 640 109 538 -16 356 -16 c 0
EndSplineSet
EndChar

StartChar: Gbreve.ss06
Encoding: 65554 -1 149
Width: 682
GlyphClass: 2
Flags: MW
HStem: -16 67<276.5 426.5 276.5 447> 285 64<362 576 362 640> 659 67<279.5 422.5> 788 51<337 385 337 400>
VStem: 47 71<265 442 265 462.5> 576 64<285 285>
AnchorPoint: "Anchor-3" 361 710 basechar 0
AnchorPoint: "Anchor-0" 361 0 basechar 0
LayerCount: 2
Fore
SplineSet
361 788 m 0
 283 788 232 837 226 912 c 1
 274 912 l 1
 280 862 313 839 361 839 c 0
 409 839 441 862 448 912 c 1
 495 912 l 1
 489 837 439 788 361 788 c 0
356 -16 m 0
 158 -16 47 140 47 354 c 0
 47 571 163 726 362 726 c 0
 515 726 609 634 638 488 c 1
 567 483 l 1
 547 589 483 659 362 659 c 0
 197 659 118 530 118 354 c 0
 118 176 197 51 356 51 c 0
 497 51 573 151 576 285 c 1
 362 285 l 1
 362 349 l 1
 640 349 l 1
 640 312 l 2
 640 109 538 -16 356 -16 c 0
EndSplineSet
EndChar

StartChar: Gcircumflex.ss06
Encoding: 65555 -1 150
Width: 682
GlyphClass: 2
Flags: MW
HStem: -16 67<276.5 426.5 276.5 447> 285 64<362 576 362 640> 659 67<279.5 422.5> 782 130<237 396 237 396 326 430 326 486>
VStem: 47 71<265 442 265 462.5> 576 64<285 285>
AnchorPoint: "Anchor-3" 361 710 basechar 0
AnchorPoint: "Anchor-0" 361 0 basechar 0
LayerCount: 2
Fore
SplineSet
237 782 m 1
 326 912 l 1
 396 912 l 1
 486 782 l 1
 430 782 l 1
 361 875 l 1
 293 782 l 1
 237 782 l 1
356 -16 m 0
 158 -16 47 140 47 354 c 0
 47 571 163 726 362 726 c 0
 515 726 609 634 638 488 c 1
 567 483 l 1
 547 589 483 659 362 659 c 0
 197 659 118 530 118 354 c 0
 118 176 197 51 356 51 c 0
 497 51 573 151 576 285 c 1
 362 285 l 1
 362 349 l 1
 640 349 l 1
 640 312 l 2
 640 109 538 -16 356 -16 c 0
EndSplineSet
EndChar

StartChar: uni0122.ss06
Encoding: 65556 -1 151
Width: 682
GlyphClass: 2
Flags: MW
HStem: -127 76<320 352 320 403> -16 67<276.5 426.5 276.5 447> 285 64<362 576 362 640> 659 67<279.5 422.5>
VStem: 47 71<265 442 265 462.5> 320 83<-120 -51 -120 -51 -120 -51> 576 64<285 285>
AnchorPoint: "Anchor-3" 361 710 basechar 0
AnchorPoint: "Anchor-0" 361 -216 basechar 0
LayerCount: 2
Fore
SplineSet
356 -16 m 0
 158 -16 47 140 47 354 c 0
 47 571 163 726 362 726 c 0
 515 726 609 634 638 488 c 1
 567 483 l 1
 547 589 483 659 362 659 c 0
 197 659 118 530 118 354 c 0
 118 176 197 51 356 51 c 0
 497 51 573 151 576 285 c 1
 362 285 l 1
 362 349 l 1
 640 349 l 1
 640 312 l 2
 640 109 538 -16 356 -16 c 0
303 -216 m 1
 352 -127 l 1
 320 -127 l 1
 320 -51 l 1
 403 -51 l 1
 403 -120 l 1
 349 -216 l 1
 303 -216 l 1
EndSplineSet
EndChar

StartChar: Gdotaccent.ss06
Encoding: 65557 -1 152
Width: 682
GlyphClass: 2
Flags: MW
HStem: -16 67<276.5 426.5 276.5 447> 285 64<362 576 362 640> 659 67<279.5 422.5> 798 89<326 396 326 396>
VStem: 47 71<265 442 265 462.5> 326 70<798 887 798 887> 576 64<285 285>
AnchorPoint: "Anchor-3" 361 710 basechar 0
AnchorPoint: "Anchor-0" 361 0 basechar 0
LayerCount: 2
Fore
SplineSet
326 798 m 1
 326 887 l 1
 396 887 l 1
 396 798 l 1
 326 798 l 1
356 -16 m 0
 158 -16 47 140 47 354 c 0
 47 571 163 726 362 726 c 0
 515 726 609 634 638 488 c 1
 567 483 l 1
 547 589 483 659 362 659 c 0
 197 659 118 530 118 354 c 0
 118 176 197 51 356 51 c 0
 497 51 573 151 576 285 c 1
 362 285 l 1
 362 349 l 1
 640 349 l 1
 640 312 l 2
 640 109 538 -16 356 -16 c 0
EndSplineSet
Substitution2: "'ss08' Style Set 8 in Latin lookup 41 subtable" Gdotaccent.ss06.ss08
Substitution2: "'aalt' Access All Alternates in Latin lookup 0 subtable" Gdotaccent.ss06.ss08
EndChar

StartChar: uni1E20.ss06
Encoding: 65558 -1 153
Width: 682
GlyphClass: 2
Flags: MW
HStem: -16 67<276.5 426.5 276.5 447> 285 64<362 576 362 640> 659 67<279.5 422.5> 811 58<230 492 230 492>
VStem: 47 71<265 442 265 462.5> 230 262<811 869 811 869> 576 64<285 285>
AnchorPoint: "Anchor-3" 361 710 basechar 0
AnchorPoint: "Anchor-0" 361 0 basechar 0
LayerCount: 2
Fore
SplineSet
230 811 m 1
 230 869 l 1
 492 869 l 1
 492 811 l 1
 230 811 l 1
356 -16 m 0
 158 -16 47 140 47 354 c 0
 47 571 163 726 362 726 c 0
 515 726 609 634 638 488 c 1
 567 483 l 1
 547 589 483 659 362 659 c 0
 197 659 118 530 118 354 c 0
 118 176 197 51 356 51 c 0
 497 51 573 151 576 285 c 1
 362 285 l 1
 362 349 l 1
 640 349 l 1
 640 312 l 2
 640 109 538 -16 356 -16 c 0
EndSplineSet
EndChar

StartChar: Adieresis.ss08
Encoding: 65559 -1 154
Width: 649
GlyphClass: 2
Flags: MW
HStem: 0 21G<21 21 21 95 554 554 554 628> 213 66<194 455 194 478 171 455> 649 61<325 325> 798 85<226.5 249.5 399.5 423>
VStem: 197 82<827.5 853.5> 371 81<827.5 853.5>
AnchorPoint: "Anchor-3" 325 710 basechar 0
AnchorPoint: "Anchor-2" 628 0 basechar 0
AnchorPoint: "Anchor-0" 325 0 basechar 0
LayerCount: 2
Fore
SplineSet
238 798 m 0
 215 798 197 814 197 841 c 0
 197 866 215 883 238 883 c 0
 261 883 279 866 279 841 c 0
 279 814 261 798 238 798 c 0
411 798 m 0
 388 798 371 814 371 841 c 0
 371 866 388 883 411 883 c 0
 435 883 452 866 452 841 c 0
 452 814 435 798 411 798 c 0
21 0 m 1
 280 710 l 1
 370 710 l 1
 628 0 l 1
 554 0 l 1
 478 213 l 1
 171 213 l 1
 95 0 l 1
 21 0 l 1
194 279 m 1
 455 279 l 1
 325 649 l 1
 194 279 l 1
EndSplineSet
EndChar

StartChar: Cdotaccent.ss08
Encoding: 65560 -1 155
Width: 694
GlyphClass: 2
Flags: MW
HStem: -16 67<286.5 424 286.5 442> 659 67<286.5 421> 798 85<346.5 369.5>
VStem: 47 71<259 449 259 469> 317 82<827.5 853.5>
AnchorPoint: "Anchor-3" 357 710 basechar 0
AnchorPoint: "Anchor-0" 360 0 basechar 0
LayerCount: 2
Fore
SplineSet
358 798 m 0
 335 798 317 814 317 841 c 0
 317 866 335 883 358 883 c 0
 381 883 399 866 399 841 c 0
 399 814 381 798 358 798 c 0
359 -16 m 0
 171 -16 47 124 47 354 c 0
 47 584 171 726 359 726 c 0
 525 726 617 631 646 483 c 1
 574 478 l 1
 554 589 483 659 359 659 c 0
 214 659 118 544 118 354 c 0
 118 164 214 51 359 51 c 0
 489 51 562 126 580 248 c 1
 652 243 l 1
 627 87 525 -16 359 -16 c 0
EndSplineSet
EndChar

StartChar: Edieresis.ss08
Encoding: 65561 -1 156
Width: 593
GlyphClass: 2
Flags: MW
HStem: 0 66<161 538 161 538> 323 65<161 518 161 518> 644 66<161 530 161 161> 798 85<215 238.5 388.5 411.5>
VStem: 93 68<66 323 388 644> 186 81<827.5 853.5> 359 82<827.5 853.5>
AnchorPoint: "Anchor-3" 313 710 basechar 0
AnchorPoint: "Anchor-2" 538 0 basechar 0
AnchorPoint: "Anchor-0" 315 0 basechar 0
LayerCount: 2
Fore
SplineSet
227 798 m 0
 203 798 186 814 186 841 c 0
 186 866 203 883 227 883 c 0
 250 883 267 866 267 841 c 0
 267 814 250 798 227 798 c 0
400 798 m 0
 377 798 359 814 359 841 c 0
 359 866 377 883 400 883 c 0
 423 883 441 866 441 841 c 0
 441 814 423 798 400 798 c 0
93 0 m 1xe8
 93 710 l 1
 530 710 l 1
 530 644 l 1
 161 644 l 1
 161 388 l 1
 518 388 l 1
 518 323 l 1
 161 323 l 1
 161 66 l 1
 538 66 l 1
 538 0 l 1
 93 0 l 1xe8
EndSplineSet
EndChar

StartChar: Edotaccent.ss08
Encoding: 65562 -1 157
Width: 593
GlyphClass: 2
Flags: MW
HStem: 0 66<161 538 161 538> 323 65<161 518 161 518> 644 66<161 530 161 161> 798 85<302.5 325.5>
VStem: 93 68<66 323 388 644> 273 82<827.5 853.5>
AnchorPoint: "Anchor-3" 313 710 basechar 0
AnchorPoint: "Anchor-2" 538 0 basechar 0
AnchorPoint: "Anchor-0" 315 0 basechar 0
LayerCount: 2
Fore
SplineSet
314 798 m 0
 291 798 273 814 273 841 c 0
 273 866 291 883 314 883 c 0
 337 883 355 866 355 841 c 0
 355 814 337 798 314 798 c 0
93 0 m 1
 93 710 l 1
 530 710 l 1
 530 644 l 1
 161 644 l 1
 161 388 l 1
 518 388 l 1
 518 323 l 1
 161 323 l 1
 161 66 l 1
 538 66 l 1
 538 0 l 1
 93 0 l 1
EndSplineSet
EndChar

StartChar: Gdotaccent.ss08
Encoding: 65563 -1 158
Width: 692
GlyphClass: 2
Flags: MW
HStem: -16 67<278.5 412.5> 0 21G<588 640 588 588> 285 64<362 576 362 640> 659 67<277.5 421> 798 85<349 372.5>
VStem: 47 71<265.5 440 265.5 463> 320 81<827.5 853.5> 576 64<285 285> 586 54
AnchorPoint: "Anchor-3" 360 710 basechar 0
AnchorPoint: "Anchor-0" 362 0 basechar 0
LayerCount: 2
Fore
SplineSet
361 798 m 0xbe80
 337 798 320 814 320 841 c 0
 320 866 337 883 361 883 c 0
 384 883 401 866 401 841 c 0
 401 814 384 798 361 798 c 0xbe80
357 -16 m 0
 163 -16 47 136 47 354 c 0
 47 572 162 726 360 726 c 0
 519 726 611 630 638 488 c 1
 567 483 l 1
 546 592 482 659 360 659 c 0
 195 659 118 526 118 354 c 0
 118 177 199 51 358 51 c 0
 490 51 571 149 576 285 c 1xb5
 362 285 l 1
 362 349 l 1
 640 349 l 1
 640 0 l 1
 588 0 l 1x7480
 584 138 l 1
 552 49 468 -16 357 -16 c 0
EndSplineSet
EndChar

StartChar: Idieresis.ss08
Encoding: 65564 -1 159
Width: 255
GlyphClass: 2
Flags: MW
HStem: 0 21G<93 93 93 161> 690 20G<93 161 161 161> 798 85<29 52.5 202.5 225.5>
VStem: 0 81<827.5 853.5> 93 68<0 710 0 710> 173 82<827.5 853.5>
AnchorPoint: "Anchor-3" 127 710 basechar 0
AnchorPoint: "Anchor-2" 161 0 basechar 0
AnchorPoint: "Anchor-0" 127 0 basechar 0
LayerCount: 2
Fore
SplineSet
41 798 m 0
 17 798 0 814 0 841 c 0
 0 866 17 883 41 883 c 0
 64 883 81 866 81 841 c 0
 81 814 64 798 41 798 c 0
214 798 m 0
 191 798 173 814 173 841 c 0
 173 866 191 883 214 883 c 0
 237 883 255 866 255 841 c 0
 255 814 237 798 214 798 c 0
93 0 m 1xe8
 93 710 l 1
 161 710 l 1
 161 0 l 1
 93 0 l 1xe8
EndSplineSet
EndChar

StartChar: Idotaccent.ss08
Encoding: 65565 -1 160
Width: 255
GlyphClass: 2
Flags: MW
HStem: 0 21G<93 93 93 161> 690 20G<93 161 161 161> 798 85<116.5 139.5>
VStem: 87 82<827.5 853.5> 93 68<0 710 0 710>
AnchorPoint: "Anchor-3" 127 710 basechar 0
AnchorPoint: "Anchor-2" 161 0 basechar 0
AnchorPoint: "Anchor-0" 127 0 basechar 0
LayerCount: 2
Fore
SplineSet
128 798 m 0xf0
 105 798 87 814 87 841 c 0
 87 866 105 883 128 883 c 0
 151 883 169 866 169 841 c 0
 169 814 151 798 128 798 c 0xf0
93 0 m 1xe8
 93 710 l 1
 161 710 l 1
 161 0 l 1
 93 0 l 1xe8
EndSplineSet
EndChar

StartChar: Odieresis.ss08
Encoding: 65566 -1 161
Width: 731
GlyphClass: 2
Flags: MW
HStem: -16 67<288 442 288 464.5> 659 67<288 442> 798 85<266.5 290 440 463.5>
VStem: 47 71<259.5 449 259.5 469> 238 81<827.5 853.5> 411 81<827.5 853.5> 613 71<259.5 449>
AnchorPoint: "Anchor-3" 365 710 basechar 0
AnchorPoint: "Anchor-1" 366 355 basechar 0
AnchorPoint: "Anchor-0" 365 0 basechar 0
LayerCount: 2
Fore
SplineSet
278 798 m 0
 255 798 238 814 238 841 c 0
 238 866 255 883 278 883 c 0
 302 883 319 866 319 841 c 0
 319 814 302 798 278 798 c 0
452 798 m 0
 428 798 411 814 411 841 c 0
 411 866 428 883 452 883 c 0
 475 883 492 866 492 841 c 0
 492 814 475 798 452 798 c 0
365 -16 m 0
 167 -16 47 125 47 354 c 0
 47 584 167 726 365 726 c 0
 564 726 684 584 684 354 c 0
 684 125 564 -16 365 -16 c 0
365 51 m 0
 519 51 613 165 613 354 c 0
 613 544 519 659 365 659 c 0
 211 659 118 544 118 354 c 0
 118 165 211 51 365 51 c 0
EndSplineSet
EndChar

StartChar: Udieresis.ss08
Encoding: 65567 -1 162
Width: 680
GlyphClass: 2
Flags: MW
HStem: -16 67<278 402 278 421.5> 691 20G<78 146 146 146 534 602 602 602> 798 85<242 265.5 415.5 438.5>
VStem: 78 68<248 711> 213 81<827.5 853.5> 386 82<827.5 853.5> 534 68<248 711>
AnchorPoint: "Anchor-3" 340 710 basechar 0
AnchorPoint: "Anchor-2" 450 2 basechar 0
AnchorPoint: "Anchor-0" 340 0 basechar 0
LayerCount: 2
Fore
SplineSet
254 798 m 0
 230 798 213 814 213 841 c 0
 213 866 230 883 254 883 c 0
 277 883 294 866 294 841 c 0
 294 814 277 798 254 798 c 0
427 798 m 0
 404 798 386 814 386 841 c 0
 386 866 404 883 427 883 c 0
 450 883 468 866 468 841 c 0
 468 814 450 798 427 798 c 0
340 -16 m 0
 177 -16 78 84 78 248 c 2
 78 711 l 1
 146 711 l 1
 146 248 l 2
 146 122 216 51 340 51 c 0
 464 51 534 122 534 248 c 2
 534 711 l 1
 602 711 l 1
 602 248 l 2
 602 84 503 -16 340 -16 c 0
EndSplineSet
EndChar

StartChar: Wdieresis.ss08
Encoding: 65568 -1 163
Width: 935
GlyphClass: 2
Flags: MW
HStem: 0 90<230 273 273 273 273 318> 592 118<467 467> 798 85<368.5 392 542 565.5>
VStem: 340 81<827.5 853.5> 513 81<827.5 853.5>
AnchorPoint: "Anchor-3" 467 710 basechar 0
AnchorPoint: "Anchor-0" 467 0 basechar 0
LayerCount: 2
Fore
SplineSet
380 798 m 0
 357 798 340 814 340 841 c 0
 340 866 357 883 380 883 c 0
 404 883 421 866 421 841 c 0
 421 814 404 798 380 798 c 0
554 798 m 0
 530 798 513 814 513 841 c 0
 513 866 530 883 554 883 c 0
 577 883 594 866 594 841 c 0
 594 814 577 798 554 798 c 0
230 0 m 1
 39 710 l 1
 113 710 l 1
 273 90 l 1
 427 710 l 1
 507 710 l 1
 661 90 l 1
 821 710 l 1
 895 710 l 1
 704 0 l 1
 616 0 l 1
 467 592 l 1
 318 0 l 1
 230 0 l 1
EndSplineSet
EndChar

StartChar: Ydieresis.ss08
Encoding: 65569 -1 164
Width: 564
GlyphClass: 2
Flags: MW
HStem: 0 21G<248 248 248 316> 690 20G<-5 76 76 76 488 569 569 569> 798 85<184 207.5 357.5 380.5>
VStem: 155 81<827.5 853.5> 248 68<0 290 0 290> 328 82<827.5 853.5>
AnchorPoint: "Anchor-3" 282 710 basechar 0
AnchorPoint: "Anchor-0" 282 0 basechar 0
LayerCount: 2
Fore
SplineSet
196 798 m 0
 172 798 155 814 155 841 c 0
 155 866 172 883 196 883 c 0
 219 883 236 866 236 841 c 0
 236 814 219 798 196 798 c 0
369 798 m 0
 346 798 328 814 328 841 c 0
 328 866 346 883 369 883 c 0
 392 883 410 866 410 841 c 0
 410 814 392 798 369 798 c 0
248 0 m 1xe8
 248 290 l 1
 -5 710 l 1
 76 710 l 1
 282 359 l 1
 488 710 l 1
 569 710 l 1
 316 290 l 1
 316 0 l 1
 248 0 l 1xe8
EndSplineSet
EndChar

StartChar: Zdotaccent.ss08
Encoding: 65570 -1 165
Width: 537
GlyphClass: 2
Flags: MW
HStem: 0 66<106 508 106 508> 644 66<42 421 42 498> 798 85<264.5 287.5>
VStem: 235 82<827.5 853.5>
AnchorPoint: "Anchor-3" 275 710 basechar 0
AnchorPoint: "Anchor-0" 275 0 basechar 0
LayerCount: 2
Fore
SplineSet
276 798 m 0
 253 798 235 814 235 841 c 0
 235 866 253 883 276 883 c 0
 299 883 317 866 317 841 c 0
 317 814 299 798 276 798 c 0
29 0 m 1
 29 69 l 1
 421 644 l 1
 42 644 l 1
 42 710 l 1
 498 710 l 1
 498 641 l 1
 106 66 l 1
 508 66 l 1
 508 0 l 1
 29 0 l 1
EndSplineSet
EndChar

StartChar: Idieresis.ss05.ss08
Encoding: 65571 -1 166
Width: 391
GlyphClass: 2
Flags: MW
HStem: 0 66<47 161 47 161 229 344> 644 66<53 161 53 338 229 229 229 338> 798 85<97 120.5 270.5 293.5>
VStem: 47 182<0 644 66 644> 53 176<66 710 66 710> 68 81<827.5 853.5> 161 68<66 644 66 644> 161 177<66 710 644 710> 161 183<0 644> 241 82<827.5 853.5>
AnchorPoint: "Anchor-3" 195 710 basechar 0
AnchorPoint: "Anchor-2" 344 0 basechar 0
AnchorPoint: "Anchor-0" 195 0 basechar 0
LayerCount: 2
Fore
SplineSet
109 798 m 0xe440
 85 798 68 814 68 841 c 0
 68 866 85 883 109 883 c 0
 132 883 149 866 149 841 c 0
 149 814 132 798 109 798 c 0xe440
282 798 m 0
 259 798 241 814 241 841 c 0
 241 866 259 883 282 883 c 0
 305 883 323 866 323 841 c 0
 323 814 305 798 282 798 c 0
47 0 m 1xd0
 47 66 l 1xd0
 161 66 l 1
 161 644 l 1xc2
 53 644 l 1
 53 710 l 1xc8
 338 710 l 1
 338 644 l 1xc1
 229 644 l 1
 229 66 l 1xc2
 344 66 l 1
 344 0 l 1xc080
 47 0 l 1xd0
EndSplineSet
EndChar

StartChar: Idotaccent.ss05.ss08
Encoding: 65572 -1 167
Width: 391
GlyphClass: 2
Flags: MW
HStem: 0 66<47 161 47 161 229 344> 644 66<53 161 53 338 229 229 229 338> 798 85<184.5 207.5>
VStem: 47 182<0 644 66 644> 53 176<66 710 66 710> 155 82<827.5 853.5> 161 68<66 644 66 644> 161 177<66 710 644 710> 161 183<0 644>
AnchorPoint: "Anchor-3" 195 710 basechar 0
AnchorPoint: "Anchor-2" 344 0 basechar 0
AnchorPoint: "Anchor-0" 195 0 basechar 0
LayerCount: 2
Fore
SplineSet
196 798 m 0xe4
 173 798 155 814 155 841 c 0
 155 866 173 883 196 883 c 0
 219 883 237 866 237 841 c 0
 237 814 219 798 196 798 c 0xe4
47 0 m 1xd0
 47 66 l 1xd0
 161 66 l 1
 161 644 l 1xc2
 53 644 l 1
 53 710 l 1xc8
 338 710 l 1
 338 644 l 1xc1
 229 644 l 1
 229 66 l 1xc2
 344 66 l 1
 344 0 l 1xc080
 47 0 l 1xd0
EndSplineSet
EndChar

StartChar: Gdotaccent.ss06.ss08
Encoding: 65573 -1 168
Width: 682
GlyphClass: 2
Flags: MW
HStem: -16 67<276.5 426.5 276.5 447> 285 64<362 576 362 640> 659 67<279.5 422.5> 798 85<350 373.5>
VStem: 47 71<265 442 265 462.5> 321 81<827.5 853.5> 576 64<285 285>
AnchorPoint: "Anchor-3" 361 710 basechar 0
AnchorPoint: "Anchor-0" 361 0 basechar 0
LayerCount: 2
Fore
SplineSet
362 798 m 0
 338 798 321 814 321 841 c 0
 321 866 338 883 362 883 c 0
 385 883 402 866 402 841 c 0
 402 814 385 798 362 798 c 0
356 -16 m 0
 158 -16 47 140 47 354 c 0
 47 571 163 726 362 726 c 0
 515 726 609 634 638 488 c 1
 567 483 l 1
 547 589 483 659 362 659 c 0
 197 659 118 530 118 354 c 0
 118 176 197 51 356 51 c 0
 497 51 573 151 576 285 c 1
 362 285 l 1
 362 349 l 1
 640 349 l 1
 640 312 l 2
 640 109 538 -16 356 -16 c 0
EndSplineSet
EndChar

StartChar: A_I.dlig
Encoding: 65574 -1 169
Width: 1040
GlyphClass: 3
Flags: MW
HStem: 0 66<696 811 879 993 696 811> 213 66<194 455 194 478 171 455> 644 66<702 811 879 879 879 987>
VStem: 696 183<0 644 66 644> 702 177<66 710 66 710> 811 68<66 644 66 644> 811 176<66 710 644 710> 811 182<0 644>
AnchorPoint: "Anchor-8" 325 710 baselig 0
AnchorPoint: "Anchor-7" 628 0 baselig 0
AnchorPoint: "Anchor-5" 325 0 baselig 0
AnchorPoint: "Anchor-8" 845 710 baselig 1
AnchorPoint: "Anchor-5" 845 0 baselig 1
AnchorPoint: "Anchor-7" 993 0 baselig 1
LayerCount: 2
Fore
SplineSet
21 0 m 1xf0
 280 710 l 1
 370 710 l 1
 628 0 l 1
 554 0 l 1
 478 213 l 1
 171 213 l 1
 95 0 l 1
 21 0 l 1xf0
696 0 m 1
 696 66 l 1xf0
 811 66 l 1
 811 644 l 1xe4
 702 644 l 1
 702 710 l 1xe8
 987 710 l 1
 987 644 l 1xe2
 879 644 l 1
 879 66 l 1xe4
 993 66 l 1
 993 0 l 1xe1
 696 0 l 1
194 279 m 1
 455 279 l 1
 325 649 l 1
 194 279 l 1
EndSplineSet
Ligature2: "'dlig' Discretionary Ligatures in Latin lookup 32 subtable" A I
EndChar

StartChar: U_I.dlig
Encoding: 65575 -1 170
Width: 1071
GlyphClass: 3
Flags: MW
HStem: -16 67<278 402 278 421.5> 0 66<727 841 727 841 909 1024> 644 66<733 841 733 1018 909 909 909 1018>
VStem: 78 68<248 711> 534 68<248 711> 727 182<0 644 66 644> 733 176<66 710 66 710> 841 68<66 644 66 644> 841 177<66 710 644 710> 841 183<0 644>
AnchorPoint: "Anchor-8" 340 710 baselig 0
AnchorPoint: "Anchor-7" 450 2 baselig 0
AnchorPoint: "Anchor-5" 340 0 baselig 0
AnchorPoint: "Anchor-8" 875 710 baselig 1
AnchorPoint: "Anchor-5" 875 0 baselig 1
AnchorPoint: "Anchor-7" 1024 0 baselig 1
LayerCount: 2
Fore
SplineSet
340 -16 m 0xb9
 177 -16 78 84 78 248 c 2
 78 711 l 1
 146 711 l 1
 146 248 l 2
 146 122 216 51 340 51 c 0
 464 51 534 122 534 248 c 2
 534 711 l 1
 602 711 l 1
 602 248 l 2
 602 84 503 -16 340 -16 c 0xb9
727 0 m 1x7c
 727 66 l 1x7c
 841 66 l 1
 841 644 l 1x79
 733 644 l 1
 733 710 l 1x7a
 1018 710 l 1
 1018 644 l 1x7880
 909 644 l 1
 909 66 l 1x79
 1024 66 l 1
 1024 0 l 1x7840
 727 0 l 1x7c
EndSplineSet
Ligature2: "'dlig' Discretionary Ligatures in Latin lookup 32 subtable" U I
EndChar

StartChar: a
Encoding: 97 97 171
Width: 547
GlyphClass: 2
Flags: MW
HStem: -12 59<192.5 264> -2 61<469.5 525> 479 63<229 316>
VStem: 46 69<108 162.5 108 174.5> 407 66<213 266 266 266 325 326>
AnchorPoint: "Anchor-3" 273 530 basechar 0
AnchorPoint: "Anchor-2" 525 0 basechar 0
AnchorPoint: "Anchor-0" 266 0 basechar 0
LayerCount: 2
Fore
SplineSet
222 -12 m 0xb8
 115 -12 46 42 46 131 c 0
 46 218 102 267 211 288 c 2
 407 325 l 1
 407 430 362 479 270 479 c 0
 188 479 141 439 125 368 c 1
 55 374 l 1
 74 476 152 542 270 542 c 0
 401 542 473 464 473 326 c 2
 473 105 l 2
 473 70 484 59 509 59 c 2
 525 59 l 1
 525 0 l 1
 519 -1 509 -2 498 -2 c 0x78
 441 -2 412 22 407 91 c 1
 380 32 306 -12 222 -12 c 0xb8
228 47 m 0
 337 47 407 119 407 213 c 2
 407 266 l 1
 225 232 l 2
 149 218 115 188 115 137 c 0xb8
 115 79 157 47 228 47 c 0
EndSplineSet
Substitution2: "'ss02' Style Set 2 in Latin lookup 35 subtable" a.ss02
Substitution2: "'ss01' Style Set 1 in Latin lookup 34 subtable" a.ss01
Substitution2: "Single Substitution lookup 27 subtable" ordfeminine
AlternateSubs2: "'aalt' Access All Alternates in Latin lookup 1 subtable" ordfeminine a.ss01 a.ss02
EndChar

StartChar: aacute
Encoding: 225 225 172
Width: 547
GlyphClass: 2
Flags: MW
HStem: -12 59<192.5 264> -2 61<469.5 525> 479 63<229 316> 602 124<244 386 244 386>
VStem: 46 69<108 162.5 108 174.5> 407 66<213 266 266 266 325 326>
AnchorPoint: "Anchor-3" 273 530 basechar 0
AnchorPoint: "Anchor-2" 525 0 basechar 0
AnchorPoint: "Anchor-0" 266 0 basechar 0
LayerCount: 2
Fore
SplineSet
244 602 m 1xbc
 312 726 l 1
 386 726 l 1
 299 602 l 1
 244 602 l 1xbc
222 -12 m 0
 115 -12 46 42 46 131 c 0
 46 218 102 267 211 288 c 2
 407 325 l 1
 407 430 362 479 270 479 c 0
 188 479 141 439 125 368 c 1
 55 374 l 1
 74 476 152 542 270 542 c 0
 401 542 473 464 473 326 c 2
 473 105 l 2
 473 70 484 59 509 59 c 2
 525 59 l 1
 525 0 l 1
 519 -1 509 -2 498 -2 c 0x7c
 441 -2 412 22 407 91 c 1
 380 32 306 -12 222 -12 c 0
228 47 m 0
 337 47 407 119 407 213 c 2
 407 266 l 1
 225 232 l 2
 149 218 115 188 115 137 c 0xbc
 115 79 157 47 228 47 c 0
EndSplineSet
Substitution2: "'ss02' Style Set 2 in Latin lookup 35 subtable" aacute.ss02
Substitution2: "'ss01' Style Set 1 in Latin lookup 34 subtable" aacute.ss01
AlternateSubs2: "'aalt' Access All Alternates in Latin lookup 1 subtable" aacute.ss01 aacute.ss02
EndChar

StartChar: abreve
Encoding: 259 259 173
Width: 547
GlyphClass: 2
Flags: MW
HStem: -12 59<192.5 264> -2 61<469.5 525> 479 63<229 316> 608 51<249 297 249 312>
VStem: 46 69<108 162.5 108 174.5> 407 66<213 266 266 266 325 326>
AnchorPoint: "Anchor-3" 273 530 basechar 0
AnchorPoint: "Anchor-2" 525 0 basechar 0
AnchorPoint: "Anchor-0" 266 0 basechar 0
LayerCount: 2
Fore
SplineSet
273 608 m 0xbc
 195 608 145 657 139 732 c 1
 186 732 l 1
 193 682 225 659 273 659 c 0
 321 659 353 682 360 732 c 1
 407 732 l 1
 401 657 351 608 273 608 c 0xbc
222 -12 m 0
 115 -12 46 42 46 131 c 0
 46 218 102 267 211 288 c 2
 407 325 l 1
 407 430 362 479 270 479 c 0
 188 479 141 439 125 368 c 1
 55 374 l 1
 74 476 152 542 270 542 c 0
 401 542 473 464 473 326 c 2
 473 105 l 2
 473 70 484 59 509 59 c 2
 525 59 l 1
 525 0 l 1
 519 -1 509 -2 498 -2 c 0x7c
 441 -2 412 22 407 91 c 1
 380 32 306 -12 222 -12 c 0
228 47 m 0
 337 47 407 119 407 213 c 2
 407 266 l 1
 225 232 l 2
 149 218 115 188 115 137 c 0xbc
 115 79 157 47 228 47 c 0
EndSplineSet
Substitution2: "'ss02' Style Set 2 in Latin lookup 35 subtable" abreve.ss02
Substitution2: "'ss01' Style Set 1 in Latin lookup 34 subtable" abreve.ss01
AlternateSubs2: "'aalt' Access All Alternates in Latin lookup 1 subtable" abreve.ss01 abreve.ss02
EndChar

StartChar: uni01CE
Encoding: 462 462 174
Width: 547
GlyphClass: 2
Flags: MW
HStem: -12 59<192.5 264> -2 61<469.5 525> 479 63<229 316> 602 130<149 308 149 238>
VStem: 46 69<108 162.5 108 174.5> 407 66<213 266 266 266 325 326>
AnchorPoint: "Anchor-3" 273 530 basechar 0
AnchorPoint: "Anchor-2" 525 0 basechar 0
AnchorPoint: "Anchor-0" 266 0 basechar 0
LayerCount: 2
Fore
SplineSet
149 732 m 1xbc
 205 732 l 1
 273 639 l 1
 342 732 l 1
 398 732 l 1
 308 602 l 1
 238 602 l 1
 149 732 l 1xbc
222 -12 m 0
 115 -12 46 42 46 131 c 0
 46 218 102 267 211 288 c 2
 407 325 l 1
 407 430 362 479 270 479 c 0
 188 479 141 439 125 368 c 1
 55 374 l 1
 74 476 152 542 270 542 c 0
 401 542 473 464 473 326 c 2
 473 105 l 2
 473 70 484 59 509 59 c 2
 525 59 l 1
 525 0 l 1
 519 -1 509 -2 498 -2 c 0x7c
 441 -2 412 22 407 91 c 1
 380 32 306 -12 222 -12 c 0
228 47 m 0
 337 47 407 119 407 213 c 2
 407 266 l 1
 225 232 l 2
 149 218 115 188 115 137 c 0xbc
 115 79 157 47 228 47 c 0
EndSplineSet
Substitution2: "'ss02' Style Set 2 in Latin lookup 35 subtable" uni01CE.ss02
Substitution2: "'ss01' Style Set 1 in Latin lookup 34 subtable" uni01CE.ss01
AlternateSubs2: "'aalt' Access All Alternates in Latin lookup 1 subtable" uni01CE.ss01 uni01CE.ss02
EndChar

StartChar: acircumflex
Encoding: 226 226 175
Width: 547
GlyphClass: 2
Flags: MW
HStem: -12 59<192.5 264> -2 61<469.5 525> 479 63<229 316> 602 130<149 309 149 309 239 342 239 398>
VStem: 46 69<108 162.5 108 174.5> 407 66<213 266 266 266 325 326>
AnchorPoint: "Anchor-3" 273 530 basechar 0
AnchorPoint: "Anchor-2" 525 0 basechar 0
AnchorPoint: "Anchor-0" 266 0 basechar 0
LayerCount: 2
Fore
SplineSet
149 602 m 1xbc
 239 732 l 1
 309 732 l 1
 398 602 l 1
 342 602 l 1
 274 695 l 1
 205 602 l 1
 149 602 l 1xbc
222 -12 m 0
 115 -12 46 42 46 131 c 0
 46 218 102 267 211 288 c 2
 407 325 l 1
 407 430 362 479 270 479 c 0
 188 479 141 439 125 368 c 1
 55 374 l 1
 74 476 152 542 270 542 c 0
 401 542 473 464 473 326 c 2
 473 105 l 2
 473 70 484 59 509 59 c 2
 525 59 l 1
 525 0 l 1
 519 -1 509 -2 498 -2 c 0x7c
 441 -2 412 22 407 91 c 1
 380 32 306 -12 222 -12 c 0
228 47 m 0
 337 47 407 119 407 213 c 2
 407 266 l 1
 225 232 l 2
 149 218 115 188 115 137 c 0xbc
 115 79 157 47 228 47 c 0
EndSplineSet
Substitution2: "'ss02' Style Set 2 in Latin lookup 35 subtable" acircumflex.ss02
Substitution2: "'ss01' Style Set 1 in Latin lookup 34 subtable" acircumflex.ss01
AlternateSubs2: "'aalt' Access All Alternates in Latin lookup 1 subtable" acircumflex.ss01 acircumflex.ss02
EndChar

StartChar: adieresis
Encoding: 228 228 176
Width: 547
GlyphClass: 2
Flags: MW
HStem: -12 59<192.5 264> -2 61<469.5 525> 479 63<229 316> 618 89<159 229 159 229 318 388>
VStem: 46 69<108 162.5 108 174.5> 159 70<618 707 618 707> 318 70<618 707 618 707> 407 66<213 266 266 266 325 326>
AnchorPoint: "Anchor-3" 273 530 basechar 0
AnchorPoint: "Anchor-2" 525 0 basechar 0
AnchorPoint: "Anchor-0" 266 0 basechar 0
LayerCount: 2
Fore
SplineSet
159 618 m 1xbe
 159 707 l 1
 229 707 l 1
 229 618 l 1
 159 618 l 1xbe
318 618 m 1
 318 707 l 1
 388 707 l 1
 388 618 l 1
 318 618 l 1
222 -12 m 0
 115 -12 46 42 46 131 c 0
 46 218 102 267 211 288 c 2
 407 325 l 1
 407 430 362 479 270 479 c 0
 188 479 141 439 125 368 c 1
 55 374 l 1
 74 476 152 542 270 542 c 0
 401 542 473 464 473 326 c 2
 473 105 l 2
 473 70 484 59 509 59 c 2
 525 59 l 1
 525 0 l 1
 519 -1 509 -2 498 -2 c 0x7d
 441 -2 412 22 407 91 c 1xbd
 380 32 306 -12 222 -12 c 0
228 47 m 0
 337 47 407 119 407 213 c 2
 407 266 l 1
 225 232 l 2
 149 218 115 188 115 137 c 0xbd
 115 79 157 47 228 47 c 0
EndSplineSet
Substitution2: "'ss08' Style Set 8 in Latin lookup 41 subtable" adieresis.ss08
Substitution2: "'ss02' Style Set 2 in Latin lookup 35 subtable" adieresis.ss02
Substitution2: "'ss01' Style Set 1 in Latin lookup 34 subtable" adieresis.ss01
AlternateSubs2: "'aalt' Access All Alternates in Latin lookup 1 subtable" adieresis.ss01 adieresis.ss02 adieresis.ss08
EndChar

StartChar: agrave
Encoding: 224 224 177
Width: 547
GlyphClass: 2
Flags: MW
HStem: -12 59<192.5 264> -2 61<469.5 525> 479 63<229 316> 608 124<162 248 162 304>
VStem: 46 69<108 162.5 108 174.5> 407 66<213 266 266 266 325 326>
AnchorPoint: "Anchor-3" 273 530 basechar 0
AnchorPoint: "Anchor-2" 525 0 basechar 0
AnchorPoint: "Anchor-0" 266 0 basechar 0
LayerCount: 2
Fore
SplineSet
248 608 m 1xbc
 162 732 l 1
 236 732 l 1
 304 608 l 1
 248 608 l 1xbc
222 -12 m 0
 115 -12 46 42 46 131 c 0
 46 218 102 267 211 288 c 2
 407 325 l 1
 407 430 362 479 270 479 c 0
 188 479 141 439 125 368 c 1
 55 374 l 1
 74 476 152 542 270 542 c 0
 401 542 473 464 473 326 c 2
 473 105 l 2
 473 70 484 59 509 59 c 2
 525 59 l 1
 525 0 l 1
 519 -1 509 -2 498 -2 c 0x7c
 441 -2 412 22 407 91 c 1
 380 32 306 -12 222 -12 c 0
228 47 m 0
 337 47 407 119 407 213 c 2
 407 266 l 1
 225 232 l 2
 149 218 115 188 115 137 c 0xbc
 115 79 157 47 228 47 c 0
EndSplineSet
Substitution2: "'ss02' Style Set 2 in Latin lookup 35 subtable" agrave.ss02
Substitution2: "'ss01' Style Set 1 in Latin lookup 34 subtable" agrave.ss01
AlternateSubs2: "'aalt' Access All Alternates in Latin lookup 1 subtable" agrave.ss01 agrave.ss02
EndChar

StartChar: amacron
Encoding: 257 257 178
Width: 547
GlyphClass: 2
Flags: MW
HStem: -12 59<192.5 264> -2 61<469.5 525> 479 63<229 316> 631 58<143 404 143 404>
VStem: 46 69<108 162.5 108 174.5> 143 261<631 689 631 689> 407 66<213 266 266 266 325 326>
AnchorPoint: "Anchor-3" 273 530 basechar 0
AnchorPoint: "Anchor-2" 525 0 basechar 0
AnchorPoint: "Anchor-0" 266 0 basechar 0
LayerCount: 2
Fore
SplineSet
143 631 m 1xb4
 143 689 l 1
 404 689 l 1
 404 631 l 1
 143 631 l 1xb4
222 -12 m 0
 115 -12 46 42 46 131 c 0
 46 218 102 267 211 288 c 2
 407 325 l 1
 407 430 362 479 270 479 c 0
 188 479 141 439 125 368 c 1
 55 374 l 1
 74 476 152 542 270 542 c 0
 401 542 473 464 473 326 c 2
 473 105 l 2
 473 70 484 59 509 59 c 2
 525 59 l 1
 525 0 l 1
 519 -1 509 -2 498 -2 c 0x7a
 441 -2 412 22 407 91 c 1xba
 380 32 306 -12 222 -12 c 0
228 47 m 0
 337 47 407 119 407 213 c 2
 407 266 l 1
 225 232 l 2
 149 218 115 188 115 137 c 0xba
 115 79 157 47 228 47 c 0
EndSplineSet
Substitution2: "'ss02' Style Set 2 in Latin lookup 35 subtable" amacron.ss02
Substitution2: "'ss01' Style Set 1 in Latin lookup 34 subtable" amacron.ss01
AlternateSubs2: "'aalt' Access All Alternates in Latin lookup 1 subtable" amacron.ss01 amacron.ss02
EndChar

StartChar: aogonek
Encoding: 261 261 179
Width: 547
GlyphClass: 2
Flags: MW
HStem: -204 54<484 500> -12 59<192.5 264> 479 63<229 316>
VStem: 46 69<108 162.5 108 174.5> 399 62<-131 -119> 407 66<213 266 266 266 325 326> 470 55<1 1>
AnchorPoint: "Anchor-3" 273 530 basechar 0
AnchorPoint: "Anchor-2" 525 0 basechar 0
AnchorPoint: "Anchor-0" 266 0 basechar 0
LayerCount: 2
Fore
SplineSet
222 -12 m 0xf4
 115 -12 46 42 46 131 c 0
 46 218 102 267 211 288 c 2
 407 325 l 1
 407 430 362 479 270 479 c 0
 188 479 141 439 125 368 c 1
 55 374 l 1
 74 476 152 542 270 542 c 0
 401 542 473 464 473 326 c 2
 473 105 l 2xf4
 473 70 484 59 509 59 c 2
 525 59 l 1
 525 0 l 1xf2
 493 -45 l 2
 469 -79 461 -99 461 -121 c 0
 461 -141 475 -150 493 -150 c 0
 513 -150 529 -145 542 -136 c 1
 562 -180 l 1
 546 -194 516 -204 484 -204 c 0
 433 -204 399 -183 399 -137 c 0xf8
 399 -101 426 -61 453 -23 c 2
 470 1 l 1
 431 8 411 34 407 91 c 1
 380 32 306 -12 222 -12 c 0xf4
228 47 m 0
 337 47 407 119 407 213 c 2
 407 266 l 1
 225 232 l 2
 149 218 115 188 115 137 c 0
 115 79 157 47 228 47 c 0
EndSplineSet
Substitution2: "'ss02' Style Set 2 in Latin lookup 35 subtable" aogonek.ss02
Substitution2: "'ss01' Style Set 1 in Latin lookup 34 subtable" aogonek.ss01
AlternateSubs2: "'aalt' Access All Alternates in Latin lookup 1 subtable" aogonek.ss01 aogonek.ss02
EndChar

StartChar: aring
Encoding: 229 229 180
Width: 547
GlyphClass: 2
Flags: MW
HStem: -12 59<192.5 264> -2 61<469.5 525> 479 63<229 316> 581 42<260.5 286 260.5 297.5> 709 42<260.5 286>
VStem: 46 69<108 162.5 108 174.5> 188 42<653.5 679 653.5 690.5> 316 42<653.5 679> 407 66<213 266 266 266 325 326>
AnchorPoint: "Anchor-3" 273 530 basechar 0
AnchorPoint: "Anchor-2" 525 0 basechar 0
AnchorPoint: "Anchor-0" 266 0 basechar 0
LayerCount: 2
Fore
SplineSet
273 581 m 0xbf80
 225 581 188 618 188 666 c 0
 188 715 225 751 273 751 c 0
 322 751 358 715 358 666 c 0
 358 618 322 581 273 581 c 0xbf80
273 623 m 0
 299 623 316 641 316 666 c 0
 316 692 299 709 273 709 c 0
 248 709 230 692 230 666 c 0
 230 641 248 623 273 623 c 0
222 -12 m 0
 115 -12 46 42 46 131 c 0
 46 218 102 267 211 288 c 2
 407 325 l 1
 407 430 362 479 270 479 c 0
 188 479 141 439 125 368 c 1
 55 374 l 1
 74 476 152 542 270 542 c 0
 401 542 473 464 473 326 c 2
 473 105 l 2
 473 70 484 59 509 59 c 2
 525 59 l 1
 525 0 l 1
 519 -1 509 -2 498 -2 c 0x7f80
 441 -2 412 22 407 91 c 1
 380 32 306 -12 222 -12 c 0
228 47 m 0
 337 47 407 119 407 213 c 2
 407 266 l 1
 225 232 l 2
 149 218 115 188 115 137 c 0xbf80
 115 79 157 47 228 47 c 0
EndSplineSet
Substitution2: "'ss02' Style Set 2 in Latin lookup 35 subtable" aring.ss02
Substitution2: "'ss01' Style Set 1 in Latin lookup 34 subtable" aring.ss01
AlternateSubs2: "'aalt' Access All Alternates in Latin lookup 1 subtable" aring.ss01 aring.ss02
EndChar

StartChar: atilde
Encoding: 227 227 181
Width: 547
GlyphClass: 2
Flags: MW
HStem: -12 59<192.5 264> -2 61<469.5 525> 479 63<229 316> 617 45<326 346.5 326 357> 673 45<197 221>
VStem: 46 69<108 162.5 108 174.5> 122 43<610 610> 376 44<728 728> 407 66<213 266 266 266 325 326>
AnchorPoint: "Anchor-3" 273 530 basechar 0
AnchorPoint: "Anchor-2" 525 0 basechar 0
AnchorPoint: "Anchor-0" 266 0 basechar 0
LayerCount: 2
Fore
SplineSet
331 617 m 0xb5
 304 617 284 627 263 646 c 0
 242 665 232 673 210 673 c 0
 184 673 167 657 165 610 c 1
 122 610 l 1
 124 680 160 718 210 718 c 0xaa80
 242 718 263 706 285 686 c 0
 305 669 318 662 334 662 c 0
 359 662 372 678 376 728 c 1
 420 728 l 1
 416 658 383 617 331 617 c 0xb5
222 -12 m 0
 115 -12 46 42 46 131 c 0
 46 218 102 267 211 288 c 2
 407 325 l 1
 407 430 362 479 270 479 c 0
 188 479 141 439 125 368 c 1
 55 374 l 1
 74 476 152 542 270 542 c 0
 401 542 473 464 473 326 c 2
 473 105 l 2
 473 70 484 59 509 59 c 2
 525 59 l 1
 525 0 l 1
 519 -1 509 -2 498 -2 c 0x6c80
 441 -2 412 22 407 91 c 1
 380 32 306 -12 222 -12 c 0
228 47 m 0
 337 47 407 119 407 213 c 2
 407 266 l 1
 225 232 l 2
 149 218 115 188 115 137 c 0xac80
 115 79 157 47 228 47 c 0
EndSplineSet
Substitution2: "'ss02' Style Set 2 in Latin lookup 35 subtable" atilde.ss02
Substitution2: "'ss01' Style Set 1 in Latin lookup 34 subtable" atilde.ss01
AlternateSubs2: "'aalt' Access All Alternates in Latin lookup 1 subtable" atilde.ss01 atilde.ss02
EndChar

StartChar: ae
Encoding: 230 230 182
Width: 921
GlyphClass: 2
Flags: MW
HStem: -12 59 -12 63<599 687.5 598.5 704> 246 59<479 803 479 875 479 803> 479 63<228 312.5 210 315.5 601.5 691>
VStem: 46 69<107.5 161.5 107.5 181.5> 407 72<246 246 246 253 246 253 246 370.5> 803 72<246 305>
AnchorPoint: "Anchor-3" 462 530 basechar 0
AnchorPoint: "Anchor-2" 783 29 basechar 0
AnchorPoint: "Anchor-0" 462 0 basechar 0
LayerCount: 2
Fore
SplineSet
224 -12 m 0x7e
 118 -12 46 39 46 132 c 0
 46 231 120 275 211 287 c 2
 407 311 l 1
 407 430 362 479 269 479 c 0
 187 479 138 434 125 368 c 1
 55 374 l 1
 74 475 153 542 267 542 c 0
 358 542 422 507 453 437 c 1
 492 502 558 542 645 542 c 0
 787 542 875 433 875 267 c 2
 875 246 l 1
 479 246 l 1
 484 120 548 51 649 51 c 0
 726 51 776 92 795 153 c 1
 866 148 l 1
 839 54 759 -12 649 -12 c 0
 549 -12 476 39 439 120 c 1
 405 38 323 -12 224 -12 c 0x7e
479 305 m 1
 803 305 l 1
 796 418 737 479 645 479 c 0
 553 479 491 416 479 305 c 1
239 47 m 0
 337 50 407 115 407 214 c 2
 407 253 l 1
 225 231 l 2
 142 221 115 185 115 138 c 0xbe
 115 77 159 45 239 47 c 0
EndSplineSet
EndChar

StartChar: b
Encoding: 98 98 183
Width: 587
GlyphClass: 2
Flags: MW
HStem: -12 63<275 361 261.5 384.5> 0 21G<82 140 82 82> 479 63<275.5 361.5> 690 20G<82 148 148 148>
VStem: 82 59.5 82 66<200.5 330 437 710> 471 70<199.5 331>
AnchorPoint: "Anchor-3" 294 530 basechar 0
AnchorPoint: "Anchor-1" 148 265 basechar 0
AnchorPoint: "Anchor-0" 294 0 basechar 0
LayerCount: 2
Fore
SplineSet
315 -12 m 0xb6
 235 -12 172 32 143 98 c 1
 140 0 l 1x7a
 82 0 l 1x76
 82 710 l 1
 148 710 l 1
 148 437 l 1
 174 494 236 542 315 542 c 0
 454 542 541 434 541 265 c 0
 541 95 454 -12 315 -12 c 0xb6
312 51 m 0
 410 51 471 134 471 265 c 0
 471 397 410 479 313 479 c 0
 211 479 148 395 148 265 c 0xb6
 148 136 211 51 312 51 c 0
EndSplineSet
EndChar

StartChar: c
Encoding: 99 99 184
Width: 541
GlyphClass: 2
Flags: MW
HStem: -12 63<230.5 323.5 230.5 343.5> 479 63<230.5 323.5>
VStem: 46 69<198.5 331.5 198.5 346>
AnchorPoint: "Anchor-3" 283 530 basechar 0
AnchorPoint: "Anchor-0" 283 0 basechar 0
LayerCount: 2
Fore
SplineSet
283 -12 m 0
 134 -12 46 103 46 265 c 0
 46 427 134 542 283 542 c 0
 404 542 483 472 504 360 c 1
 435 356 l 1
 419 434 364 479 283 479 c 0
 178 479 115 398 115 265 c 0
 115 132 178 51 283 51 c 0
 364 51 421 98 436 185 c 1
 505 180 l 1
 485 65 404 -12 283 -12 c 0
EndSplineSet
EndChar

StartChar: cacute
Encoding: 263 263 185
Width: 541
GlyphClass: 2
Flags: MW
HStem: -12 63<230.5 323.5 230.5 343.5> 479 63<230.5 323.5> 602 124<254 396 254 396>
VStem: 46 69<198.5 331.5 198.5 346>
AnchorPoint: "Anchor-3" 283 530 basechar 0
AnchorPoint: "Anchor-0" 283 0 basechar 0
LayerCount: 2
Fore
SplineSet
254 602 m 1
 322 726 l 1
 396 726 l 1
 309 602 l 1
 254 602 l 1
283 -12 m 0
 134 -12 46 103 46 265 c 0
 46 427 134 542 283 542 c 0
 404 542 483 472 504 360 c 1
 435 356 l 1
 419 434 364 479 283 479 c 0
 178 479 115 398 115 265 c 0
 115 132 178 51 283 51 c 0
 364 51 421 98 436 185 c 1
 505 180 l 1
 485 65 404 -12 283 -12 c 0
EndSplineSet
EndChar

StartChar: ccaron
Encoding: 269 269 186
Width: 541
GlyphClass: 2
Flags: MW
HStem: -12 63<230.5 323.5 230.5 343.5> 479 63<230.5 323.5> 602 130<159 318 159 248>
VStem: 46 69<198.5 331.5 198.5 346>
AnchorPoint: "Anchor-3" 283 530 basechar 0
AnchorPoint: "Anchor-0" 283 0 basechar 0
LayerCount: 2
Fore
SplineSet
159 732 m 1
 215 732 l 1
 283 639 l 1
 351 732 l 1
 407 732 l 1
 318 602 l 1
 248 602 l 1
 159 732 l 1
283 -12 m 0
 134 -12 46 103 46 265 c 0
 46 427 134 542 283 542 c 0
 404 542 483 472 504 360 c 1
 435 356 l 1
 419 434 364 479 283 479 c 0
 178 479 115 398 115 265 c 0
 115 132 178 51 283 51 c 0
 364 51 421 98 436 185 c 1
 505 180 l 1
 485 65 404 -12 283 -12 c 0
EndSplineSet
EndChar

StartChar: ccedilla
Encoding: 231 231 187
Width: 541
GlyphClass: 2
Flags: MW
HStem: -215 46<254 290 254 305> -77 37<251 283> -10 21G<252 252> -10 61<252 252> 479 63<230.5 323.5>
VStem: 46 69<198.5 331.5 198.5 346> 330 50<-138.5 -110>
AnchorPoint: "Anchor-3" 283 530 basechar 0
AnchorPoint: "Anchor-0" 283 0 basechar 0
LayerCount: 2
Fore
SplineSet
274 -215 m 0xce
 214 -215 177 -185 164 -143 c 1
 206 -126 l 1
 216 -155 236 -169 272 -169 c 0
 308 -169 330 -153 330 -124 c 0
 330 -96 315 -77 251 -77 c 1xce
 228 -51 l 1
 252 -10 l 1xae
 122 5 46 115 46 265 c 0
 46 427 134 542 283 542 c 0
 404 542 483 472 504 360 c 1
 435 356 l 1
 419 434 364 479 283 479 c 0
 178 479 115 398 115 265 c 0
 115 132 178 51 283 51 c 0x9e
 364 51 421 98 436 185 c 1
 505 180 l 1
 486 71 413 -4 302 -11 c 1
 283 -40 l 1
 347 -43 380 -74 380 -126 c 0
 380 -180 336 -215 274 -215 c 0xce
EndSplineSet
EndChar

StartChar: ccircumflex
Encoding: 265 265 188
Width: 541
GlyphClass: 2
Flags: MW
HStem: -12 63<230.5 323.5 230.5 343.5> 479 63<230.5 323.5> 602 130<159 318 159 318 248 352 248 408>
VStem: 46 69<198.5 331.5 198.5 346>
AnchorPoint: "Anchor-3" 283 530 basechar 0
AnchorPoint: "Anchor-0" 283 0 basechar 0
LayerCount: 2
Fore
SplineSet
159 602 m 1
 248 732 l 1
 318 732 l 1
 408 602 l 1
 352 602 l 1
 283 695 l 1
 215 602 l 1
 159 602 l 1
283 -12 m 0
 134 -12 46 103 46 265 c 0
 46 427 134 542 283 542 c 0
 404 542 483 472 504 360 c 1
 435 356 l 1
 419 434 364 479 283 479 c 0
 178 479 115 398 115 265 c 0
 115 132 178 51 283 51 c 0
 364 51 421 98 436 185 c 1
 505 180 l 1
 485 65 404 -12 283 -12 c 0
EndSplineSet
EndChar

StartChar: cdotaccent
Encoding: 267 267 189
Width: 541
GlyphClass: 2
Flags: MW
HStem: -12 63<230.5 323.5 230.5 343.5> 479 63<230.5 323.5> 618 89<248 318 248 318>
VStem: 46 69<198.5 331.5 198.5 346> 248 70<618 707 618 707>
AnchorPoint: "Anchor-3" 283 530 basechar 0
AnchorPoint: "Anchor-0" 283 0 basechar 0
LayerCount: 2
Fore
SplineSet
248 618 m 1
 248 707 l 1
 318 707 l 1
 318 618 l 1
 248 618 l 1
283 -12 m 0
 134 -12 46 103 46 265 c 0
 46 427 134 542 283 542 c 0
 404 542 483 472 504 360 c 1
 435 356 l 1
 419 434 364 479 283 479 c 0
 178 479 115 398 115 265 c 0
 115 132 178 51 283 51 c 0
 364 51 421 98 436 185 c 1
 505 180 l 1
 485 65 404 -12 283 -12 c 0
EndSplineSet
Substitution2: "'ss08' Style Set 8 in Latin lookup 41 subtable" cdotaccent.ss08
Substitution2: "'aalt' Access All Alternates in Latin lookup 0 subtable" cdotaccent.ss08
EndChar

StartChar: d
Encoding: 100 100 190
Width: 587
GlyphClass: 2
Flags: MW
HStem: -12 63<230 307.5> 0 21G<447 505 447 447> 479 63<230 308 200 330> 690 20G<439 505 505 505>
VStem: 46 69<199.5 331 199.5 350> 439 66<200.5 329 437 710 0 710> 445.5 59.5
AnchorPoint: "Anchor-4" 542 530 basechar 0
AnchorPoint: "Anchor-3" 292 530 basechar 0
AnchorPoint: "Anchor-1" 431 617 basechar 0
AnchorPoint: "Anchor-0" 292 0 basechar 0
LayerCount: 2
Fore
SplineSet
269 -12 m 0xba
 131 -12 46 95 46 265 c 0
 46 435 131 542 269 542 c 0
 347 542 412 501 439 437 c 1
 439 710 l 1
 505 710 l 1
 505 0 l 1x7c
 447 0 l 1x7a
 444 99 l 1
 414 29 346 -12 269 -12 c 0xba
280 51 m 0
 380 51 439 136 439 265 c 0
 439 393 380 479 280 479 c 0
 180 479 115 397 115 265 c 0xbc
 115 134 180 51 280 51 c 0
EndSplineSet
EndChar

StartChar: dcaron
Encoding: 271 271 191
Width: 648
GlyphClass: 2
Flags: MW
HStem: -12 63<230 307.5> 0 21G<447 505 447 447> 471 239<439 564 595 614> 479 63<230 308 200 330> 690 20G<439 505 505 505 595 662 662 662>
VStem: 46 69<199.5 331 199.5 350> 439 66<200.5 329 437 710 0 710> 445.5 59.5
AnchorPoint: "Anchor-4" 542 530 basechar 0
AnchorPoint: "Anchor-3" 292 530 basechar 0
AnchorPoint: "Anchor-1" 431 617 basechar 0
AnchorPoint: "Anchor-0" 292 0 basechar 0
LayerCount: 2
Fore
SplineSet
269 -12 m 0x9d
 131 -12 46 95 46 265 c 0
 46 435 131 542 269 542 c 0
 347 542 412 501 439 437 c 1
 439 710 l 1
 505 710 l 1
 505 0 l 1x5e
 447 0 l 1x5d
 444 99 l 1
 414 29 346 -12 269 -12 c 0x9d
564 471 m 1xa6
 595 710 l 1
 662 710 l 1
 614 471 l 1
 564 471 l 1xa6
280 51 m 0
 380 51 439 136 439 265 c 0
 439 393 380 479 280 479 c 0x9e
 180 479 115 397 115 265 c 0
 115 134 180 51 280 51 c 0
EndSplineSet
EndChar

StartChar: dcroat
Encoding: 273 273 192
Width: 587
GlyphClass: 2
Flags: MW
HStem: -12 63<230 307.5> 0 21G<447 505 447 447> 479 63<230 308 200 330> 590 54<288 439 288 439 505 574> 590 120<288 505 439 505 439 574>
VStem: 46 69<199.5 331 199.5 350> 439 66<200.5 329 437 590 0 590 644 710> 445.5 59.5
AnchorPoint: "Anchor-4" 542 530 basechar 0
AnchorPoint: "Anchor-3" 292 530 basechar 0
AnchorPoint: "Anchor-1" 431 617 basechar 0
AnchorPoint: "Anchor-0" 292 0 basechar 0
LayerCount: 2
Fore
SplineSet
269 -12 m 0xad
 131 -12 46 95 46 265 c 0
 46 435 131 542 269 542 c 0
 347 542 412 501 439 437 c 1
 439 590 l 1
 288 590 l 1xae
 288 644 l 1
 439 644 l 1xb6
 439 710 l 1
 505 710 l 1xae
 505 644 l 1
 574 644 l 1xb6
 574 590 l 1
 505 590 l 1
 505 0 l 1x6e
 447 0 l 1x6d
 444 99 l 1
 414 29 346 -12 269 -12 c 0xad
280 51 m 0
 380 51 439 136 439 265 c 0
 439 393 380 479 280 479 c 0
 180 479 115 397 115 265 c 0
 115 134 180 51 280 51 c 0
EndSplineSet
EndChar

StartChar: eth
Encoding: 240 240 193
Width: 565
GlyphClass: 1
Flags: MW
HStem: -12 63<230.5 335 230.5 354> 439 63<230.5 313.5 211.5 335> 702 20G<179 179>
VStem: 46 69<183.5 306.5 183.5 324.5> 450 69<187.5 311.5>
LayerCount: 2
Fore
SplineSet
283 -12 m 0
 140 -12 46 86 46 245 c 0
 46 404 140 502 283 502 c 0
 344 502 396 478 435 442 c 1
 419 500 394 546 358 581 c 1
 237 538 l 1
 217 590 l 1
 304 621 l 1
 265 643 218 656 163 663 c 1
 179 722 l 1
 261 710 325 684 375 646 c 1
 521 698 l 1
 540 646 l 1
 420 603 l 1
 491 520 519 400 519 255 c 0
 519 86 425 -12 283 -12 c 0
283 51 m 0
 387 51 450 120 450 255 c 0
 450 368 387 439 283 439 c 0
 178 439 115 368 115 245 c 0
 115 122 178 51 283 51 c 0
EndSplineSet
EndChar

StartChar: e
Encoding: 101 101 194
Width: 557
GlyphClass: 2
Flags: MW
HStem: -12 63<234.5 323.5 234.5 340> 246 59<115 439 115 511 115 439> 479 63<235 327>
VStem: 46 69<246 246 246 305 246 346> 439 72<246 305>
AnchorPoint: "Anchor-3" 283 529 basechar 0
AnchorPoint: "Anchor-2" 419 29 basechar 0
AnchorPoint: "Anchor-0" 283 0 basechar 0
LayerCount: 2
Fore
SplineSet
285 -12 m 0
 134 -12 46 103 46 265 c 0
 46 427 133 542 281 542 c 0
 423 542 511 433 511 267 c 2
 511 246 l 1
 115 246 l 1
 120 120 184 51 285 51 c 0
 362 51 412 92 431 153 c 1
 502 148 l 1
 475 54 395 -12 285 -12 c 0
115 305 m 1
 439 305 l 1
 432 418 373 479 281 479 c 0
 189 479 127 416 115 305 c 1
EndSplineSet
EndChar

StartChar: eacute
Encoding: 233 233 195
Width: 557
GlyphClass: 2
Flags: MW
HStem: -12 63<234.5 323.5 234.5 340> 246 59<115 439 115 511 115 439> 479 63<235 327> 601 124<254 396 254 396>
VStem: 46 69<246 246 246 305 246 346> 439 72<246 305>
AnchorPoint: "Anchor-3" 283 529 basechar 0
AnchorPoint: "Anchor-2" 419 29 basechar 0
AnchorPoint: "Anchor-0" 283 0 basechar 0
LayerCount: 2
Fore
SplineSet
254 601 m 1
 322 725 l 1
 396 725 l 1
 309 601 l 1
 254 601 l 1
285 -12 m 0
 134 -12 46 103 46 265 c 0
 46 427 133 542 281 542 c 0
 423 542 511 433 511 267 c 2
 511 246 l 1
 115 246 l 1
 120 120 184 51 285 51 c 0
 362 51 412 92 431 153 c 1
 502 148 l 1
 475 54 395 -12 285 -12 c 0
115 305 m 1
 439 305 l 1
 432 418 373 479 281 479 c 0
 189 479 127 416 115 305 c 1
EndSplineSet
EndChar

StartChar: ecaron
Encoding: 283 283 196
Width: 557
GlyphClass: 2
Flags: MW
HStem: -12 63<234.5 323.5 234.5 340> 246 59<115 439 115 511 115 439> 479 63<235 327> 601 130<159 318 159 248>
VStem: 46 69<246 246 246 305 246 346> 439 72<246 305>
AnchorPoint: "Anchor-3" 283 529 basechar 0
AnchorPoint: "Anchor-2" 419 29 basechar 0
AnchorPoint: "Anchor-0" 283 0 basechar 0
LayerCount: 2
Fore
SplineSet
159 731 m 1
 215 731 l 1
 283 638 l 1
 351 731 l 1
 407 731 l 1
 318 601 l 1
 248 601 l 1
 159 731 l 1
285 -12 m 0
 134 -12 46 103 46 265 c 0
 46 427 133 542 281 542 c 0
 423 542 511 433 511 267 c 2
 511 246 l 1
 115 246 l 1
 120 120 184 51 285 51 c 0
 362 51 412 92 431 153 c 1
 502 148 l 1
 475 54 395 -12 285 -12 c 0
115 305 m 1
 439 305 l 1
 432 418 373 479 281 479 c 0
 189 479 127 416 115 305 c 1
EndSplineSet
EndChar

StartChar: ecircumflex
Encoding: 234 234 197
Width: 557
GlyphClass: 2
Flags: MW
HStem: -12 63<234.5 323.5 234.5 340> 246 59<115 439 115 511 115 439> 479 63<235 327> 601 130<159 318 159 318 248 352 248 408>
VStem: 46 69<246 246 246 305 246 346> 439 72<246 305>
AnchorPoint: "Anchor-3" 283 529 basechar 0
AnchorPoint: "Anchor-2" 419 29 basechar 0
AnchorPoint: "Anchor-0" 283 0 basechar 0
LayerCount: 2
Fore
SplineSet
159 601 m 1
 248 731 l 1
 318 731 l 1
 408 601 l 1
 352 601 l 1
 283 693 l 1
 215 601 l 1
 159 601 l 1
285 -12 m 0
 134 -12 46 103 46 265 c 0
 46 427 133 542 281 542 c 0
 423 542 511 433 511 267 c 2
 511 246 l 1
 115 246 l 1
 120 120 184 51 285 51 c 0
 362 51 412 92 431 153 c 1
 502 148 l 1
 475 54 395 -12 285 -12 c 0
115 305 m 1
 439 305 l 1
 432 418 373 479 281 479 c 0
 189 479 127 416 115 305 c 1
EndSplineSet
EndChar

StartChar: edieresis
Encoding: 235 235 198
Width: 557
GlyphClass: 2
Flags: MW
HStem: -12 63<234.5 323.5 234.5 340> 246 59<115 439 115 511 115 439> 479 63<235 327> 617 88<169 239 169 239 327 397>
VStem: 46 69<246 246 246 305 246 346> 169 70<617 705 617 705> 327 70<617 705 617 705> 439 72<246 305>
AnchorPoint: "Anchor-3" 283 529 basechar 0
AnchorPoint: "Anchor-2" 419 29 basechar 0
AnchorPoint: "Anchor-0" 283 0 basechar 0
LayerCount: 2
Fore
SplineSet
169 617 m 1
 169 705 l 1
 239 705 l 1
 239 617 l 1
 169 617 l 1
327 617 m 1
 327 705 l 1
 397 705 l 1
 397 617 l 1
 327 617 l 1
285 -12 m 0
 134 -12 46 103 46 265 c 0
 46 427 133 542 281 542 c 0
 423 542 511 433 511 267 c 2
 511 246 l 1
 115 246 l 1
 120 120 184 51 285 51 c 0
 362 51 412 92 431 153 c 1
 502 148 l 1
 475 54 395 -12 285 -12 c 0
115 305 m 1
 439 305 l 1
 432 418 373 479 281 479 c 0
 189 479 127 416 115 305 c 1
EndSplineSet
Substitution2: "'ss08' Style Set 8 in Latin lookup 41 subtable" edieresis.ss08
Substitution2: "'aalt' Access All Alternates in Latin lookup 0 subtable" edieresis.ss08
EndChar

StartChar: edotaccent
Encoding: 279 279 199
Width: 557
GlyphClass: 2
Flags: MW
HStem: -12 63<234.5 323.5 234.5 340> 246 59<115 439 115 511 115 439> 479 63<235 327> 617 88<248 318 248 318>
VStem: 46 69<246 246 246 305 246 346> 248 70<617 705 617 705> 439 72<246 305>
AnchorPoint: "Anchor-3" 283 529 basechar 0
AnchorPoint: "Anchor-2" 419 29 basechar 0
AnchorPoint: "Anchor-0" 283 0 basechar 0
LayerCount: 2
Fore
SplineSet
248 617 m 1
 248 705 l 1
 318 705 l 1
 318 617 l 1
 248 617 l 1
285 -12 m 0
 134 -12 46 103 46 265 c 0
 46 427 133 542 281 542 c 0
 423 542 511 433 511 267 c 2
 511 246 l 1
 115 246 l 1
 120 120 184 51 285 51 c 0
 362 51 412 92 431 153 c 1
 502 148 l 1
 475 54 395 -12 285 -12 c 0
115 305 m 1
 439 305 l 1
 432 418 373 479 281 479 c 0
 189 479 127 416 115 305 c 1
EndSplineSet
Substitution2: "'ss08' Style Set 8 in Latin lookup 41 subtable" edotaccent.ss08
Substitution2: "'aalt' Access All Alternates in Latin lookup 0 subtable" edotaccent.ss08
EndChar

StartChar: egrave
Encoding: 232 232 200
Width: 557
GlyphClass: 2
Flags: MW
HStem: -12 63<234.5 323.5 234.5 340> 246 59<115 439 115 511 115 439> 479 63<235 327> 607 124<171 258 171 313>
VStem: 46 69<246 246 246 305 246 346> 439 72<246 305>
AnchorPoint: "Anchor-3" 283 529 basechar 0
AnchorPoint: "Anchor-2" 419 29 basechar 0
AnchorPoint: "Anchor-0" 283 0 basechar 0
LayerCount: 2
Fore
SplineSet
258 607 m 1
 171 731 l 1
 245 731 l 1
 313 607 l 1
 258 607 l 1
285 -12 m 0
 134 -12 46 103 46 265 c 0
 46 427 133 542 281 542 c 0
 423 542 511 433 511 267 c 2
 511 246 l 1
 115 246 l 1
 120 120 184 51 285 51 c 0
 362 51 412 92 431 153 c 1
 502 148 l 1
 475 54 395 -12 285 -12 c 0
115 305 m 1
 439 305 l 1
 432 418 373 479 281 479 c 0
 189 479 127 416 115 305 c 1
EndSplineSet
EndChar

StartChar: emacron
Encoding: 275 275 201
Width: 557
GlyphClass: 2
Flags: MW
HStem: -12 63<234.5 323.5 234.5 340> 246 59<115 439 115 511 115 439> 479 63<235 327> 630 57<152 414 152 414>
VStem: 46 69<246 246 246 305 246 346> 152 262<630 687 630 687> 439 72<246 305>
AnchorPoint: "Anchor-3" 283 529 basechar 0
AnchorPoint: "Anchor-2" 419 29 basechar 0
AnchorPoint: "Anchor-0" 283 0 basechar 0
LayerCount: 2
Fore
SplineSet
152 630 m 1
 152 687 l 1
 414 687 l 1
 414 630 l 1
 152 630 l 1
285 -12 m 0
 134 -12 46 103 46 265 c 0
 46 427 133 542 281 542 c 0
 423 542 511 433 511 267 c 2
 511 246 l 1xfa
 115 246 l 1
 120 120 184 51 285 51 c 0
 362 51 412 92 431 153 c 1
 502 148 l 1
 475 54 395 -12 285 -12 c 0
115 305 m 1
 439 305 l 1
 432 418 373 479 281 479 c 0
 189 479 127 416 115 305 c 1
EndSplineSet
EndChar

StartChar: eogonek
Encoding: 281 281 202
Width: 557
GlyphClass: 2
Flags: MW
HStem: -204 54<373 389> -12 63<234.5 294.5> 246 59<115 439 115 511 115 439> 479 63<235 327>
VStem: 46 69<246 246 246 305 246 346> 288 61<-125.5 -101.5> 439 72<246 305>
AnchorPoint: "Anchor-3" 283 529 basechar 0
AnchorPoint: "Anchor-2" 419 29 basechar 0
AnchorPoint: "Anchor-0" 283 0 basechar 0
LayerCount: 2
Fore
SplineSet
285 -12 m 0
 134 -12 46 103 46 265 c 0
 46 427 133 542 281 542 c 0
 423 542 511 433 511 267 c 2
 511 246 l 1
 115 246 l 1
 120 120 184 51 285 51 c 0
 362 51 412 92 431 153 c 1
 502 148 l 1
 493 117 479 89 459 66 c 1
 461 66 l 1
 387 -26 l 2
 361 -58 349 -87 349 -112 c 0
 349 -139 363 -150 383 -150 c 0
 402 -150 418 -145 431 -136 c 1
 452 -180 l 1
 436 -194 405 -204 373 -204 c 0
 322 -204 288 -176 288 -124 c 0
 288 -79 308 -43 337 -11 c 2
 341 -6 l 1
 323 -10 304 -12 285 -12 c 0
115 305 m 1
 439 305 l 1
 432 418 373 479 281 479 c 0
 189 479 127 416 115 305 c 1
EndSplineSet
EndChar

StartChar: uni1EBD
Encoding: 7869 7869 203
Width: 557
GlyphClass: 2
Flags: MW
HStem: -12 63<234.5 323.5 234.5 340> 246 59<115 439 115 511 115 439> 479 63<235 327> 615 46<335 356 335 367> 671 46<207 230.5> 706 20G<386 429 429 429>
VStem: 46 69<246 246 246 305 246 346> 131 44<609 609> 386 43<726 726> 439 72<246 305>
AnchorPoint: "Anchor-3" 283 529 basechar 0
AnchorPoint: "Anchor-2" 419 29 basechar 0
AnchorPoint: "Anchor-0" 283 0 basechar 0
LayerCount: 2
Fore
SplineSet
341 615 m 0xf680
 314 615 294 626 273 645 c 0
 252 663 241 671 220 671 c 0
 194 671 177 656 175 609 c 1
 131 609 l 1
 134 679 170 717 220 717 c 0xe940
 252 717 273 704 295 685 c 0
 315 667 327 661 343 661 c 0
 369 661 382 676 386 726 c 1
 429 726 l 1
 425 656 393 615 341 615 c 0xf680
285 -12 m 0
 134 -12 46 103 46 265 c 0
 46 427 133 542 281 542 c 0
 423 542 511 433 511 267 c 2
 511 246 l 1
 115 246 l 1xea40
 120 120 184 51 285 51 c 0
 362 51 412 92 431 153 c 1
 502 148 l 1
 475 54 395 -12 285 -12 c 0
115 305 m 1
 439 305 l 1
 432 418 373 479 281 479 c 0
 189 479 127 416 115 305 c 1
EndSplineSet
EndChar

StartChar: uni0259
Encoding: 601 601 204
Width: 557
GlyphClass: 2
Flags: MW
HStem: -12 63<231 323 231 350.5> 225 59<118 442 118 118> 479 63<234 323>
VStem: 46 72<225 284 225 284> 442 69<225 225 284 284>
AnchorPoint: "Anchor-3" 274 530 basechar 0
AnchorPoint: "Anchor-2" 139 501 basechar 0
AnchorPoint: "Anchor-0" 274 1 basechar 0
LayerCount: 2
Fore
SplineSet
273 542 m 0
 423 542 511 427 511 265 c 0
 511 103 424 -12 277 -12 c 0
 134 -12 46 97 46 263 c 2
 46 284 l 1
 442 284 l 1
 437 410 373 479 273 479 c 0
 195 479 145 438 126 377 c 1
 55 382 l 1
 82 476 162 542 273 542 c 0
442 225 m 1
 118 225 l 1
 125 112 185 51 277 51 c 0
 369 51 430 114 442 225 c 1
EndSplineSet
EndChar

StartChar: f
Encoding: 102 102 205
Width: 385
GlyphClass: 2
Flags: MW
HStem: 0 21G<137 137 137 203> 471 59<62 137 62 137 203 339> 651 59<268 273 273 344>
VStem: 137 66<0 471 0 471 530 580>
AnchorPoint: "Anchor-3" 193 710 basechar 0
AnchorPoint: "Anchor-0" 193 0 basechar 0
LayerCount: 2
Fore
SplineSet
137 0 m 1
 137 471 l 1
 62 471 l 1
 62 530 l 1
 137 530 l 1
 137 585 l 2
 137 660 179 710 268 710 c 2
 344 710 l 1
 344 651 l 1
 273 651 l 2
 224 651 203 625 203 580 c 2
 203 530 l 1
 339 530 l 1
 339 471 l 1
 203 471 l 1
 203 0 l 1
 137 0 l 1
EndSplineSet
EndChar

StartChar: g
Encoding: 103 103 206
Width: 586
GlyphClass: 2
Flags: MW
HStem: -162 63<234.5 329 234.5 348.5> -7 21G<65 65> 27 63<226.5 311> 479 63<226 310 203.5 325> 510 20G<441 504 504 504>
VStem: 46 69<225 344.5 225 361.5> 438 66<42 133 133 133 225 285> 441 63<431 530>
AnchorPoint: "Anchor-3" 279 530 basechar 0
AnchorPoint: "Anchor-0" 278 -150 basechar 0
LayerCount: 2
Fore
SplineSet
278 -162 m 0xee
 165 -162 81 -99 65 -7 c 1
 134 -3 l 1
 146 -61 191 -99 278 -99 c 0
 380 -99 438 -50 438 42 c 2
 438 133 l 1
 410 69 349 27 273 27 c 0
 138 27 46 131 46 285 c 0
 46 438 137 542 270 542 c 0xf6
 350 542 416 497 441 431 c 1
 441 530 l 1xed
 504 530 l 1
 504 42 l 2
 504 -85 419 -162 278 -162 c 0xee
276 90 m 0
 374 90 438 165 438 285 c 0
 440 401 374 479 276 479 c 0
 176 479 115 404 115 285 c 0
 115 165 177 90 276 90 c 0
EndSplineSet
EndChar

StartChar: gbreve
Encoding: 287 287 207
Width: 586
GlyphClass: 2
Flags: MW
HStem: -162 63<234.5 329 234.5 348.5> -7 21G<65 65> 27 63<226.5 311> 479 63<226 310 203.5 325> 510 20G<441 504 504 504> 608 51<255 303 255 318>
VStem: 46 69<225 344.5 225 361.5> 438 66<42 133 133 133 225 285> 441 63<431 530>
AnchorPoint: "Anchor-3" 279 530 basechar 0
AnchorPoint: "Anchor-0" 278 -150 basechar 0
LayerCount: 2
Fore
SplineSet
279 608 m 0xef
 201 608 150 657 144 732 c 1
 192 732 l 1
 198 682 231 659 279 659 c 0
 327 659 359 682 366 732 c 1
 413 732 l 1
 407 657 357 608 279 608 c 0xef
278 -162 m 0
 165 -162 81 -99 65 -7 c 1
 134 -3 l 1
 146 -61 191 -99 278 -99 c 0
 380 -99 438 -50 438 42 c 2
 438 133 l 1
 410 69 349 27 273 27 c 0
 138 27 46 131 46 285 c 0
 46 438 137 542 270 542 c 0xf7
 350 542 416 497 441 431 c 1
 441 530 l 1xee80
 504 530 l 1
 504 42 l 2
 504 -85 419 -162 278 -162 c 0
276 90 m 0
 374 90 438 165 438 285 c 0
 440 401 374 479 276 479 c 0
 176 479 115 404 115 285 c 0
 115 165 177 90 276 90 c 0
EndSplineSet
EndChar

StartChar: gcaron
Encoding: 487 487 208
Width: 586
GlyphClass: 2
Flags: MW
HStem: -162 63<234.5 329 234.5 348.5> -7 21G<65 65> 27 63<226.5 311> 479 63<226 310 203.5 325> 510 20G<441 504 504 504> 602 130<155 314 155 244>
VStem: 46 69<225 344.5 225 361.5> 438 66<42 133 133 133 225 285> 441 63<431 530>
AnchorPoint: "Anchor-3" 279 530 basechar 0
AnchorPoint: "Anchor-0" 278 -150 basechar 0
LayerCount: 2
Fore
SplineSet
155 732 m 1xef
 211 732 l 1
 279 639 l 1
 347 732 l 1
 403 732 l 1
 314 602 l 1
 244 602 l 1
 155 732 l 1xef
278 -162 m 0
 165 -162 81 -99 65 -7 c 1
 134 -3 l 1
 146 -61 191 -99 278 -99 c 0
 380 -99 438 -50 438 42 c 2
 438 133 l 1
 410 69 349 27 273 27 c 0
 138 27 46 131 46 285 c 0
 46 438 137 542 270 542 c 0xf7
 350 542 416 497 441 431 c 1
 441 530 l 1xee80
 504 530 l 1
 504 42 l 2
 504 -85 419 -162 278 -162 c 0
276 90 m 0
 374 90 438 165 438 285 c 0
 440 401 374 479 276 479 c 0
 176 479 115 404 115 285 c 0
 115 165 177 90 276 90 c 0
EndSplineSet
EndChar

StartChar: gcircumflex
Encoding: 285 285 209
Width: 586
GlyphClass: 2
Flags: MW
HStem: -162 63<234.5 329 234.5 348.5> -7 21G<65 65> 27 63<226.5 311> 479 63<226 310 203.5 325> 510 20G<441 504 504 504> 602 130<155 314 155 314 244 348 244 404>
VStem: 46 69<225 344.5 225 361.5> 438 66<42 133 133 133 225 285> 441 63<431 530>
AnchorPoint: "Anchor-3" 279 530 basechar 0
AnchorPoint: "Anchor-0" 278 -150 basechar 0
LayerCount: 2
Fore
SplineSet
155 602 m 1xef
 244 732 l 1
 314 732 l 1
 404 602 l 1
 348 602 l 1
 279 695 l 1
 211 602 l 1
 155 602 l 1xef
278 -162 m 0
 165 -162 81 -99 65 -7 c 1
 134 -3 l 1
 146 -61 191 -99 278 -99 c 0
 380 -99 438 -50 438 42 c 2
 438 133 l 1
 410 69 349 27 273 27 c 0
 138 27 46 131 46 285 c 0
 46 438 137 542 270 542 c 0xf7
 350 542 416 497 441 431 c 1
 441 530 l 1xee80
 504 530 l 1
 504 42 l 2
 504 -85 419 -162 278 -162 c 0
276 90 m 0
 374 90 438 165 438 285 c 0
 440 401 374 479 276 479 c 0
 176 479 115 404 115 285 c 0
 115 165 177 90 276 90 c 0
EndSplineSet
EndChar

StartChar: uni0123
Encoding: 291 291 210
Width: 586
GlyphClass: 2
Flags: MW
HStem: -162 63<234.5 329 234.5 348.5> -7 21G<65 65> 27 63<226.5 311> 479 63<226 310 203.5 325> 510 20G<441 504 504 504> 608 76<236 319 287 319 287 319>
VStem: 46 69<225 344.5 225 361.5> 236 83<608 677 677 677> 438 66<42 133 133 133 225 285> 441 63<431 530>
AnchorPoint: "Anchor-3" 279 530 basechar 0
AnchorPoint: "Anchor-0" 278 -150 basechar 0
LayerCount: 2
Fore
SplineSet
236 608 m 1xef80
 236 677 l 1
 290 774 l 1
 336 774 l 1
 287 684 l 1
 319 684 l 1
 319 608 l 1
 236 608 l 1xef80
278 -162 m 0
 165 -162 81 -99 65 -7 c 1
 134 -3 l 1
 146 -61 191 -99 278 -99 c 0
 380 -99 438 -50 438 42 c 2
 438 133 l 1
 410 69 349 27 273 27 c 0
 138 27 46 131 46 285 c 0
 46 438 137 542 270 542 c 0xf780
 350 542 416 497 441 431 c 1
 441 530 l 1xef40
 504 530 l 1
 504 42 l 2
 504 -85 419 -162 278 -162 c 0
276 90 m 0
 374 90 438 165 438 285 c 0
 440 401 374 479 276 479 c 0
 176 479 115 404 115 285 c 0
 115 165 177 90 276 90 c 0
EndSplineSet
EndChar

StartChar: gdotaccent
Encoding: 289 289 211
Width: 586
GlyphClass: 2
Flags: MW
HStem: -162 63<234.5 329 234.5 348.5> -7 21G<65 65> 27 63<226.5 311> 479 63<226 310 203.5 325> 510 20G<441 504 504 504> 618 89<244 314 244 314>
VStem: 46 69<225 344.5 225 361.5> 244 70<618 707 618 707> 438 66<42 133 133 133 225 285> 441 63<431 530>
AnchorPoint: "Anchor-3" 279 530 basechar 0
AnchorPoint: "Anchor-0" 278 -150 basechar 0
LayerCount: 2
Fore
SplineSet
244 618 m 1xef80
 244 707 l 1
 314 707 l 1
 314 618 l 1
 244 618 l 1xef80
278 -162 m 0
 165 -162 81 -99 65 -7 c 1
 134 -3 l 1
 146 -61 191 -99 278 -99 c 0
 380 -99 438 -50 438 42 c 2
 438 133 l 1
 410 69 349 27 273 27 c 0
 138 27 46 131 46 285 c 0
 46 438 137 542 270 542 c 0xf780
 350 542 416 497 441 431 c 1
 441 530 l 1xef40
 504 530 l 1
 504 42 l 2
 504 -85 419 -162 278 -162 c 0
276 90 m 0
 374 90 438 165 438 285 c 0
 440 401 374 479 276 479 c 0
 176 479 115 404 115 285 c 0
 115 165 177 90 276 90 c 0
EndSplineSet
Substitution2: "'ss08' Style Set 8 in Latin lookup 41 subtable" gdotaccent.ss08
Substitution2: "'aalt' Access All Alternates in Latin lookup 0 subtable" gdotaccent.ss08
EndChar

StartChar: uni1E21
Encoding: 7713 7713 212
Width: 586
GlyphClass: 2
Flags: MW
HStem: -162 63<234.5 329 234.5 348.5> -7 21G<65 65> 27 63<226.5 311> 479 63<226 310 203.5 325> 510 20G<441 504 504 504> 631 58<148 410 148 410>
VStem: 46 69<225 344.5 225 361.5> 148 262<631 689 631 689> 438 66<42 133 133 133 225 285> 441 63<431 530>
AnchorPoint: "Anchor-3" 279 530 basechar 0
AnchorPoint: "Anchor-0" 278 -150 basechar 0
LayerCount: 2
Fore
SplineSet
148 631 m 1xf7
 148 689 l 1
 410 689 l 1
 410 631 l 1
 148 631 l 1xf7
278 -162 m 0
 165 -162 81 -99 65 -7 c 1
 134 -3 l 1
 146 -61 191 -99 278 -99 c 0
 380 -99 438 -50 438 42 c 2
 438 133 l 1
 410 69 349 27 273 27 c 0
 138 27 46 131 46 285 c 0
 46 438 137 542 270 542 c 0xf680
 350 542 416 497 441 431 c 1
 441 530 l 1xee40
 504 530 l 1
 504 42 l 2xee80
 504 -85 419 -162 278 -162 c 0
276 90 m 0
 374 90 438 165 438 285 c 0
 440 401 374 479 276 479 c 0
 176 479 115 404 115 285 c 0
 115 165 177 90 276 90 c 0
EndSplineSet
EndChar

StartChar: uni01E5
Encoding: 485 485 213
Width: 616
GlyphClass: 2
Flags: MW
HStem: -162 63<234.5 329 234.5 348.5> -7 21G<65 65> 27 63<226.5 311> 253 56<234 437 234 438 504 574> 479 63<226 310 203.5 321.5> 510 20G<441 504 504 504>
VStem: 46 69<225 344.5 225 361.5> 438 66<42 133 133 133> 441 63<431 530>
AnchorPoint: "Anchor-3" 279 530 basechar 0
AnchorPoint: "Anchor-0" 278 -150 basechar 0
LayerCount: 2
Fore
SplineSet
278 -162 m 0xf7
 165 -162 81 -99 65 -7 c 1
 134 -3 l 1
 146 -61 191 -99 278 -99 c 0
 380 -99 438 -50 438 42 c 2
 438 133 l 1
 410 69 349 27 273 27 c 0
 138 27 46 131 46 285 c 0
 46 438 137 542 270 542 c 0xfb
 350 542 416 497 441 431 c 1
 441 530 l 1xf680
 504 530 l 1
 504 309 l 1
 574 309 l 1
 574 253 l 1
 504 253 l 1
 504 42 l 2
 504 -85 419 -162 278 -162 c 0xf7
276 90 m 0
 365 90 425 152 437 253 c 1
 234 253 l 1
 234 309 l 1
 438 309 l 1
 430 411 367 479 276 479 c 0
 176 479 115 404 115 285 c 0
 115 165 177 90 276 90 c 0
EndSplineSet
EndChar

StartChar: h
Encoding: 104 104 214
Width: 573
GlyphClass: 2
Flags: MW
HStem: 0 21G<82 82 82 148 425 425 425 491> 483 59<276 343> 690 20G<82 148 148 148>
VStem: 82 66<0 316 436 710> 425 66<0 317 317 341 0 370>
AnchorPoint: "Anchor-3" 115 690 basechar 0
AnchorPoint: "Anchor-1" 153 617 basechar 0
AnchorPoint: "Anchor-0" 287 0 basechar 0
LayerCount: 2
Fore
SplineSet
82 0 m 1
 82 710 l 1
 148 710 l 1
 148 436 l 1
 173 508 237 542 315 542 c 0
 431 542 491 457 491 341 c 2
 491 0 l 1
 425 0 l 1
 425 317 l 2
 425 423 386 483 300 483 c 0
 206 483 148 420 148 316 c 2
 148 0 l 1
 82 0 l 1
EndSplineSet
EndChar

StartChar: hbar
Encoding: 295 295 215
Width: 573
GlyphClass: 2
Flags: MW
HStem: 0 21G<82 82 82 148 425 425 425 491> 483 59<276 343> 590 54<10 82 10 82 148 297> 590 120<10 148 10 148 82 148 82 297>
VStem: 82 66<0 316 436 590 644 710> 425 66<0 317 317 341 0 370>
AnchorPoint: "Anchor-3" 115 690 basechar 0
AnchorPoint: "Anchor-1" 153 617 basechar 0
AnchorPoint: "Anchor-0" 287 0 basechar 0
LayerCount: 2
Fore
SplineSet
82 0 m 1xdc
 82 590 l 1
 10 590 l 1xdc
 10 644 l 1
 82 644 l 1xec
 82 710 l 1
 148 710 l 1xdc
 148 644 l 1
 297 644 l 1xec
 297 590 l 1
 148 590 l 1
 148 436 l 1
 173 508 237 542 315 542 c 0
 431 542 491 457 491 341 c 2
 491 0 l 1
 425 0 l 1
 425 317 l 2
 425 423 386 483 300 483 c 0
 206 483 148 420 148 316 c 2
 148 0 l 1
 82 0 l 1xdc
EndSplineSet
EndChar

StartChar: hcircumflex
Encoding: 293 293 216
Width: 573
GlyphClass: 2
Flags: MW
HStem: 0 21G<82 82 82 148 425 425 425 491> 483 59<276 343> 690 20G<82 148 148 148> 762 130<-9 150 -9 150 80 183 80 239>
VStem: 82 66<0 316 436 710> 425 66<0 317 317 341 0 370>
AnchorPoint: "Anchor-3" 115 690 basechar 0
AnchorPoint: "Anchor-1" 153 617 basechar 0
AnchorPoint: "Anchor-0" 287 0 basechar 0
LayerCount: 2
Fore
SplineSet
-9 762 m 1
 80 892 l 1
 150 892 l 1
 239 762 l 1
 183 762 l 1
 115 855 l 1
 47 762 l 1
 -9 762 l 1
82 0 m 1
 82 710 l 1
 148 710 l 1
 148 436 l 1
 173 508 237 542 315 542 c 0
 431 542 491 457 491 341 c 2
 491 0 l 1
 425 0 l 1
 425 317 l 2
 425 423 386 483 300 483 c 0
 206 483 148 420 148 316 c 2
 148 0 l 1
 82 0 l 1
EndSplineSet
EndChar

StartChar: i
Encoding: 105 105 217
Width: 229
GlyphClass: 2
Flags: MW
HStem: 0 21G<82 82 82 148> 510 20G<82 148 148 148> 618 89<80 150 80 150>
VStem: 80 70<618 707 618 707> 82 66<0 530 0 530>
AnchorPoint: "Anchor-3" 115 530 basechar 0
AnchorPoint: "Anchor-2" 148 0 basechar 0
AnchorPoint: "Anchor-0" 115 0 basechar 0
LayerCount: 2
Fore
SplineSet
80 618 m 1xf0
 80 707 l 1
 150 707 l 1
 150 618 l 1
 80 618 l 1xf0
82 0 m 1xe8
 82 530 l 1
 148 530 l 1
 148 0 l 1
 82 0 l 1xe8
EndSplineSet
Substitution2: "'ss08' Style Set 8 in Latin lookup 41 subtable" i.ss08
Substitution2: "'locl' Localized Forms in Latin lookup 9 subtable" i.loclTRK
Substitution2: "Single Substitution lookup 3 subtable" dotlessi
AlternateSubs2: "'aalt' Access All Alternates in Latin lookup 1 subtable" i.loclTRK i.ss08
EndChar

StartChar: dotlessi
Encoding: 305 305 218
Width: 229
GlyphClass: 2
Flags: MW
HStem: 0 21G<82 82 82 148> 510 20G<82 148 148 148>
VStem: 82 66<0 530 0 530>
AnchorPoint: "Anchor-3" 115 530 basechar 0
AnchorPoint: "Anchor-2" 148 0 basechar 0
AnchorPoint: "Anchor-0" 115 0 basechar 0
LayerCount: 2
Fore
SplineSet
82 0 m 1
 82 530 l 1
 148 530 l 1
 148 0 l 1
 82 0 l 1
EndSplineSet
EndChar

StartChar: iacute
Encoding: 237 237 219
Width: 229
GlyphClass: 2
Flags: MW
HStem: 0 21G<82 82 82 148> 510 20G<82 148 148 148> 602 124<85 227 85 227>
VStem: 82 66<0 530 0 530>
AnchorPoint: "Anchor-3" 115 530 basechar 0
AnchorPoint: "Anchor-2" 148 0 basechar 0
AnchorPoint: "Anchor-0" 115 0 basechar 0
LayerCount: 2
Fore
SplineSet
85 602 m 1
 153 726 l 1
 227 726 l 1
 141 602 l 1
 85 602 l 1
82 0 m 1
 82 530 l 1
 148 530 l 1
 148 0 l 1
 82 0 l 1
EndSplineSet
EndChar

StartChar: icircumflex
Encoding: 238 238 220
Width: 229
GlyphClass: 2
Flags: MW
HStem: 0 21G<82 82 82 148> 510 20G<82 148 148 148> 602 130<-9 150 -9 150 80 183 80 239>
VStem: 82 66<0 530 0 530>
AnchorPoint: "Anchor-3" 115 530 basechar 0
AnchorPoint: "Anchor-2" 148 0 basechar 0
AnchorPoint: "Anchor-0" 115 0 basechar 0
LayerCount: 2
Fore
SplineSet
-9 602 m 1
 80 732 l 1
 150 732 l 1
 239 602 l 1
 183 602 l 1
 115 695 l 1
 47 602 l 1
 -9 602 l 1
82 0 m 1
 82 530 l 1
 148 530 l 1
 148 0 l 1
 82 0 l 1
EndSplineSet
EndChar

StartChar: idieresis
Encoding: 239 239 221
Width: 229
GlyphClass: 2
Flags: MW
HStem: 0 21G<82 82 82 148> 510 20G<82 148 148 148> 618 89<0 70 0 70 159 229>
VStem: 0 70<618 707 618 707> 82 66<0 530 0 530> 159 70<618 707 618 707>
AnchorPoint: "Anchor-3" 115 530 basechar 0
AnchorPoint: "Anchor-2" 148 0 basechar 0
AnchorPoint: "Anchor-0" 115 0 basechar 0
LayerCount: 2
Fore
SplineSet
0 618 m 1
 0 707 l 1
 70 707 l 1
 70 618 l 1
 0 618 l 1
159 618 m 1
 159 707 l 1
 229 707 l 1
 229 618 l 1
 159 618 l 1
82 0 m 1xe8
 82 530 l 1
 148 530 l 1
 148 0 l 1
 82 0 l 1xe8
EndSplineSet
Substitution2: "'ss08' Style Set 8 in Latin lookup 41 subtable" idieresis.ss08
Substitution2: "'aalt' Access All Alternates in Latin lookup 0 subtable" idieresis.ss08
EndChar

StartChar: i.loclTRK
Encoding: 65576 -1 222
Width: 229
GlyphClass: 2
Flags: MW
HStem: 0 21G<82 82 82 148> 510 20G<82 148 148 148> 618 89<80 150 80 150>
VStem: 80 70<618 707 618 707> 82 66<0 530 0 530>
AnchorPoint: "Anchor-3" 115 530 basechar 0
AnchorPoint: "Anchor-2" 148 0 basechar 0
AnchorPoint: "Anchor-0" 115 0 basechar 0
LayerCount: 2
Fore
SplineSet
80 618 m 1xf0
 80 707 l 1
 150 707 l 1
 150 618 l 1
 80 618 l 1xf0
82 0 m 1xe8
 82 530 l 1
 148 530 l 1
 148 0 l 1
 82 0 l 1xe8
EndSplineSet
Substitution2: "'ss08' Style Set 8 in Latin lookup 41 subtable" i.loclTRK.ss08
Substitution2: "'aalt' Access All Alternates in Latin lookup 0 subtable" i.loclTRK.ss08
EndChar

StartChar: igrave
Encoding: 236 236 223
Width: 229
GlyphClass: 2
Flags: MW
HStem: 0 21G<82 82 82 148> 510 20G<82 148 148 148> 608 124<3 90 3 145>
VStem: 82 66<0 530 0 530>
AnchorPoint: "Anchor-3" 115 530 basechar 0
AnchorPoint: "Anchor-2" 148 0 basechar 0
AnchorPoint: "Anchor-0" 115 0 basechar 0
LayerCount: 2
Fore
SplineSet
90 608 m 1
 3 732 l 1
 77 732 l 1
 145 608 l 1
 90 608 l 1
82 0 m 1
 82 530 l 1
 148 530 l 1
 148 0 l 1
 82 0 l 1
EndSplineSet
EndChar

StartChar: imacron
Encoding: 299 299 224
Width: 229
GlyphClass: 2
Flags: MW
HStem: 0 21G<82 82 82 148> 510 20G<82 148 148 148> 631 58<-16 245 -16 245>
VStem: 82 66<0 530 0 530>
AnchorPoint: "Anchor-3" 115 530 basechar 0
AnchorPoint: "Anchor-2" 148 0 basechar 0
AnchorPoint: "Anchor-0" 115 0 basechar 0
LayerCount: 2
Fore
SplineSet
-16 631 m 1
 -16 689 l 1
 245 689 l 1
 245 631 l 1
 -16 631 l 1
82 0 m 1
 82 530 l 1
 148 530 l 1
 148 0 l 1
 82 0 l 1
EndSplineSet
EndChar

StartChar: iogonek
Encoding: 303 303 225
Width: 229
GlyphClass: 2
Flags: MW
HStem: -204 54<107 123> 0 21G<82 82 82 93 148 148> 510 20G<82 148 148 148> 618 89<80 150 80 150>
VStem: 22 62<-131 -119> 80 70<618 707 618 707> 82 66<0 530 0 530>
AnchorPoint: "Anchor-3" 115 530 basechar 0
AnchorPoint: "Anchor-2" 148 0 basechar 0
AnchorPoint: "Anchor-0" 115 0 basechar 0
LayerCount: 2
Fore
SplineSet
80 618 m 1xf4
 80 707 l 1
 150 707 l 1
 150 618 l 1
 80 618 l 1xf4
82 0 m 1xf2
 82 530 l 1
 148 530 l 1
 148 0 l 1xf2
 116 -45 l 2
 92 -79 84 -99 84 -121 c 0
 84 -141 98 -150 116 -150 c 0
 136 -150 152 -145 165 -136 c 1
 185 -180 l 1
 169 -194 139 -204 107 -204 c 0
 56 -204 22 -183 22 -137 c 0xf8
 22 -101 49 -61 76 -23 c 2
 93 0 l 1
 82 0 l 1xf2
EndSplineSet
Substitution2: "'ss08' Style Set 8 in Latin lookup 41 subtable" iogonek.ss08
Substitution2: "'aalt' Access All Alternates in Latin lookup 0 subtable" iogonek.ss08
EndChar

StartChar: itilde
Encoding: 297 297 226
Width: 229
GlyphClass: 2
Flags: MW
HStem: 0 21G<82 82 82 148> 510 20G<82 148 148 148> 617 45<167 187.5 167 198> 673 45<39 62.5>
VStem: -37 43<610 610> 82 66<0 530 0 530> 218 43<728 728>
AnchorPoint: "Anchor-3" 115 530 basechar 0
AnchorPoint: "Anchor-2" 148 0 basechar 0
AnchorPoint: "Anchor-0" 115 0 basechar 0
LayerCount: 2
Fore
SplineSet
172 617 m 0
 146 617 125 627 104 646 c 0
 84 665 73 673 52 673 c 0
 26 673 8 657 6 610 c 1
 -37 610 l 1
 -34 680 2 718 52 718 c 0xdc
 84 718 104 706 126 686 c 0
 146 669 159 662 175 662 c 0
 200 662 214 678 218 728 c 1
 261 728 l 1
 257 658 224 617 172 617 c 0
82 0 m 1
 82 530 l 1
 148 530 l 1
 148 0 l 1
 82 0 l 1
EndSplineSet
EndChar

StartChar: ij
Encoding: 307 307 227
Width: 470
GlyphClass: 2
Flags: MW
HStem: -150 59<215 253 215 253 253 260> 0 21G<82 82 82 148> 510 20G<82 148 148 148 322 388 388 388> 618 89<80 150 80 150 320 390>
VStem: 80 70<618 707 618 707> 82 66<0 530 0 530> 215 173<-150 -24 -91 -24> 320 70<618 707 618 707> 322 66<-20 530>
AnchorPoint: "Anchor-3" 355 530 basechar 0
AnchorPoint: "Anchor-2" 148 0 basechar 0
AnchorPoint: "Anchor-0" 345 -150 basechar 0
LayerCount: 2
Fore
SplineSet
80 618 m 1xf9
 80 707 l 1
 150 707 l 1
 150 618 l 1
 80 618 l 1xf9
320 618 m 1
 320 707 l 1
 390 707 l 1
 390 618 l 1
 320 618 l 1
82 0 m 1xf6
 82 530 l 1
 148 530 l 1
 148 0 l 1
 82 0 l 1xf6
215 -150 m 1
 215 -91 l 1xf6
 253 -91 l 2
 299 -91 322 -75 322 -20 c 2
 322 530 l 1
 388 530 l 1
 388 -24 l 2xf480
 388 -117 351 -150 260 -150 c 2
 215 -150 l 1
EndSplineSet
Substitution2: "'ss08' Style Set 8 in Latin lookup 41 subtable" ij.ss08
Substitution2: "'aalt' Access All Alternates in Latin lookup 0 subtable" ij.ss08
EndChar

StartChar: j
Encoding: 106 106 228
Width: 250
GlyphClass: 2
Flags: MW
HStem: -150 59<-5 33 -5 33 33 40> 510 20G<102 168 168 168> 618 89<100 170 100 170>
VStem: -5 173<-150 -24 -91 -24> 100 70<618 707 618 707> 102 66<-20 530>
AnchorPoint: "Anchor-3" 135 530 basechar 0
AnchorPoint: "Anchor-0" 125 -150 basechar 0
LayerCount: 2
Fore
SplineSet
100 618 m 1xe8
 100 707 l 1
 170 707 l 1
 170 618 l 1
 100 618 l 1xe8
-5 -150 m 1xf0
 -5 -91 l 1xf0
 33 -91 l 2
 79 -91 102 -75 102 -20 c 2
 102 530 l 1
 168 530 l 1
 168 -24 l 2xe4
 168 -117 131 -150 40 -150 c 2
 -5 -150 l 1xf0
EndSplineSet
Substitution2: "'ss08' Style Set 8 in Latin lookup 41 subtable" j.ss08
Substitution2: "Single Substitution lookup 16 subtable" uni006A0301
Substitution2: "Single Substitution lookup 3 subtable" uni0237
AlternateSubs2: "'aalt' Access All Alternates in Latin lookup 1 subtable" uni006A0301 j.ss08
EndChar

StartChar: uni0237
Encoding: 567 567 229
Width: 250
GlyphClass: 2
Flags: MW
HStem: -150 59<-5 33 -5 33 33 40> 510 20G<102 168 168 168>
VStem: -5 173<-150 -24 -91 -24> 102 66<-20 530>
AnchorPoint: "Anchor-3" 135 530 basechar 0
AnchorPoint: "Anchor-0" 125 -150 basechar 0
LayerCount: 2
Fore
SplineSet
-5 -150 m 1xe0
 -5 -91 l 1xe0
 33 -91 l 2
 79 -91 102 -75 102 -20 c 2
 102 530 l 1
 168 530 l 1
 168 -24 l 2xd0
 168 -117 131 -150 40 -150 c 2
 -5 -150 l 1xe0
EndSplineSet
EndChar

StartChar: uni006A0301
Encoding: 65577 -1 230
Width: 250
GlyphClass: 2
Flags: MW
HStem: -150 59<-5 33 -5 33 33 40> 510 20G<102 168 168 168> 602 124<106 248 106 248>
VStem: -5 173<-150 -24 -91 -24> 102 66<-20 530>
AnchorPoint: "Anchor-3" 135 530 basechar 0
AnchorPoint: "Anchor-0" 125 -150 basechar 0
LayerCount: 2
Fore
SplineSet
106 602 m 1xf0
 174 726 l 1
 248 726 l 1
 161 602 l 1
 106 602 l 1xf0
-5 -150 m 1
 -5 -91 l 1xf0
 33 -91 l 2
 79 -91 102 -75 102 -20 c 2
 102 530 l 1
 168 530 l 1
 168 -24 l 2xe8
 168 -117 131 -150 40 -150 c 2
 -5 -150 l 1
EndSplineSet
EndChar

StartChar: jcircumflex
Encoding: 309 309 231
Width: 250
GlyphClass: 2
Flags: MW
HStem: -150 59<-5 33 -5 33 33 40> 510 20G<102 168 168 168> 602 130<11 171 11 171 101 204 101 260>
VStem: -5 173<-150 -24 -91 -24> 102 66<-20 530>
AnchorPoint: "Anchor-3" 135 530 basechar 0
AnchorPoint: "Anchor-0" 125 -150 basechar 0
LayerCount: 2
Fore
SplineSet
11 602 m 1xf0
 101 732 l 1
 171 732 l 1
 260 602 l 1
 204 602 l 1
 136 695 l 1
 67 602 l 1
 11 602 l 1xf0
-5 -150 m 1
 -5 -91 l 1xf0
 33 -91 l 2
 79 -91 102 -75 102 -20 c 2
 102 530 l 1
 168 530 l 1
 168 -24 l 2xe8
 168 -117 131 -150 40 -150 c 2
 -5 -150 l 1
EndSplineSet
EndChar

StartChar: k
Encoding: 107 107 232
Width: 583
GlyphClass: 2
Flags: MW
HStem: 0 21G<82 82 82 148 456 456 456 536> 510 20G<435 523 523 523> 690 20G<82 148 148 148>
VStem: 82 66<0 144 228 710>
AnchorPoint: "Anchor-3" 115 670 basechar 0
AnchorPoint: "Anchor-0" 296 0 basechar 0
LayerCount: 2
Fore
SplineSet
82 0 m 1
 82 710 l 1
 148 710 l 1
 148 228 l 1
 435 530 l 1
 523 530 l 1
 305 304 l 1
 536 0 l 1
 456 0 l 1
 261 260 l 1
 148 144 l 1
 148 0 l 1
 82 0 l 1
EndSplineSet
EndChar

StartChar: uni01E9
Encoding: 489 489 233
Width: 583
GlyphClass: 2
Flags: MW
HStem: 0 21G<82 82 82 148 456 456 456 536> 510 20G<435 523 523 523> 690 20G<82 148 148 148> 742 130<-10 150 -10 80>
VStem: 82 66<0 144 228 710>
AnchorPoint: "Anchor-3" 115 670 basechar 0
AnchorPoint: "Anchor-0" 296 0 basechar 0
LayerCount: 2
Fore
SplineSet
-10 872 m 1
 46 872 l 1
 115 779 l 1
 183 872 l 1
 239 872 l 1
 150 742 l 1
 80 742 l 1
 -10 872 l 1
82 0 m 1
 82 710 l 1
 148 710 l 1
 148 228 l 1
 435 530 l 1
 523 530 l 1
 305 304 l 1
 536 0 l 1
 456 0 l 1
 261 260 l 1
 148 144 l 1
 148 0 l 1
 82 0 l 1
EndSplineSet
EndChar

StartChar: uni0137
Encoding: 311 311 234
Width: 583
GlyphClass: 2
Flags: MW
HStem: -127 76<255 287 255 338> 0 21G<82 82 82 148 456 456 456 536> 510 20G<435 523 523 523> 690 20G<82 148 148 148>
VStem: 82 66<0 144 228 710> 255 83<-120 -51 -120 -51 -120 -51>
AnchorPoint: "Anchor-3" 115 670 basechar 0
AnchorPoint: "Anchor-0" 296 -216 basechar 0
LayerCount: 2
Fore
SplineSet
82 0 m 1
 82 710 l 1
 148 710 l 1
 148 228 l 1
 435 530 l 1
 523 530 l 1
 305 304 l 1
 536 0 l 1
 456 0 l 1
 261 260 l 1
 148 144 l 1
 148 0 l 1
 82 0 l 1
238 -216 m 1
 287 -127 l 1
 255 -127 l 1
 255 -51 l 1
 338 -51 l 1
 338 -120 l 1
 284 -216 l 1
 238 -216 l 1
EndSplineSet
EndChar

StartChar: l
Encoding: 108 108 235
Width: 257
GlyphClass: 2
Flags: MW
HStem: 0 59<149 230 188 230 188 230> 690 20G<82 148 148 148>
VStem: 82 66<93 98 98 710>
AnchorPoint: "Anchor-4" 184 530 basechar 0
AnchorPoint: "Anchor-3" 115 670 basechar 0
AnchorPoint: "Anchor-1" 121 386 basechar 0
AnchorPoint: "Anchor-0" 158 0 basechar 0
LayerCount: 2
Fore
SplineSet
179 0 m 2
 119 0 82 29 82 93 c 2
 82 710 l 1
 148 710 l 1
 148 98 l 2
 148 72 161 59 188 59 c 2
 230 59 l 1
 230 0 l 1
 179 0 l 2
EndSplineSet
Substitution2: "'ss03' Style Set 3 in Latin lookup 36 subtable" l.ss03
Substitution2: "'aalt' Access All Alternates in Latin lookup 0 subtable" l.ss03
EndChar

StartChar: lacute
Encoding: 314 314 236
Width: 257
GlyphClass: 2
Flags: MW
HStem: 0 59<149 230 188 230 188 230> 690 20G<82 148 148 148> 742 124<85 227 85 227>
VStem: 82 66<93 98 98 710>
AnchorPoint: "Anchor-4" 184 530 basechar 0
AnchorPoint: "Anchor-3" 115 670 basechar 0
AnchorPoint: "Anchor-1" 121 386 basechar 0
AnchorPoint: "Anchor-0" 158 0 basechar 0
LayerCount: 2
Fore
SplineSet
85 742 m 1
 153 866 l 1
 227 866 l 1
 141 742 l 1
 85 742 l 1
179 0 m 2
 119 0 82 29 82 93 c 2
 82 710 l 1
 148 710 l 1
 148 98 l 2
 148 72 161 59 188 59 c 2
 230 59 l 1
 230 0 l 1
 179 0 l 2
EndSplineSet
Substitution2: "'ss03' Style Set 3 in Latin lookup 36 subtable" lacute.ss03
Substitution2: "'aalt' Access All Alternates in Latin lookup 0 subtable" lacute.ss03
EndChar

StartChar: lcaron
Encoding: 318 318 237
Width: 296
GlyphClass: 2
Flags: MW
HStem: 0 59<149 230 188 230 188 230> 471 239<82 211 242 261> 690 20G<82 148 148 148 242 309 309 309>
VStem: 82 66<93 98 98 710>
AnchorPoint: "Anchor-4" 184 530 basechar 0
AnchorPoint: "Anchor-3" 115 670 basechar 0
AnchorPoint: "Anchor-1" 121 386 basechar 0
AnchorPoint: "Anchor-0" 158 0 basechar 0
LayerCount: 2
Fore
SplineSet
179 0 m 2xb0
 119 0 82 29 82 93 c 2
 82 710 l 1
 148 710 l 1
 148 98 l 2
 148 72 161 59 188 59 c 2
 230 59 l 1
 230 0 l 1
 179 0 l 2xb0
211 471 m 1xd0
 242 710 l 1
 309 710 l 1
 261 471 l 1
 211 471 l 1xd0
EndSplineSet
Substitution2: "'ss03' Style Set 3 in Latin lookup 36 subtable" lcaron.ss03
Substitution2: "'aalt' Access All Alternates in Latin lookup 0 subtable" lcaron.ss03
EndChar

StartChar: uni013C
Encoding: 316 316 238
Width: 257
GlyphClass: 2
Flags: MW
HStem: -127 76<116 148 116 200> 0 59<149 230 188 230 188 230> 690 20G<82 148 148 148>
VStem: 82 66<93 98 98 710> 116 84<-120 -51 -120 -51 -120 -51>
AnchorPoint: "Anchor-4" 184 530 basechar 0
AnchorPoint: "Anchor-3" 115 670 basechar 0
AnchorPoint: "Anchor-1" 121 386 basechar 0
AnchorPoint: "Anchor-0" 158 -216 basechar 0
LayerCount: 2
Fore
SplineSet
179 0 m 2xf0
 119 0 82 29 82 93 c 2
 82 710 l 1
 148 710 l 1
 148 98 l 2
 148 72 161 59 188 59 c 2
 230 59 l 1
 230 0 l 1
 179 0 l 2xf0
100 -216 m 1
 148 -127 l 1
 116 -127 l 1
 116 -51 l 1
 200 -51 l 1
 200 -120 l 1xe8
 146 -216 l 1
 100 -216 l 1
EndSplineSet
Substitution2: "'ss03' Style Set 3 in Latin lookup 36 subtable" uni013C.ss03
Substitution2: "'locl' Localized Forms in Latin lookup 11 subtable" uni013C.loclMAH
AlternateSubs2: "'aalt' Access All Alternates in Latin lookup 1 subtable" uni013C.loclMAH uni013C.ss03
EndChar

StartChar: lslash
Encoding: 322 322 239
Width: 257
GlyphClass: 2
Flags: MW
HStem: 0 59<149 230 188 230 188 230> 690 20G<82 148 148 148>
VStem: 82 66<93 98 98 338 338 338 427 710>
AnchorPoint: "Anchor-4" 184 530 basechar 0
AnchorPoint: "Anchor-3" 115 670 basechar 0
AnchorPoint: "Anchor-1" 121 386 basechar 0
AnchorPoint: "Anchor-0" 158 0 basechar 0
LayerCount: 2
Fore
SplineSet
179 0 m 2
 119 0 82 29 82 93 c 2
 82 338 l 1
 11 299 l 1
 11 353 l 1
 82 391 l 1
 82 710 l 1
 148 710 l 1
 148 427 l 1
 231 473 l 1
 231 419 l 1
 148 374 l 1
 148 98 l 2
 148 72 161 59 188 59 c 2
 230 59 l 1
 230 0 l 1
 179 0 l 2
EndSplineSet
Substitution2: "'ss03' Style Set 3 in Latin lookup 36 subtable" lslash.ss03
Substitution2: "'aalt' Access All Alternates in Latin lookup 0 subtable" lslash.ss03
EndChar

StartChar: m
Encoding: 109 109 240
Width: 867
GlyphClass: 2
Flags: MW
HStem: 0 21G<82 82 82 148 399 399 399 465 719 719 719 785> 483 59<264.5 324 576 639> 510 20G<82 142 142 142>
VStem: 82 61 82 66<0 317 0 530> 399 66<0 314 0 317 0 368.5> 719 66<0 320 320 340 0 372.5>
AnchorPoint: "Anchor-3" 432 530 basechar 0
AnchorPoint: "Anchor-0" 432 0 basechar 0
LayerCount: 2
Fore
SplineSet
82 0 m 1xce
 82 530 l 1xae
 142 530 l 1xb6
 144 430 l 1xd6
 168 498 228 542 301 542 c 0
 377 542 433 497 454 421 c 1
 477 497 536 542 616 542 c 0
 722 542 785 465 785 340 c 2
 785 0 l 1
 719 0 l 1
 719 320 l 2
 719 425 677 483 601 483 c 0
 521 483 465 415 465 314 c 2
 465 0 l 1
 399 0 l 1
 399 317 l 2
 399 420 363 483 285 483 c 0
 204 483 148 416 148 317 c 2
 148 0 l 1
 82 0 l 1xce
EndSplineSet
EndChar

StartChar: n
Encoding: 110 110 241
Width: 573
GlyphClass: 2
Flags: MW
HStem: 0 21G<82 82 82 148 425 425 425 491> 483 59<274.5 344> 510 20G<82 142 142 142>
VStem: 82 61 82 66<0 317 0 530> 425 66<0 317 317 341 0 368.5>
AnchorPoint: "Anchor-3" 287 530 basechar 0
AnchorPoint: "Anchor-0" 287 0 basechar 0
LayerCount: 2
Fore
SplineSet
82 0 m 1xcc
 82 530 l 1xac
 142 530 l 1xb4
 144 428 l 1xd4
 170 505 236 542 313 542 c 0
 434 542 491 453 491 341 c 2
 491 0 l 1
 425 0 l 1
 425 317 l 2
 425 420 389 483 299 483 c 0
 208 483 148 420 148 317 c 2
 148 0 l 1
 82 0 l 1xcc
EndSplineSet
EndChar

StartChar: nacute
Encoding: 324 324 242
Width: 573
GlyphClass: 2
Flags: MW
HStem: 0 21G<82 82 82 148 425 425 425 491> 483 59<274.5 344> 510 20G<82 142 142 142> 602 124<257 399 257 399>
VStem: 82 61 82 66<0 317 0 530> 425 66<0 317 317 341 0 368.5>
AnchorPoint: "Anchor-3" 287 530 basechar 0
AnchorPoint: "Anchor-0" 287 0 basechar 0
LayerCount: 2
Fore
SplineSet
257 602 m 1xd6
 325 726 l 1
 399 726 l 1
 313 602 l 1
 257 602 l 1xd6
82 0 m 1
 82 530 l 1xb6
 142 530 l 1xba
 144 428 l 1xda
 170 505 236 542 313 542 c 0
 434 542 491 453 491 341 c 2
 491 0 l 1
 425 0 l 1
 425 317 l 2
 425 420 389 483 299 483 c 0
 208 483 148 420 148 317 c 2
 148 0 l 1
 82 0 l 1
EndSplineSet
EndChar

StartChar: ncaron
Encoding: 328 328 243
Width: 573
GlyphClass: 2
Flags: MW
HStem: 0 21G<82 82 82 148 425 425 425 491> 483 59<274.5 344> 510 20G<82 142 142 142> 602 130<162 322 162 252>
VStem: 82 61 82 66<0 317 0 530> 425 66<0 317 317 341 0 368.5>
AnchorPoint: "Anchor-3" 287 530 basechar 0
AnchorPoint: "Anchor-0" 287 0 basechar 0
LayerCount: 2
Fore
SplineSet
162 732 m 1xd6
 218 732 l 1
 287 639 l 1
 355 732 l 1
 411 732 l 1
 322 602 l 1
 252 602 l 1
 162 732 l 1xd6
82 0 m 1
 82 530 l 1xb6
 142 530 l 1xba
 144 428 l 1xda
 170 505 236 542 313 542 c 0
 434 542 491 453 491 341 c 2
 491 0 l 1
 425 0 l 1
 425 317 l 2
 425 420 389 483 299 483 c 0
 208 483 148 420 148 317 c 2
 148 0 l 1
 82 0 l 1
EndSplineSet
EndChar

StartChar: uni0146
Encoding: 326 326 244
Width: 573
GlyphClass: 2
Flags: MW
HStem: -127 76<245 277 245 328> 0 21G<82 82 82 148 425 425 425 491> 483 59<274.5 344> 510 20G<82 142 142 142>
VStem: 82 61 82 66<0 317 0 530> 245 83<-120 -51 -120 -51 -120 -51> 425 66<0 317 317 341 0 368.5>
AnchorPoint: "Anchor-3" 287 530 basechar 0
AnchorPoint: "Anchor-0" 287 -216 basechar 0
LayerCount: 2
Fore
SplineSet
82 0 m 1xe7
 82 530 l 1xd7
 142 530 l 1xdb
 144 428 l 1xeb
 170 505 236 542 313 542 c 0
 434 542 491 453 491 341 c 2
 491 0 l 1
 425 0 l 1
 425 317 l 2
 425 420 389 483 299 483 c 0
 208 483 148 420 148 317 c 2
 148 0 l 1
 82 0 l 1xe7
228 -216 m 1
 277 -127 l 1
 245 -127 l 1
 245 -51 l 1
 328 -51 l 1
 328 -120 l 1
 274 -216 l 1
 228 -216 l 1
EndSplineSet
Substitution2: "'locl' Localized Forms in Latin lookup 11 subtable" uni0146.loclMAH
Substitution2: "'aalt' Access All Alternates in Latin lookup 0 subtable" uni0146.loclMAH
EndChar

StartChar: ntilde
Encoding: 241 241 245
Width: 573
GlyphClass: 2
Flags: MW
HStem: 0 21G<82 82 82 148 425 425 425 491> 483 59<274.5 344> 510 20G<82 142 142 142> 617 45<339 359.5 339 370> 673 45<211 234.5>
VStem: 82 61 82 66<0 317 0 530> 135 43<610 610> 390 43<728 728> 425 66<0 317 317 341 0 368.5>
AnchorPoint: "Anchor-3" 287 530 basechar 0
AnchorPoint: "Anchor-0" 287 0 basechar 0
LayerCount: 2
Fore
SplineSet
344 617 m 0xd280
 318 617 297 627 276 646 c 0
 256 665 245 673 224 673 c 0
 198 673 180 657 178 610 c 1
 135 610 l 1
 138 680 174 718 224 718 c 0xc940
 256 718 276 706 298 686 c 0
 318 669 331 662 347 662 c 0
 372 662 386 678 390 728 c 1
 433 728 l 1
 429 658 396 617 344 617 c 0xd280
82 0 m 1xca40
 82 530 l 1xaa40
 142 530 l 1xac40
 144 428 l 1xcc40
 170 505 236 542 313 542 c 0
 434 542 491 453 491 341 c 2
 491 0 l 1
 425 0 l 1
 425 317 l 2
 425 420 389 483 299 483 c 0
 208 483 148 420 148 317 c 2
 148 0 l 1
 82 0 l 1xca40
EndSplineSet
EndChar

StartChar: eng
Encoding: 331 331 246
Width: 573
GlyphClass: 2
Flags: MW
HStem: -150 59<270 350 270 352> 0 21G<82 82 82 148> 483 59<274.5 344> 510 20G<82 142 142 142>
VStem: 82 61 82 66<0 317 0 530> 425 66<-15 317 317 341>
AnchorPoint: "Anchor-3" 287 530 basechar 0
AnchorPoint: "Anchor-0" 287 0 basechar 0
LayerCount: 2
Fore
SplineSet
82 0 m 1xe6
 82 530 l 1xd6
 142 530 l 1xda
 144 428 l 1xea
 170 505 236 542 313 542 c 0
 434 542 491 453 491 341 c 2
 491 -15 l 2
 491 -96 435 -150 350 -150 c 2
 270 -150 l 1
 270 -91 l 1
 352 -91 l 2
 396 -91 425 -60 425 -15 c 2
 425 317 l 2
 425 420 389 483 299 483 c 0
 208 483 148 420 148 317 c 2
 148 0 l 1
 82 0 l 1xe6
EndSplineSet
EndChar

StartChar: o
Encoding: 111 111 247
Width: 565
GlyphClass: 2
Flags: MW
HStem: -12 63<230.5 335 230.5 354.5> 479 63<230.5 335>
VStem: 46 69<198.5 331.5 198.5 349.5> 450 69<198.5 331.5>
AnchorPoint: "Anchor-3" 283 530 basechar 0
AnchorPoint: "Anchor-1" 283 265 basechar 0
AnchorPoint: "Anchor-0" 283 0 basechar 0
LayerCount: 2
Fore
SplineSet
283 -12 m 0
 139 -12 46 96 46 265 c 0
 46 434 139 542 283 542 c 0
 426 542 519 434 519 265 c 0
 519 96 426 -12 283 -12 c 0
283 51 m 0
 387 51 450 132 450 265 c 0
 450 398 387 479 283 479 c 0
 178 479 115 398 115 265 c 0
 115 132 178 51 283 51 c 0
EndSplineSet
Substitution2: "Single Substitution lookup 27 subtable" ordmasculine
Substitution2: "'aalt' Access All Alternates in Latin lookup 0 subtable" ordmasculine
EndChar

StartChar: oacute
Encoding: 243 243 248
Width: 565
GlyphClass: 2
Flags: MW
HStem: -12 63<230.5 335 230.5 354.5> 479 63<230.5 335> 602 124<254 396 254 396>
VStem: 46 69<198.5 331.5 198.5 349.5> 450 69<198.5 331.5>
AnchorPoint: "Anchor-3" 283 530 basechar 0
AnchorPoint: "Anchor-1" 283 265 basechar 0
AnchorPoint: "Anchor-0" 283 0 basechar 0
LayerCount: 2
Fore
SplineSet
254 602 m 1
 322 726 l 1
 396 726 l 1
 309 602 l 1
 254 602 l 1
283 -12 m 0
 139 -12 46 96 46 265 c 0
 46 434 139 542 283 542 c 0
 426 542 519 434 519 265 c 0
 519 96 426 -12 283 -12 c 0
283 51 m 0
 387 51 450 132 450 265 c 0
 450 398 387 479 283 479 c 0
 178 479 115 398 115 265 c 0
 115 132 178 51 283 51 c 0
EndSplineSet
EndChar

StartChar: ocircumflex
Encoding: 244 244 249
Width: 565
GlyphClass: 2
Flags: MW
HStem: -12 63<230.5 335 230.5 354.5> 479 63<230.5 335> 602 130<159 318 159 318 248 352 248 408>
VStem: 46 69<198.5 331.5 198.5 349.5> 450 69<198.5 331.5>
AnchorPoint: "Anchor-3" 283 530 basechar 0
AnchorPoint: "Anchor-1" 283 265 basechar 0
AnchorPoint: "Anchor-0" 283 0 basechar 0
LayerCount: 2
Fore
SplineSet
159 602 m 1
 248 732 l 1
 318 732 l 1
 408 602 l 1
 352 602 l 1
 283 695 l 1
 215 602 l 1
 159 602 l 1
283 -12 m 0
 139 -12 46 96 46 265 c 0
 46 434 139 542 283 542 c 0
 426 542 519 434 519 265 c 0
 519 96 426 -12 283 -12 c 0
283 51 m 0
 387 51 450 132 450 265 c 0
 450 398 387 479 283 479 c 0
 178 479 115 398 115 265 c 0
 115 132 178 51 283 51 c 0
EndSplineSet
EndChar

StartChar: odieresis
Encoding: 246 246 250
Width: 565
GlyphClass: 2
Flags: MW
HStem: -12 63<230.5 335 230.5 354.5> 479 63<230.5 335> 618 89<169 239 169 239 327 397 169 327>
VStem: 46 69<198.5 331.5 198.5 349.5> 169 70<618 707 618 707> 327 70<618 707 618 707> 450 69<198.5 331.5>
AnchorPoint: "Anchor-3" 283 530 basechar 0
AnchorPoint: "Anchor-1" 283 265 basechar 0
AnchorPoint: "Anchor-0" 283 0 basechar 0
LayerCount: 2
Fore
SplineSet
169 618 m 1
 169 707 l 1
 239 707 l 1
 239 618 l 1
 169 618 l 1
327 618 m 1
 327 707 l 1
 397 707 l 1
 397 618 l 1
 327 618 l 1
283 -12 m 0
 139 -12 46 96 46 265 c 0
 46 434 139 542 283 542 c 0
 426 542 519 434 519 265 c 0
 519 96 426 -12 283 -12 c 0
283 51 m 0
 387 51 450 132 450 265 c 0
 450 398 387 479 283 479 c 0
 178 479 115 398 115 265 c 0
 115 132 178 51 283 51 c 0
EndSplineSet
Substitution2: "'ss08' Style Set 8 in Latin lookup 41 subtable" odieresis.ss08
Substitution2: "'aalt' Access All Alternates in Latin lookup 0 subtable" odieresis.ss08
EndChar

StartChar: ograve
Encoding: 242 242 251
Width: 565
GlyphClass: 2
Flags: MW
HStem: -12 63<230.5 335 230.5 354.5> 479 63<230.5 335> 608 124<171 258 171 313>
VStem: 46 69<198.5 331.5 198.5 349.5> 450 69<198.5 331.5>
AnchorPoint: "Anchor-3" 283 530 basechar 0
AnchorPoint: "Anchor-1" 283 265 basechar 0
AnchorPoint: "Anchor-0" 283 0 basechar 0
LayerCount: 2
Fore
SplineSet
258 608 m 1
 171 732 l 1
 245 732 l 1
 313 608 l 1
 258 608 l 1
283 -12 m 0
 139 -12 46 96 46 265 c 0
 46 434 139 542 283 542 c 0
 426 542 519 434 519 265 c 0
 519 96 426 -12 283 -12 c 0
283 51 m 0
 387 51 450 132 450 265 c 0
 450 398 387 479 283 479 c 0
 178 479 115 398 115 265 c 0
 115 132 178 51 283 51 c 0
EndSplineSet
EndChar

StartChar: ohungarumlaut
Encoding: 337 337 252
Width: 565
GlyphClass: 2
Flags: MW
HStem: -12 63<230.5 335 230.5 354.5> 479 63<230.5 335> 602 124<194 336 194 336 312 336 262 368 312 312>
VStem: 46 69<198.5 331.5 198.5 349.5> 450 69<198.5 331.5>
AnchorPoint: "Anchor-3" 283 530 basechar 0
AnchorPoint: "Anchor-1" 283 265 basechar 0
AnchorPoint: "Anchor-0" 283 0 basechar 0
LayerCount: 2
Fore
SplineSet
194 602 m 1
 262 726 l 1
 336 726 l 1
 249 602 l 1
 194 602 l 1
312 602 m 1
 380 726 l 1
 454 726 l 1
 368 602 l 1
 312 602 l 1
283 -12 m 0
 139 -12 46 96 46 265 c 0
 46 434 139 542 283 542 c 0
 426 542 519 434 519 265 c 0
 519 96 426 -12 283 -12 c 0
283 51 m 0
 387 51 450 132 450 265 c 0
 450 398 387 479 283 479 c 0
 178 479 115 398 115 265 c 0
 115 132 178 51 283 51 c 0
EndSplineSet
EndChar

StartChar: omacron
Encoding: 333 333 253
Width: 565
GlyphClass: 2
Flags: MW
HStem: -12 63<230.5 335 230.5 354.5> 479 63<230.5 335> 631 58<152 414 152 414>
VStem: 46 69<198.5 331.5 198.5 349.5> 152 262<631 689 631 689> 450 69<198.5 331.5>
AnchorPoint: "Anchor-3" 283 530 basechar 0
AnchorPoint: "Anchor-1" 283 265 basechar 0
AnchorPoint: "Anchor-0" 283 0 basechar 0
LayerCount: 2
Fore
SplineSet
152 631 m 1
 152 689 l 1
 414 689 l 1
 414 631 l 1
 152 631 l 1
283 -12 m 0
 139 -12 46 96 46 265 c 0
 46 434 139 542 283 542 c 0
 426 542 519 434 519 265 c 0
 519 96 426 -12 283 -12 c 0
283 51 m 0
 387 51 450 132 450 265 c 0
 450 398 387 479 283 479 c 0
 178 479 115 398 115 265 c 0
 115 132 178 51 283 51 c 0
EndSplineSet
EndChar

StartChar: oslash
Encoding: 248 248 254
Width: 565
GlyphClass: 2
Flags: MW
HStem: -14 71<68 116 116 116 116 125> -12 63<264.5 335 264.5 354.5> 479 63<230.5 301.5>
VStem: 46 69<234 331.5 234 349.5> 450 69<198.5 296>
AnchorPoint: "Anchor-3" 283 530 basechar 0
AnchorPoint: "Anchor-1" 283 265 basechar 0
AnchorPoint: "Anchor-0" 283 0 basechar 0
LayerCount: 2
Fore
SplineSet
68 -14 m 1x78
 116 57 l 1xb8
 71 106 46 177 46 265 c 0
 46 434 139 542 283 542 c 0
 333 542 377 529 413 504 c 1
 440 544 l 1
 497 544 l 1
 450 473 l 1
 494 425 519 353 519 265 c 0
 519 96 426 -12 283 -12 c 0
 232 -12 188 1 152 26 c 1
 125 -14 l 1
 68 -14 l 1x78
115 265 m 0
 115 203 129 152 154 116 c 1
 377 450 l 1
 352 469 320 479 283 479 c 0
 178 479 115 398 115 265 c 0
283 51 m 0
 387 51 450 132 450 265 c 0
 450 327 436 378 411 414 c 1
 188 80 l 1x78
 214 61 246 51 283 51 c 0
EndSplineSet
EndChar

StartChar: otilde
Encoding: 245 245 255
Width: 565
GlyphClass: 2
Flags: MW
HStem: -12 63<230.5 335 230.5 354.5> 479 63<230.5 335> 617 45<335 356 335 367> 673 45<207 230.5>
VStem: 46 69<198.5 331.5 198.5 349.5> 131 44<610 610> 386 43<728 728> 450 69<198.5 331.5>
AnchorPoint: "Anchor-3" 283 530 basechar 0
AnchorPoint: "Anchor-1" 283 265 basechar 0
AnchorPoint: "Anchor-0" 283 0 basechar 0
LayerCount: 2
Fore
SplineSet
341 617 m 0
 314 617 294 627 273 646 c 0
 252 665 241 673 220 673 c 0
 194 673 177 657 175 610 c 1
 131 610 l 1
 134 680 170 718 220 718 c 0xd5
 252 718 273 706 295 686 c 0
 315 669 327 662 343 662 c 0
 369 662 382 678 386 728 c 1
 429 728 l 1
 425 658 393 617 341 617 c 0
283 -12 m 0
 139 -12 46 96 46 265 c 0xd9
 46 434 139 542 283 542 c 0
 426 542 519 434 519 265 c 0
 519 96 426 -12 283 -12 c 0
283 51 m 0
 387 51 450 132 450 265 c 0
 450 398 387 479 283 479 c 0
 178 479 115 398 115 265 c 0
 115 132 178 51 283 51 c 0
EndSplineSet
EndChar

StartChar: oe
Encoding: 339 339 256
Width: 962
GlyphClass: 2
Flags: MW
HStem: -12 63<230.5 329 641.5 728> 246 59<520 844 520 916 520 844> 479 63<230.5 329 211 335 639 731>
VStem: 46 69<198.5 331.5 198.5 349.5> 450 70<246 246 246 305 246 331.5> 844 72<246 305>
AnchorPoint: "Anchor-3" 482 530 basechar 0
AnchorPoint: "Anchor-2" 823 29 basechar 0
AnchorPoint: "Anchor-1" 283 265 basechar 0
AnchorPoint: "Anchor-0" 482 0 basechar 0
LayerCount: 2
Fore
SplineSet
283 -12 m 0
 139 -12 46 96 46 265 c 0
 46 434 139 542 283 542 c 0
 375 542 446 498 485 422 c 1
 523 496 592 542 685 542 c 0
 828 542 916 433 916 267 c 2
 916 246 l 1
 520 246 l 1
 525 120 589 51 689 51 c 0
 767 51 817 92 836 153 c 1
 907 148 l 1
 880 54 800 -12 689 -12 c 0
 594 -12 524 34 485 108 c 1
 446 32 375 -12 283 -12 c 0
283 51 m 0
 387 51 450 132 450 265 c 0
 450 398 387 479 283 479 c 0
 178 479 115 398 115 265 c 0
 115 132 178 51 283 51 c 0
520 305 m 1
 844 305 l 1
 837 418 777 479 685 479 c 0
 593 479 532 416 520 305 c 1
EndSplineSet
EndChar

StartChar: p
Encoding: 112 112 257
Width: 587
GlyphClass: 2
Flags: MW
HStem: -150 21G<82 82 82 148> -12 63<278.5 360.5 261.5 391> 479 63<277 360> 510 20G<82 142 142 142>
VStem: 82 61 82 66<-150 90 198.5 331.5> 471 70<198.5 331.5>
AnchorPoint: "Anchor-3" 294 530 basechar 0
AnchorPoint: "Anchor-0" 294 0 basechar 0
LayerCount: 2
Fore
SplineSet
82 -150 m 1xe6
 82 530 l 1xd6
 142 530 l 1xda
 144 431 l 1xea
 175 503 238 542 316 542 c 0
 466 542 541 419 541 265 c 0
 541 111 466 -12 316 -12 c 0
 241 -12 175 31 148 90 c 1
 148 -150 l 1
 82 -150 l 1xe6
311 51 m 0
 410 51 471 132 471 265 c 0
 471 398 410 479 310 479 c 0xe6
 212 479 148 398 148 265 c 0
 148 132 212 51 311 51 c 0
EndSplineSet
EndChar

StartChar: thorn
Encoding: 254 254 258
Width: 587
GlyphClass: 2
Flags: MW
HStem: -150 21G<82 82 82 150> -12 63<280 364 254 391.5> 480 61<279.5 364> 690 20G<82 150 150 150>
VStem: 82 62<209 322 209 710> 82 68<-150 81 444 710> 473 68<206 325>
AnchorPoint: "Anchor-3" 295 530 basechar 0
AnchorPoint: "Anchor-0" 295 0 basechar 0
LayerCount: 2
Fore
SplineSet
82 -150 m 1xf6
 82 710 l 1
 150 710 l 1
 150 444 l 1
 179 504 241 541 318 541 c 0
 465 541 541 418 541 265 c 0
 541 111 465 -12 318 -12 c 0
 242 -12 184 23 150 81 c 1
 150 -150 l 1
 82 -150 l 1xf6
308 51 m 0
 420 51 473 147 473 265 c 0
 473 385 420 480 308 480 c 0
 200 480 144 379 144 265 c 0xfa
 144 153 200 51 308 51 c 0
EndSplineSet
EndChar

